{"glyphs":{"0":{"ha":704,"x_min":55,"x_max":649,"o":"m 351 -14 q 138 59 213 -14 q 58 265 62 131 q 56 458 56 359 q 56 655 55 556 q 58 847 56 753 q 138 1053 62 982 q 351 1125 213 1125 q 564 1053 488 1125 q 643 847 639 982 q 647 703 646 776 q 649 555 649 629 q 647 408 649 481 q 643 265 646 335 q 564 59 639 131 q 351 -14 488 -14 m 351 156 q 435 226 431 156 q 441 444 440 333 q 441 668 443 556 q 435 886 440 780 q 351 956 433 956 q 267 886 269 956 q 262 723 264 806 q 260 556 260 640 q 262 389 260 472 q 267 226 264 306 q 351 156 269 156 z "},"1":{"ha":381,"x_min":42,"x_max":325,"o":"m 117 0 l 117 928 l 46 928 l 42 1001 l 161 1111 l 325 1111 l 325 0 l 117 0 z "},"2":{"ha":681,"x_min":56,"x_max":640,"o":"m 58 0 q 57 57 58 32 q 56 102 56 82 q 56 142 56 123 q 56 183 56 162 q 57 229 56 203 q 82 360 59 301 q 150 468 105 419 q 267 556 196 517 l 360 607 q 417 669 403 631 q 431 735 430 707 q 433 810 433 772 q 431 886 433 849 q 407 938 428 919 q 344 956 386 956 q 286 938 306 956 q 265 886 267 919 q 263 790 263 838 q 265 694 263 742 l 60 694 q 58 747 58 719 q 57 801 57 774 q 57 847 56 827 q 130 1061 63 997 q 344 1125 197 1125 q 513 1097 449 1125 q 605 1008 576 1069 q 639 847 635 947 q 640 820 640 834 q 640 793 640 807 q 640 765 640 779 q 639 735 640 750 q 614 609 637 665 q 549 509 592 553 q 442 429 506 465 l 333 369 q 292 329 307 355 q 272 276 278 303 q 267 229 267 249 l 267 183 l 621 183 l 621 0 l 58 0 z "},"3":{"ha":700,"x_min":42,"x_max":644,"o":"m 349 -14 q 118 51 190 -14 q 43 265 47 115 q 42 302 42 288 q 42 331 42 317 q 43 368 42 346 l 251 368 l 251 238 q 275 177 251 198 q 343 156 299 156 q 410 177 387 156 q 435 238 434 198 q 436 310 436 269 q 435 378 436 351 q 415 451 433 421 q 336 479 397 481 l 201 478 l 196 653 l 394 928 l 60 928 l 60 1111 l 632 1111 l 629 933 l 422 658 q 585 581 533 647 q 643 379 637 514 q 644 351 644 365 q 644 323 644 337 q 644 295 644 310 q 643 265 644 281 q 569 51 637 115 q 349 -14 501 -14 z "},"4":{"ha":710,"x_min":42,"x_max":696,"o":"m 382 0 l 382 279 l 42 279 l 42 453 l 306 1111 l 578 1111 l 578 461 l 696 461 l 696 279 l 578 279 l 578 0 l 382 0 m 240 461 l 382 461 l 410 717 l 433 928 l 394 928 l 329 717 l 240 461 z "},"5":{"ha":715,"x_min":55,"x_max":660,"o":"m 361 -14 q 131 51 202 -14 q 56 265 60 115 q 55 320 55 299 q 57 368 55 342 l 265 368 q 263 325 263 350 q 262 275 262 299 q 264 238 263 251 q 290 177 268 198 q 356 156 312 156 q 422 177 399 156 q 447 238 444 198 q 453 359 453 299 q 449 471 454 419 q 424 524 446 506 q 364 542 403 542 q 315 533 335 542 q 282 509 294 525 q 269 471 270 493 l 72 471 l 72 1111 l 638 1111 l 638 928 l 281 928 l 281 633 l 311 633 q 369 690 330 667 q 464 714 409 714 q 604 649 557 714 q 657 475 651 585 q 660 402 659 439 q 659 330 660 365 q 656 265 658 294 q 615 104 646 165 q 524 14 585 42 q 361 -14 463 -14 z "},"6":{"ha":692,"x_min":56,"x_max":647,"o":"m 349 -14 q 126 51 194 -14 q 57 265 58 115 q 56 454 56 360 q 56 628 56 547 q 56 766 56 708 q 57 847 56 824 q 139 1057 63 989 q 347 1125 215 1125 q 559 1055 485 1125 q 639 847 634 984 q 639 824 639 836 q 639 798 639 811 q 638 771 638 785 l 431 771 q 432 803 432 789 q 432 837 433 818 q 431 886 432 856 q 411 936 430 917 q 350 956 392 956 q 289 938 310 956 q 265 886 267 919 q 262 764 263 832 q 261 619 261 697 l 297 619 q 355 677 315 654 q 450 700 395 700 q 603 645 562 700 q 646 461 644 590 q 647 389 647 424 q 647 324 647 355 q 644 265 646 293 q 570 51 638 115 q 349 -14 502 -14 m 350 156 q 413 174 391 156 q 436 226 435 192 q 438 290 438 259 q 438 351 438 322 q 438 407 438 381 q 438 457 438 433 q 414 510 437 492 q 353 528 392 528 q 286 510 310 528 q 261 458 263 492 q 263 345 263 403 q 265 226 263 287 q 289 174 267 192 q 350 156 310 156 z "},"7":{"ha":674,"x_min":28,"x_max":632,"o":"m 110 0 l 425 928 l 28 928 l 28 1111 l 632 1111 l 632 922 l 326 0 l 110 0 z "},"8":{"ha":695,"x_min":52,"x_max":643,"o":"m 347 -14 q 128 51 197 -14 q 53 265 59 115 q 52 297 52 281 q 53 328 53 313 q 56 358 54 343 q 92 479 63 435 q 178 549 121 524 l 178 579 q 110 627 140 594 q 69 710 80 660 q 64 753 66 726 q 60 805 61 779 q 60 846 59 831 q 133 1060 66 996 q 347 1125 199 1125 q 561 1060 495 1125 q 635 846 628 996 q 634 805 635 831 q 631 753 633 779 q 625 710 628 726 q 585 627 615 660 q 517 579 556 594 l 517 547 q 599 478 568 522 q 639 358 630 433 q 643 313 642 335 q 642 265 643 290 q 567 51 635 115 q 347 -14 499 -14 m 347 156 q 412 177 391 156 q 433 238 433 198 q 433 285 433 261 q 433 333 433 309 q 433 381 433 357 q 412 441 433 420 q 347 463 391 463 q 282 441 303 463 q 261 381 261 420 q 261 309 261 345 q 261 238 261 273 q 282 177 261 198 q 347 156 303 156 m 347 661 q 412 682 391 661 q 433 743 433 703 q 433 809 433 776 q 433 874 433 842 q 412 934 433 913 q 347 956 391 956 q 282 934 303 956 q 261 874 261 913 q 261 841 261 858 q 261 808 261 825 q 261 775 261 792 q 261 743 261 759 q 282 682 261 703 q 347 661 303 661 z "},"9":{"ha":693,"x_min":45,"x_max":638,"o":"m 351 -14 q 132 51 199 -14 q 66 264 66 115 q 66 288 66 275 q 66 313 66 300 q 67 340 67 326 l 274 340 q 273 287 274 313 q 274 225 272 260 q 291 175 276 194 q 348 156 306 156 q 406 174 388 156 q 426 225 424 192 q 430 343 428 275 q 433 492 432 412 l 402 492 q 352 434 387 458 q 262 411 317 411 q 157 436 207 411 q 76 517 108 462 q 45 663 45 573 q 45 709 45 687 q 45 753 45 731 q 45 798 45 775 q 47 846 46 821 q 120 1060 50 996 q 342 1125 190 1125 q 565 1060 498 1125 q 634 846 631 996 q 637 638 636 734 q 637 451 638 542 q 634 264 636 360 q 564 51 631 115 q 351 -14 496 -14 m 347 583 q 407 599 386 583 q 433 644 428 615 q 430 763 432 703 q 426 885 428 824 q 403 938 425 919 q 341 956 381 956 q 278 938 301 956 q 255 885 255 919 q 255 827 255 854 q 254 773 254 800 q 253 718 253 747 q 253 654 253 689 q 282 602 255 620 q 347 583 308 583 z "}," ":{"ha":306,"x_min":0,"x_max":0,"o":""},"A":{"ha":664,"x_min":14,"x_max":650,"o":"m 14 0 l 168 1111 l 496 1111 l 650 0 l 436 0 l 413 232 l 251 232 l 228 0 l 14 0 m 271 415 l 393 415 l 368 661 l 351 928 l 313 928 l 296 661 l 271 415 z "},"Æ":{"ha":950,"x_min":14,"x_max":919,"o":"m 14 0 l 244 1111 l 919 1111 l 919 928 l 647 928 l 647 657 l 906 657 l 906 474 l 647 474 l 647 183 l 919 183 l 919 0 l 439 0 l 439 232 l 292 232 l 242 0 l 14 0 m 331 415 l 439 415 l 439 928 l 403 928 l 372 606 l 331 415 z "},"Ǽ":{"ha":950,"x_min":14,"x_max":919,"o":"m 14 0 l 244 1111 l 919 1111 l 919 928 l 647 928 l 647 657 l 906 657 l 906 474 l 647 474 l 647 183 l 919 183 l 919 0 l 439 0 l 439 232 l 292 232 l 242 0 l 14 0 m 331 415 l 439 415 l 439 928 l 403 928 l 372 606 l 331 415 m 500 1167 l 635 1360 l 768 1360 l 626 1167 l 500 1167 z "},"Á":{"ha":664,"x_min":14,"x_max":650,"o":"m 14 0 l 168 1111 l 496 1111 l 650 0 l 436 0 l 413 232 l 251 232 l 228 0 l 14 0 m 271 415 l 393 415 l 368 661 l 351 928 l 313 928 l 296 661 l 271 415 m 275 1167 l 410 1360 l 543 1360 l 401 1167 l 275 1167 z "},"Ă":{"ha":664,"x_min":14,"x_max":650,"o":"m 14 0 l 168 1111 l 496 1111 l 650 0 l 436 0 l 413 232 l 251 232 l 228 0 l 14 0 m 271 415 l 393 415 l 368 661 l 351 928 l 313 928 l 296 661 l 271 415 m 332 1160 q 177 1207 226 1160 q 122 1365 128 1255 l 246 1365 q 266 1288 246 1311 q 332 1264 286 1264 q 398 1288 378 1264 q 418 1365 418 1311 l 542 1365 q 486 1207 535 1255 q 332 1160 438 1160 z "},"Ắ":{"ha":664,"x_min":14,"x_max":650,"o":"m 14 0 l 168 1111 l 496 1111 l 650 0 l 436 0 l 413 232 l 251 232 l 228 0 l 14 0 m 271 415 l 393 415 l 368 661 l 351 928 l 313 928 l 296 661 l 271 415 m 332 1160 q 177 1207 226 1160 q 122 1365 128 1255 l 246 1365 q 266 1288 246 1311 q 332 1264 286 1264 q 398 1288 378 1264 q 418 1365 418 1311 l 542 1365 q 486 1207 535 1255 q 332 1160 438 1160 m 275 1415 l 410 1608 l 543 1608 l 401 1415 l 275 1415 z "},"Ặ":{"ha":664,"x_min":14,"x_max":650,"o":"m 14 0 l 168 1111 l 496 1111 l 650 0 l 436 0 l 413 232 l 251 232 l 228 0 l 14 0 m 271 415 l 393 415 l 368 661 l 351 928 l 313 928 l 296 661 l 271 415 m 263 -193 l 263 -56 l 400 -56 l 400 -193 l 263 -193 m 332 1160 q 177 1207 226 1160 q 122 1365 128 1255 l 246 1365 q 266 1288 246 1311 q 332 1264 286 1264 q 398 1288 378 1264 q 418 1365 418 1311 l 542 1365 q 486 1207 535 1255 q 332 1160 438 1160 z "},"Ằ":{"ha":664,"x_min":14,"x_max":650,"o":"m 14 0 l 168 1111 l 496 1111 l 650 0 l 436 0 l 413 232 l 251 232 l 228 0 l 14 0 m 271 415 l 393 415 l 368 661 l 351 928 l 313 928 l 296 661 l 271 415 m 332 1160 q 177 1207 226 1160 q 122 1365 128 1255 l 246 1365 q 266 1288 246 1311 q 332 1264 286 1264 q 398 1288 378 1264 q 418 1365 418 1311 l 542 1365 q 486 1207 535 1255 q 332 1160 438 1160 m 247 1415 l 119 1608 l 253 1608 l 374 1415 l 247 1415 z "},"Ẳ":{"ha":664,"x_min":14,"x_max":650,"o":"m 14 0 l 168 1111 l 496 1111 l 650 0 l 436 0 l 413 232 l 251 232 l 228 0 l 14 0 m 271 415 l 393 415 l 368 661 l 351 928 l 313 928 l 296 661 l 271 415 m 332 1160 q 177 1207 226 1160 q 122 1365 128 1255 l 246 1365 q 266 1288 246 1311 q 332 1264 286 1264 q 398 1288 378 1264 q 418 1365 418 1311 l 542 1365 q 486 1207 535 1255 q 332 1160 438 1160 m 281 1393 l 290 1433 q 286 1493 301 1478 q 215 1508 271 1508 l 153 1508 l 153 1606 l 215 1606 q 369 1565 319 1606 q 396 1433 418 1524 l 386 1393 l 281 1393 z "},"Ẵ":{"ha":664,"x_min":14,"x_max":650,"o":"m 14 0 l 168 1111 l 496 1111 l 650 0 l 436 0 l 413 232 l 251 232 l 228 0 l 14 0 m 271 415 l 393 415 l 368 661 l 351 928 l 313 928 l 296 661 l 271 415 m 332 1160 q 177 1207 226 1160 q 122 1365 128 1255 l 246 1365 q 266 1288 246 1311 q 332 1264 286 1264 q 398 1288 378 1264 q 418 1365 418 1311 l 542 1365 q 486 1207 535 1255 q 332 1160 438 1160 m 433 1565 l 511 1565 q 480 1449 507 1485 q 402 1413 453 1413 q 355 1423 372 1413 q 325 1446 337 1433 q 300 1469 313 1459 q 267 1479 288 1479 q 239 1464 245 1479 q 231 1422 233 1449 l 153 1422 q 186 1546 158 1509 q 265 1583 215 1583 q 314 1574 295 1583 q 345 1551 333 1564 q 371 1528 358 1538 q 402 1518 384 1518 q 426 1530 420 1518 q 433 1565 432 1542 z "},"Ǎ":{"ha":664,"x_min":14,"x_max":650,"o":"m 14 0 l 168 1111 l 496 1111 l 650 0 l 436 0 l 413 232 l 251 232 l 228 0 l 14 0 m 271 415 l 393 415 l 368 661 l 351 928 l 313 928 l 296 661 l 271 415 m 278 1168 l 164 1361 l 283 1361 l 331 1269 l 378 1361 l 497 1361 l 383 1168 l 278 1168 z "},"Â":{"ha":664,"x_min":14,"x_max":650,"o":"m 14 0 l 168 1111 l 496 1111 l 650 0 l 436 0 l 413 232 l 251 232 l 228 0 l 14 0 m 271 415 l 393 415 l 368 661 l 351 928 l 313 928 l 296 661 l 271 415 m 157 1168 l 271 1361 l 390 1361 l 504 1168 l 371 1168 l 331 1246 l 290 1168 l 157 1168 z "},"Ấ":{"ha":664,"x_min":14,"x_max":750,"o":"m 14 0 l 168 1111 l 496 1111 l 650 0 l 436 0 l 413 232 l 251 232 l 228 0 l 14 0 m 271 415 l 393 415 l 368 661 l 351 928 l 313 928 l 296 661 l 271 415 m 157 1168 l 271 1361 l 390 1361 l 504 1168 l 371 1168 l 331 1246 l 290 1168 l 157 1168 m 482 1347 l 617 1540 l 750 1540 l 608 1347 l 482 1347 z "},"Ậ":{"ha":664,"x_min":14,"x_max":650,"o":"m 14 0 l 168 1111 l 496 1111 l 650 0 l 436 0 l 413 232 l 251 232 l 228 0 l 14 0 m 271 415 l 393 415 l 368 661 l 351 928 l 313 928 l 296 661 l 271 415 m 263 -193 l 263 -56 l 400 -56 l 400 -193 l 263 -193 m 157 1168 l 271 1361 l 390 1361 l 504 1168 l 371 1168 l 331 1246 l 290 1168 l 157 1168 z "},"Ầ":{"ha":664,"x_min":14,"x_max":650,"o":"m 14 0 l 168 1111 l 496 1111 l 650 0 l 436 0 l 413 232 l 251 232 l 228 0 l 14 0 m 271 415 l 393 415 l 368 661 l 351 928 l 313 928 l 296 661 l 271 415 m 157 1168 l 271 1361 l 390 1361 l 504 1168 l 371 1168 l 331 1246 l 290 1168 l 157 1168 m 524 1347 l 396 1540 l 529 1540 l 650 1347 l 524 1347 z "},"Ẩ":{"ha":664,"x_min":14,"x_max":650,"o":"m 14 0 l 168 1111 l 496 1111 l 650 0 l 436 0 l 413 232 l 251 232 l 228 0 l 14 0 m 271 415 l 393 415 l 368 661 l 351 928 l 313 928 l 296 661 l 271 415 m 157 1168 l 271 1361 l 390 1361 l 504 1168 l 371 1168 l 331 1246 l 290 1168 l 157 1168 m 485 1325 l 494 1365 q 490 1425 506 1410 q 419 1440 475 1440 l 358 1440 l 358 1538 l 419 1538 q 573 1497 524 1538 q 600 1365 622 1456 l 590 1325 l 485 1325 z "},"Ẫ":{"ha":664,"x_min":14,"x_max":650,"o":"m 14 0 l 168 1111 l 496 1111 l 650 0 l 436 0 l 413 232 l 251 232 l 228 0 l 14 0 m 271 415 l 393 415 l 368 661 l 351 928 l 313 928 l 296 661 l 271 415 m 157 1168 l 271 1361 l 390 1361 l 504 1168 l 371 1168 l 331 1246 l 290 1168 l 157 1168 m 450 1546 l 528 1546 q 497 1430 524 1466 q 419 1393 469 1393 q 371 1403 389 1393 q 341 1426 353 1413 q 317 1450 329 1440 q 284 1460 304 1460 q 256 1444 262 1460 q 247 1403 249 1429 l 169 1403 q 203 1527 175 1490 q 282 1564 231 1564 q 331 1554 312 1564 q 362 1531 349 1544 q 388 1508 375 1518 q 419 1499 401 1499 q 443 1510 437 1499 q 450 1546 449 1522 z "},"Ȁ":{"ha":664,"x_min":14,"x_max":650,"o":"m 14 0 l 168 1111 l 496 1111 l 650 0 l 436 0 l 413 232 l 251 232 l 228 0 l 14 0 m 271 415 l 393 415 l 368 661 l 351 928 l 313 928 l 296 661 l 271 415 m 363 1167 l 235 1360 l 368 1360 l 496 1167 l 363 1167 m 168 1167 l 40 1360 l 174 1360 l 301 1167 l 168 1167 z "},"Ä":{"ha":664,"x_min":14,"x_max":650,"o":"m 14 0 l 168 1111 l 496 1111 l 650 0 l 436 0 l 413 232 l 251 232 l 228 0 l 14 0 m 271 415 l 393 415 l 368 661 l 351 928 l 313 928 l 296 661 l 271 415 m 369 1188 l 369 1325 l 507 1325 l 507 1188 l 369 1188 m 157 1188 l 157 1325 l 294 1325 l 294 1188 l 157 1188 z "},"Ạ":{"ha":664,"x_min":14,"x_max":650,"o":"m 14 0 l 168 1111 l 496 1111 l 650 0 l 436 0 l 413 232 l 251 232 l 228 0 l 14 0 m 271 415 l 393 415 l 368 661 l 351 928 l 313 928 l 296 661 l 271 415 m 263 -193 l 263 -56 l 400 -56 l 400 -193 l 263 -193 z "},"À":{"ha":664,"x_min":14,"x_max":650,"o":"m 14 0 l 168 1111 l 496 1111 l 650 0 l 436 0 l 413 232 l 251 232 l 228 0 l 14 0 m 271 415 l 393 415 l 368 661 l 351 928 l 313 928 l 296 661 l 271 415 m 247 1167 l 119 1360 l 253 1360 l 374 1167 l 247 1167 z "},"Ả":{"ha":664,"x_min":14,"x_max":650,"o":"m 14 0 l 168 1111 l 496 1111 l 650 0 l 436 0 l 413 232 l 251 232 l 228 0 l 14 0 m 271 415 l 393 415 l 368 661 l 351 928 l 313 928 l 296 661 l 271 415 m 343 1158 l 353 1199 q 349 1258 364 1243 q 278 1274 333 1274 l 216 1274 l 216 1371 l 278 1371 q 431 1330 382 1371 q 458 1199 481 1289 l 449 1158 l 343 1158 z "},"Ȃ":{"ha":664,"x_min":14,"x_max":650,"o":"m 332 1372 q 486 1325 438 1372 q 542 1167 535 1277 l 418 1167 q 398 1244 418 1221 q 332 1268 378 1268 q 266 1244 286 1268 q 246 1167 246 1221 l 122 1167 q 177 1325 128 1277 q 332 1372 226 1372 m 14 0 l 168 1111 l 496 1111 l 650 0 l 436 0 l 413 232 l 251 232 l 228 0 l 14 0 m 271 415 l 393 415 l 368 661 l 351 928 l 313 928 l 296 661 l 271 415 z "},"Ā":{"ha":664,"x_min":14,"x_max":650,"o":"m 14 0 l 168 1111 l 496 1111 l 650 0 l 436 0 l 413 232 l 251 232 l 228 0 l 14 0 m 271 415 l 393 415 l 368 661 l 351 928 l 313 928 l 296 661 l 271 415 m 95 1246 l 562 1246 l 562 1153 l 95 1153 l 95 1246 z "},"Ą":{"ha":664,"x_min":14,"x_max":653,"o":"m 14 0 l 168 1111 l 496 1111 l 650 0 l 436 0 l 413 232 l 251 232 l 228 0 l 14 0 m 271 415 l 393 415 l 368 661 l 351 928 l 313 928 l 296 661 l 271 415 m 653 -232 l 608 -232 q 459 -192 503 -232 q 428 -60 415 -151 l 436 0 l 542 0 l 533 -60 q 547 -117 528 -100 q 608 -135 565 -135 l 653 -135 l 653 -232 z "},"Å":{"ha":664,"x_min":14,"x_max":650,"o":"m 14 0 l 168 1111 l 496 1111 l 650 0 l 436 0 l 413 232 l 251 232 l 228 0 l 14 0 m 271 415 l 393 415 l 368 661 l 351 928 l 313 928 l 296 661 l 271 415 m 332 1160 q 227 1203 271 1160 q 183 1308 183 1247 q 227 1414 183 1370 q 332 1457 271 1457 q 437 1414 394 1457 q 481 1308 481 1370 q 437 1203 481 1247 q 332 1160 394 1160 m 332 1267 q 362 1279 350 1267 q 374 1308 374 1291 q 362 1338 374 1326 q 332 1350 350 1350 q 302 1338 315 1350 q 290 1308 290 1326 q 302 1279 290 1291 q 332 1267 315 1267 z "},"Ǻ":{"ha":664,"x_min":14,"x_max":650,"o":"m 14 0 l 168 1111 l 496 1111 l 650 0 l 436 0 l 413 232 l 251 232 l 228 0 l 14 0 m 271 415 l 393 415 l 368 661 l 351 928 l 313 928 l 296 661 l 271 415 m 332 1160 q 227 1203 271 1160 q 183 1308 183 1247 q 227 1414 183 1370 q 332 1457 271 1457 q 437 1414 394 1457 q 481 1308 481 1370 q 437 1203 481 1247 q 332 1160 394 1160 m 332 1267 q 362 1279 350 1267 q 374 1308 374 1291 q 362 1338 374 1326 q 332 1350 350 1350 q 302 1338 315 1350 q 290 1308 290 1326 q 302 1279 290 1291 q 332 1267 315 1267 m 275 1519 l 410 1713 l 543 1713 l 401 1519 l 275 1519 z "},"Ã":{"ha":664,"x_min":14,"x_max":650,"o":"m 14 0 l 168 1111 l 496 1111 l 650 0 l 436 0 l 413 232 l 251 232 l 228 0 l 14 0 m 271 415 l 393 415 l 368 661 l 351 928 l 313 928 l 296 661 l 271 415 m 433 1317 l 511 1317 q 480 1200 507 1237 q 402 1164 453 1164 q 355 1174 372 1164 q 325 1197 337 1184 q 300 1220 313 1210 q 267 1231 288 1231 q 239 1215 245 1231 q 231 1174 233 1200 l 153 1174 q 186 1298 158 1260 q 265 1335 215 1335 q 314 1325 295 1335 q 345 1302 333 1315 q 371 1279 358 1289 q 402 1269 384 1269 q 426 1281 420 1269 q 433 1317 432 1293 z "},"B":{"ha":656,"x_min":56,"x_max":613,"o":"m 56 0 l 56 1111 l 313 1111 q 540 1048 468 1111 q 611 840 611 985 q 611 803 611 821 q 610 767 611 785 q 576 646 605 691 q 485 581 547 601 l 485 547 q 578 481 549 526 q 611 357 608 435 q 613 315 613 334 q 611 271 613 295 q 536 63 605 126 q 313 0 468 0 l 56 0 m 264 183 l 313 183 q 380 207 356 183 q 403 274 403 230 q 403 310 403 292 q 403 347 403 328 q 382 445 403 416 q 313 474 360 474 l 264 474 l 264 183 m 264 657 l 313 657 q 380 687 356 657 q 403 772 403 717 q 403 812 403 792 q 403 851 403 832 q 380 908 403 888 q 313 928 356 928 l 264 928 l 264 657 z "},"C":{"ha":681,"x_min":49,"x_max":640,"o":"m 344 -14 q 120 51 187 -14 q 51 265 54 115 q 49 399 50 323 q 49 556 49 474 q 49 714 49 638 q 51 849 50 790 q 122 1050 53 976 q 344 1125 191 1125 q 561 1061 494 1125 q 633 847 628 997 q 633 798 633 824 q 633 744 633 771 q 631 694 632 717 l 423 694 q 424 755 424 720 q 425 825 425 790 q 424 886 425 860 q 402 938 424 919 q 344 956 381 956 q 282 938 304 956 q 259 886 260 919 q 255 728 256 813 q 254 556 254 644 q 255 383 254 467 q 259 226 256 299 q 282 174 260 192 q 344 156 304 156 q 407 174 385 156 q 430 226 429 192 q 431 286 431 251 q 431 357 431 322 q 430 417 431 392 l 638 417 q 640 341 640 383 q 638 265 640 299 q 566 51 634 115 q 344 -14 497 -14 z "},"Ć":{"ha":681,"x_min":49,"x_max":640,"o":"m 344 -14 q 120 51 187 -14 q 51 265 54 115 q 49 399 50 323 q 49 556 49 474 q 49 714 49 638 q 51 849 50 790 q 122 1050 53 976 q 344 1125 191 1125 q 561 1061 494 1125 q 633 847 628 997 q 633 798 633 824 q 633 744 633 771 q 631 694 632 717 l 423 694 q 424 755 424 720 q 425 825 425 790 q 424 886 425 860 q 402 938 424 919 q 344 956 381 956 q 282 938 304 956 q 259 886 260 919 q 255 728 256 813 q 254 556 254 644 q 255 383 254 467 q 259 226 256 299 q 282 174 260 192 q 344 156 304 156 q 407 174 385 156 q 430 226 429 192 q 431 286 431 251 q 431 357 431 322 q 430 417 431 392 l 638 417 q 640 341 640 383 q 638 265 640 299 q 566 51 634 115 q 344 -14 497 -14 m 281 1167 l 416 1360 l 549 1360 l 408 1167 l 281 1167 z "},"Č":{"ha":681,"x_min":49,"x_max":640,"o":"m 344 -14 q 120 51 187 -14 q 51 265 54 115 q 49 399 50 323 q 49 556 49 474 q 49 714 49 638 q 51 849 50 790 q 122 1050 53 976 q 344 1125 191 1125 q 561 1061 494 1125 q 633 847 628 997 q 633 798 633 824 q 633 744 633 771 q 631 694 632 717 l 423 694 q 424 755 424 720 q 425 825 425 790 q 424 886 425 860 q 402 938 424 919 q 344 956 381 956 q 282 938 304 956 q 259 886 260 919 q 255 728 256 813 q 254 556 254 644 q 255 383 254 467 q 259 226 256 299 q 282 174 260 192 q 344 156 304 156 q 407 174 385 156 q 430 226 429 192 q 431 286 431 251 q 431 357 431 322 q 430 417 431 392 l 638 417 q 640 341 640 383 q 638 265 640 299 q 566 51 634 115 q 344 -14 497 -14 m 284 1168 l 170 1361 l 290 1361 l 337 1269 l 384 1361 l 503 1361 l 390 1168 l 284 1168 z "},"Ç":{"ha":681,"x_min":49,"x_max":640,"o":"m 344 -14 q 120 51 187 -14 q 51 265 54 115 q 49 399 50 323 q 49 556 49 474 q 49 714 49 638 q 51 849 50 790 q 122 1050 53 976 q 344 1125 191 1125 q 561 1061 494 1125 q 633 847 628 997 q 633 798 633 824 q 633 744 633 771 q 631 694 632 717 l 423 694 q 424 755 424 720 q 425 825 425 790 q 424 886 425 860 q 402 938 424 919 q 344 956 381 956 q 282 938 304 956 q 259 886 260 919 q 255 728 256 813 q 254 556 254 644 q 255 383 254 467 q 259 226 256 299 q 282 174 260 192 q 344 156 304 156 q 407 174 385 156 q 430 226 429 192 q 431 286 431 251 q 431 357 431 322 q 430 417 431 392 l 638 417 q 640 341 640 383 q 638 265 640 299 q 566 51 634 115 q 344 -14 497 -14 m 174 -218 l 174 -121 l 219 -121 q 281 -103 263 -121 q 294 -46 299 -86 l 285 14 l 391 14 l 399 -46 q 368 -178 412 -137 q 219 -218 324 -218 l 174 -218 z "},"Ḉ":{"ha":681,"x_min":49,"x_max":640,"o":"m 344 -14 q 120 51 187 -14 q 51 265 54 115 q 49 399 50 323 q 49 556 49 474 q 49 714 49 638 q 51 849 50 790 q 122 1050 53 976 q 344 1125 191 1125 q 561 1061 494 1125 q 633 847 628 997 q 633 798 633 824 q 633 744 633 771 q 631 694 632 717 l 423 694 q 424 755 424 720 q 425 825 425 790 q 424 886 425 860 q 402 938 424 919 q 344 956 381 956 q 282 938 304 956 q 259 886 260 919 q 255 728 256 813 q 254 556 254 644 q 255 383 254 467 q 259 226 256 299 q 282 174 260 192 q 344 156 304 156 q 407 174 385 156 q 430 226 429 192 q 431 286 431 251 q 431 357 431 322 q 430 417 431 392 l 638 417 q 640 341 640 383 q 638 265 640 299 q 566 51 634 115 q 344 -14 497 -14 m 174 -218 l 174 -121 l 219 -121 q 281 -103 263 -121 q 294 -46 299 -86 l 285 14 l 391 14 l 399 -46 q 368 -178 412 -137 q 219 -218 324 -218 l 174 -218 m 281 1167 l 416 1360 l 549 1360 l 408 1167 l 281 1167 z "},"Ĉ":{"ha":681,"x_min":49,"x_max":640,"o":"m 344 -14 q 120 51 187 -14 q 51 265 54 115 q 49 399 50 323 q 49 556 49 474 q 49 714 49 638 q 51 849 50 790 q 122 1050 53 976 q 344 1125 191 1125 q 561 1061 494 1125 q 633 847 628 997 q 633 798 633 824 q 633 744 633 771 q 631 694 632 717 l 423 694 q 424 755 424 720 q 425 825 425 790 q 424 886 425 860 q 402 938 424 919 q 344 956 381 956 q 282 938 304 956 q 259 886 260 919 q 255 728 256 813 q 254 556 254 644 q 255 383 254 467 q 259 226 256 299 q 282 174 260 192 q 344 156 304 156 q 407 174 385 156 q 430 226 429 192 q 431 286 431 251 q 431 357 431 322 q 430 417 431 392 l 638 417 q 640 341 640 383 q 638 265 640 299 q 566 51 634 115 q 344 -14 497 -14 m 163 1168 l 277 1361 l 397 1361 l 510 1168 l 377 1168 l 337 1246 l 297 1168 l 163 1168 z "},"Ċ":{"ha":681,"x_min":49,"x_max":640,"o":"m 344 -14 q 120 51 187 -14 q 51 265 54 115 q 49 399 50 323 q 49 556 49 474 q 49 714 49 638 q 51 849 50 790 q 122 1050 53 976 q 344 1125 191 1125 q 561 1061 494 1125 q 633 847 628 997 q 633 798 633 824 q 633 744 633 771 q 631 694 632 717 l 423 694 q 424 755 424 720 q 425 825 425 790 q 424 886 425 860 q 402 938 424 919 q 344 956 381 956 q 282 938 304 956 q 259 886 260 919 q 255 728 256 813 q 254 556 254 644 q 255 383 254 467 q 259 226 256 299 q 282 174 260 192 q 344 156 304 156 q 407 174 385 156 q 430 226 429 192 q 431 286 431 251 q 431 357 431 322 q 430 417 431 392 l 638 417 q 640 341 640 383 q 638 265 640 299 q 566 51 634 115 q 344 -14 497 -14 m 269 1167 l 269 1304 l 406 1304 l 406 1167 l 269 1167 z "},"D":{"ha":688,"x_min":56,"x_max":640,"o":"m 56 0 l 56 1111 l 338 1111 q 564 1045 494 1111 q 636 826 633 978 q 639 643 638 730 q 639 469 640 556 q 636 286 638 383 q 564 67 633 133 q 338 0 494 0 l 56 0 m 264 183 l 338 183 q 404 203 381 183 q 428 261 427 224 q 431 409 430 335 q 432 556 432 483 q 431 704 432 630 q 428 851 430 778 q 404 908 427 888 q 338 928 381 928 l 264 928 l 264 183 z "},"Ǆ":{"ha":1253,"x_min":56,"x_max":1228,"o":"m 56 0 l 56 1111 l 338 1111 q 564 1045 494 1111 q 636 826 633 978 q 639 643 638 730 q 639 469 640 556 q 636 286 638 383 q 564 67 633 133 q 338 0 494 0 l 56 0 m 264 183 l 338 183 q 404 203 381 183 q 428 261 427 224 q 431 409 430 335 q 432 556 432 483 q 431 704 432 630 q 428 851 430 778 q 404 908 427 888 q 338 928 381 928 l 264 928 l 264 183 m 697 0 l 697 174 l 1006 928 l 713 928 l 713 1111 l 1228 1111 l 1228 933 l 905 183 l 1208 183 l 1208 0 l 697 0 m 905 1168 l 791 1361 l 910 1361 l 958 1269 l 1005 1361 l 1124 1361 l 1010 1168 l 905 1168 z "},"Ď":{"ha":688,"x_min":56,"x_max":640,"o":"m 56 0 l 56 1111 l 338 1111 q 564 1045 494 1111 q 636 826 633 978 q 639 643 638 730 q 639 469 640 556 q 636 286 638 383 q 564 67 633 133 q 338 0 494 0 l 56 0 m 264 183 l 338 183 q 404 203 381 183 q 428 261 427 224 q 431 409 430 335 q 432 556 432 483 q 431 704 432 630 q 428 851 430 778 q 404 908 427 888 q 338 928 381 928 l 264 928 l 264 183 m 293 1168 l 179 1361 l 299 1361 l 346 1269 l 393 1361 l 513 1361 l 399 1168 l 293 1168 z "},"Đ":{"ha":756,"x_min":35,"x_max":708,"o":"m 35 657 l 428 657 l 428 557 l 35 557 l 35 657 m 124 0 l 124 1111 l 406 1111 q 632 1045 562 1111 q 704 826 701 978 q 707 643 706 730 q 707 469 708 556 q 704 286 706 383 q 632 67 701 133 q 406 0 562 0 l 124 0 m 332 183 l 406 183 q 472 203 449 183 q 496 261 495 224 q 499 409 498 335 q 500 556 500 483 q 499 704 500 630 q 496 851 498 778 q 472 908 495 888 q 406 928 449 928 l 332 928 l 332 183 z "},"Ḍ":{"ha":688,"x_min":56,"x_max":640,"o":"m 56 0 l 56 1111 l 338 1111 q 564 1045 494 1111 q 636 826 633 978 q 639 643 638 730 q 639 469 640 556 q 636 286 638 383 q 564 67 633 133 q 338 0 494 0 l 56 0 m 264 183 l 338 183 q 404 203 381 183 q 428 261 427 224 q 431 409 430 335 q 432 556 432 483 q 431 704 432 630 q 428 851 430 778 q 404 908 427 888 q 338 928 381 928 l 264 928 l 264 183 m 250 -193 l 250 -56 l 388 -56 l 388 -193 l 250 -193 z "},"Ḏ":{"ha":688,"x_min":56,"x_max":640,"o":"m 56 0 l 56 1111 l 338 1111 q 564 1045 494 1111 q 636 826 633 978 q 639 643 638 730 q 639 469 640 556 q 636 286 638 383 q 564 67 633 133 q 338 0 494 0 l 56 0 m 264 183 l 338 183 q 404 203 381 183 q 428 261 427 224 q 431 409 430 335 q 432 556 432 483 q 431 704 432 630 q 428 851 430 778 q 404 908 427 888 q 338 928 381 928 l 264 928 l 264 183 m 72 -76 l 539 -76 l 539 -169 l 72 -169 l 72 -76 z "},"ǅ":{"ha":1244,"x_min":56,"x_max":1218,"o":"m 56 0 l 56 1111 l 338 1111 q 564 1045 494 1111 q 636 826 633 978 q 639 643 638 730 q 639 469 640 556 q 636 286 638 383 q 564 67 633 133 q 338 0 494 0 l 56 0 m 264 183 l 338 183 q 404 203 381 183 q 428 261 427 224 q 431 409 430 335 q 432 556 432 483 q 431 704 432 630 q 428 851 430 778 q 404 908 427 888 q 338 928 381 928 l 264 928 l 264 183 m 715 0 l 715 132 l 997 681 l 721 681 l 721 833 l 1218 833 l 1218 697 l 932 153 l 1217 153 l 1217 0 l 715 0 m 913 890 l 799 1083 l 918 1083 l 965 992 l 1013 1083 l 1132 1083 l 1018 890 l 913 890 z "},"E":{"ha":567,"x_min":56,"x_max":536,"o":"m 56 0 l 56 1111 l 536 1111 l 536 928 l 264 928 l 264 657 l 522 657 l 522 474 l 264 474 l 264 183 l 536 183 l 536 0 l 56 0 z "},"É":{"ha":567,"x_min":56,"x_max":536,"o":"m 56 0 l 56 1111 l 536 1111 l 536 928 l 264 928 l 264 657 l 522 657 l 522 474 l 264 474 l 264 183 l 536 183 l 536 0 l 56 0 m 225 1167 l 360 1360 l 493 1360 l 351 1167 l 225 1167 z "},"Ĕ":{"ha":567,"x_min":56,"x_max":536,"o":"m 56 0 l 56 1111 l 536 1111 l 536 928 l 264 928 l 264 657 l 522 657 l 522 474 l 264 474 l 264 183 l 536 183 l 536 0 l 56 0 m 282 1160 q 127 1207 176 1160 q 72 1365 78 1255 l 196 1365 q 216 1288 196 1311 q 282 1264 236 1264 q 348 1288 328 1264 q 368 1365 368 1311 l 492 1365 q 436 1207 485 1255 q 282 1160 388 1160 z "},"Ě":{"ha":567,"x_min":56,"x_max":536,"o":"m 56 0 l 56 1111 l 536 1111 l 536 928 l 264 928 l 264 657 l 522 657 l 522 474 l 264 474 l 264 183 l 536 183 l 536 0 l 56 0 m 228 1168 l 114 1361 l 233 1361 l 281 1269 l 328 1361 l 447 1361 l 333 1168 l 228 1168 z "},"Ḝ":{"ha":567,"x_min":56,"x_max":536,"o":"m 56 0 l 56 1111 l 536 1111 l 536 928 l 264 928 l 264 657 l 522 657 l 522 474 l 264 474 l 264 183 l 536 183 l 536 0 l 56 0 m 118 -218 l 118 -121 l 163 -121 q 225 -103 206 -121 q 238 -46 243 -86 l 229 14 l 335 14 l 343 -46 q 312 -178 356 -137 q 163 -218 268 -218 l 118 -218 m 282 1160 q 127 1207 176 1160 q 72 1365 78 1255 l 196 1365 q 216 1288 196 1311 q 282 1264 236 1264 q 348 1288 328 1264 q 368 1365 368 1311 l 492 1365 q 436 1207 485 1255 q 282 1160 388 1160 z "},"Ê":{"ha":567,"x_min":56,"x_max":536,"o":"m 56 0 l 56 1111 l 536 1111 l 536 928 l 264 928 l 264 657 l 522 657 l 522 474 l 264 474 l 264 183 l 536 183 l 536 0 l 56 0 m 107 1168 l 221 1361 l 340 1361 l 454 1168 l 321 1168 l 281 1246 l 240 1168 l 107 1168 z "},"Ế":{"ha":567,"x_min":56,"x_max":700,"o":"m 56 0 l 56 1111 l 536 1111 l 536 928 l 264 928 l 264 657 l 522 657 l 522 474 l 264 474 l 264 183 l 536 183 l 536 0 l 56 0 m 107 1168 l 221 1361 l 340 1361 l 454 1168 l 321 1168 l 281 1246 l 240 1168 l 107 1168 m 432 1347 l 567 1540 l 700 1540 l 558 1347 l 432 1347 z "},"Ệ":{"ha":567,"x_min":56,"x_max":536,"o":"m 56 0 l 56 1111 l 536 1111 l 536 928 l 264 928 l 264 657 l 522 657 l 522 474 l 264 474 l 264 183 l 536 183 l 536 0 l 56 0 m 213 -193 l 213 -56 l 350 -56 l 350 -193 l 213 -193 m 107 1168 l 221 1361 l 340 1361 l 454 1168 l 321 1168 l 281 1246 l 240 1168 l 107 1168 z "},"Ề":{"ha":567,"x_min":56,"x_max":600,"o":"m 56 0 l 56 1111 l 536 1111 l 536 928 l 264 928 l 264 657 l 522 657 l 522 474 l 264 474 l 264 183 l 536 183 l 536 0 l 56 0 m 107 1168 l 221 1361 l 340 1361 l 454 1168 l 321 1168 l 281 1246 l 240 1168 l 107 1168 m 474 1347 l 346 1540 l 479 1540 l 600 1347 l 474 1347 z "},"Ể":{"ha":567,"x_min":56,"x_max":572,"o":"m 56 0 l 56 1111 l 536 1111 l 536 928 l 264 928 l 264 657 l 522 657 l 522 474 l 264 474 l 264 183 l 536 183 l 536 0 l 56 0 m 107 1168 l 221 1361 l 340 1361 l 454 1168 l 321 1168 l 281 1246 l 240 1168 l 107 1168 m 435 1325 l 444 1365 q 440 1425 456 1410 q 369 1440 425 1440 l 308 1440 l 308 1538 l 369 1538 q 523 1497 474 1538 q 550 1365 572 1456 l 540 1325 l 435 1325 z "},"Ễ":{"ha":567,"x_min":56,"x_max":536,"o":"m 56 0 l 56 1111 l 536 1111 l 536 928 l 264 928 l 264 657 l 522 657 l 522 474 l 264 474 l 264 183 l 536 183 l 536 0 l 56 0 m 107 1168 l 221 1361 l 340 1361 l 454 1168 l 321 1168 l 281 1246 l 240 1168 l 107 1168 m 400 1546 l 478 1546 q 447 1430 474 1466 q 369 1393 419 1393 q 321 1403 339 1393 q 291 1426 303 1413 q 267 1450 279 1440 q 234 1460 254 1460 q 206 1444 212 1460 q 197 1403 199 1429 l 119 1403 q 153 1527 125 1490 q 232 1564 181 1564 q 281 1554 262 1564 q 312 1531 299 1544 q 338 1508 325 1518 q 369 1499 351 1499 q 393 1510 387 1499 q 400 1546 399 1522 z "},"Ȅ":{"ha":567,"x_min":-10,"x_max":536,"o":"m 56 0 l 56 1111 l 536 1111 l 536 928 l 264 928 l 264 657 l 522 657 l 522 474 l 264 474 l 264 183 l 536 183 l 536 0 l 56 0 m 313 1167 l 185 1360 l 318 1360 l 446 1167 l 313 1167 m 118 1167 l -10 1360 l 124 1360 l 251 1167 l 118 1167 z "},"Ë":{"ha":567,"x_min":56,"x_max":536,"o":"m 56 0 l 56 1111 l 536 1111 l 536 928 l 264 928 l 264 657 l 522 657 l 522 474 l 264 474 l 264 183 l 536 183 l 536 0 l 56 0 m 319 1188 l 319 1325 l 457 1325 l 457 1188 l 319 1188 m 107 1188 l 107 1325 l 244 1325 l 244 1188 l 107 1188 z "},"Ė":{"ha":567,"x_min":56,"x_max":536,"o":"m 56 0 l 56 1111 l 536 1111 l 536 928 l 264 928 l 264 657 l 522 657 l 522 474 l 264 474 l 264 183 l 536 183 l 536 0 l 56 0 m 213 1167 l 213 1304 l 350 1304 l 350 1167 l 213 1167 z "},"Ẹ":{"ha":567,"x_min":56,"x_max":536,"o":"m 56 0 l 56 1111 l 536 1111 l 536 928 l 264 928 l 264 657 l 522 657 l 522 474 l 264 474 l 264 183 l 536 183 l 536 0 l 56 0 m 213 -193 l 213 -56 l 350 -56 l 350 -193 l 213 -193 z "},"È":{"ha":567,"x_min":56,"x_max":536,"o":"m 56 0 l 56 1111 l 536 1111 l 536 928 l 264 928 l 264 657 l 522 657 l 522 474 l 264 474 l 264 183 l 536 183 l 536 0 l 56 0 m 197 1167 l 69 1360 l 203 1360 l 324 1167 l 197 1167 z "},"Ẻ":{"ha":567,"x_min":56,"x_max":536,"o":"m 56 0 l 56 1111 l 536 1111 l 536 928 l 264 928 l 264 657 l 522 657 l 522 474 l 264 474 l 264 183 l 536 183 l 536 0 l 56 0 m 296 1158 l 306 1199 q 301 1258 317 1243 q 231 1274 286 1274 l 169 1274 l 169 1371 l 231 1371 q 384 1330 335 1371 q 411 1199 433 1289 l 401 1158 l 296 1158 z "},"Ȇ":{"ha":567,"x_min":56,"x_max":536,"o":"m 282 1372 q 436 1325 388 1372 q 492 1167 485 1277 l 368 1167 q 348 1244 368 1221 q 282 1268 328 1268 q 216 1244 236 1268 q 196 1167 196 1221 l 72 1167 q 127 1325 78 1277 q 282 1372 176 1372 m 56 0 l 56 1111 l 536 1111 l 536 928 l 264 928 l 264 657 l 522 657 l 522 474 l 264 474 l 264 183 l 536 183 l 536 0 l 56 0 z "},"Ē":{"ha":567,"x_min":45,"x_max":536,"o":"m 56 0 l 56 1111 l 536 1111 l 536 928 l 264 928 l 264 657 l 522 657 l 522 474 l 264 474 l 264 183 l 536 183 l 536 0 l 56 0 m 45 1246 l 512 1246 l 512 1153 l 45 1153 l 45 1246 z "},"Ḗ":{"ha":567,"x_min":45,"x_max":536,"o":"m 56 0 l 56 1111 l 536 1111 l 536 928 l 264 928 l 264 657 l 522 657 l 522 474 l 264 474 l 264 183 l 536 183 l 536 0 l 56 0 m 45 1246 l 512 1246 l 512 1153 l 45 1153 l 45 1246 m 225 1322 l 360 1515 l 493 1515 l 351 1322 l 225 1322 z "},"Ḕ":{"ha":567,"x_min":45,"x_max":536,"o":"m 56 0 l 56 1111 l 536 1111 l 536 928 l 264 928 l 264 657 l 522 657 l 522 474 l 264 474 l 264 183 l 536 183 l 536 0 l 56 0 m 45 1246 l 512 1246 l 512 1153 l 45 1153 l 45 1246 m 197 1322 l 69 1515 l 203 1515 l 324 1322 l 197 1322 z "},"Ŋ":{"ha":754,"x_min":56,"x_max":699,"o":"m 386 -293 q 336 -290 363 -293 q 285 -283 310 -287 l 285 -132 q 335 -134 303 -133 q 386 -135 367 -135 q 479 -119 442 -135 q 517 -65 517 -103 l 517 128 l 699 128 l 699 -46 q 622 -235 699 -178 q 386 -293 546 -293 m 56 0 l 56 1111 l 357 1111 l 440 757 l 517 183 l 553 183 l 514 635 l 497 1111 l 699 1111 l 699 0 l 382 0 l 299 364 l 242 929 l 203 929 l 239 426 l 257 0 l 56 0 z "},"Ę":{"ha":567,"x_min":56,"x_max":538,"o":"m 56 0 l 56 1111 l 536 1111 l 536 928 l 264 928 l 264 657 l 522 657 l 522 474 l 264 474 l 264 183 l 536 183 l 536 0 l 56 0 m 538 -225 l 494 -225 q 345 -185 389 -225 q 313 -53 301 -144 l 322 7 l 427 7 l 419 -53 q 432 -110 414 -93 q 494 -128 450 -128 l 538 -128 l 538 -225 z "},"Ð":{"ha":756,"x_min":35,"x_max":708,"o":"m 35 657 l 428 657 l 428 557 l 35 557 l 35 657 m 124 0 l 124 1111 l 406 1111 q 632 1045 562 1111 q 704 826 701 978 q 707 643 706 730 q 707 469 708 556 q 704 286 706 383 q 632 67 701 133 q 406 0 562 0 l 124 0 m 332 183 l 406 183 q 472 203 449 183 q 496 261 495 224 q 499 409 498 335 q 500 556 500 483 q 499 704 500 630 q 496 851 498 778 q 472 908 495 888 q 406 928 449 928 l 332 928 l 332 183 z "},"Ẽ":{"ha":567,"x_min":56,"x_max":536,"o":"m 56 0 l 56 1111 l 536 1111 l 536 928 l 264 928 l 264 657 l 522 657 l 522 474 l 264 474 l 264 183 l 536 183 l 536 0 l 56 0 m 383 1317 l 461 1317 q 430 1200 457 1237 q 352 1164 403 1164 q 305 1174 322 1164 q 275 1197 287 1184 q 250 1220 263 1210 q 217 1231 238 1231 q 189 1215 195 1231 q 181 1174 183 1200 l 103 1174 q 136 1298 108 1260 q 215 1335 165 1335 q 264 1325 245 1335 q 295 1302 283 1315 q 321 1279 308 1289 q 352 1269 334 1269 q 376 1281 370 1269 q 383 1317 382 1293 z "},"F":{"ha":564,"x_min":56,"x_max":536,"o":"m 56 0 l 56 1111 l 536 1111 l 536 928 l 264 928 l 264 657 l 522 657 l 522 474 l 264 474 l 264 0 l 56 0 z "},"G":{"ha":685,"x_min":49,"x_max":642,"o":"m 346 -14 q 178 14 241 -14 q 85 104 115 42 q 53 265 56 165 q 50 398 51 324 q 49 552 49 473 q 50 705 49 631 q 53 835 51 778 q 87 1004 57 940 q 180 1097 117 1068 q 346 1125 243 1125 q 559 1061 492 1125 q 635 847 626 997 q 637 771 637 815 q 635 694 637 727 l 426 694 q 428 791 428 733 q 426 886 428 848 q 403 938 424 919 q 346 956 383 956 q 284 938 306 956 q 261 886 263 919 q 255 729 257 813 q 253 556 253 644 q 255 384 253 468 q 261 226 257 299 q 284 174 263 192 q 346 156 306 156 q 409 174 385 156 q 436 226 433 192 q 438 268 438 242 q 438 320 438 294 q 436 363 438 347 l 360 363 l 360 543 l 639 543 q 642 405 642 480 q 638 265 641 329 q 563 51 631 115 q 346 -14 495 -14 z "},"Ğ":{"ha":685,"x_min":49,"x_max":642,"o":"m 346 -14 q 178 14 241 -14 q 85 104 115 42 q 53 265 56 165 q 50 398 51 324 q 49 552 49 473 q 50 705 49 631 q 53 835 51 778 q 87 1004 57 940 q 180 1097 117 1068 q 346 1125 243 1125 q 559 1061 492 1125 q 635 847 626 997 q 637 771 637 815 q 635 694 637 727 l 426 694 q 428 791 428 733 q 426 886 428 848 q 403 938 424 919 q 346 956 383 956 q 284 938 306 956 q 261 886 263 919 q 255 729 257 813 q 253 556 253 644 q 255 384 253 468 q 261 226 257 299 q 284 174 263 192 q 346 156 306 156 q 409 174 385 156 q 436 226 433 192 q 438 268 438 242 q 438 320 438 294 q 436 363 438 347 l 360 363 l 360 543 l 639 543 q 642 405 642 480 q 638 265 641 329 q 563 51 631 115 q 346 -14 495 -14 m 340 1160 q 185 1207 234 1160 q 131 1365 137 1255 l 254 1365 q 274 1288 254 1311 q 340 1264 294 1264 q 406 1288 386 1264 q 426 1365 426 1311 l 550 1365 q 494 1207 543 1255 q 340 1160 446 1160 z "},"Ǧ":{"ha":685,"x_min":49,"x_max":642,"o":"m 346 -14 q 178 14 241 -14 q 85 104 115 42 q 53 265 56 165 q 50 398 51 324 q 49 552 49 473 q 50 705 49 631 q 53 835 51 778 q 87 1004 57 940 q 180 1097 117 1068 q 346 1125 243 1125 q 559 1061 492 1125 q 635 847 626 997 q 637 771 637 815 q 635 694 637 727 l 426 694 q 428 791 428 733 q 426 886 428 848 q 403 938 424 919 q 346 956 383 956 q 284 938 306 956 q 261 886 263 919 q 255 729 257 813 q 253 556 253 644 q 255 384 253 468 q 261 226 257 299 q 284 174 263 192 q 346 156 306 156 q 409 174 385 156 q 436 226 433 192 q 438 268 438 242 q 438 320 438 294 q 436 363 438 347 l 360 363 l 360 543 l 639 543 q 642 405 642 480 q 638 265 641 329 q 563 51 631 115 q 346 -14 495 -14 m 286 1168 l 172 1361 l 292 1361 l 339 1269 l 386 1361 l 506 1361 l 392 1168 l 286 1168 z "},"Ĝ":{"ha":685,"x_min":49,"x_max":642,"o":"m 346 -14 q 178 14 241 -14 q 85 104 115 42 q 53 265 56 165 q 50 398 51 324 q 49 552 49 473 q 50 705 49 631 q 53 835 51 778 q 87 1004 57 940 q 180 1097 117 1068 q 346 1125 243 1125 q 559 1061 492 1125 q 635 847 626 997 q 637 771 637 815 q 635 694 637 727 l 426 694 q 428 791 428 733 q 426 886 428 848 q 403 938 424 919 q 346 956 383 956 q 284 938 306 956 q 261 886 263 919 q 255 729 257 813 q 253 556 253 644 q 255 384 253 468 q 261 226 257 299 q 284 174 263 192 q 346 156 306 156 q 409 174 385 156 q 436 226 433 192 q 438 268 438 242 q 438 320 438 294 q 436 363 438 347 l 360 363 l 360 543 l 639 543 q 642 405 642 480 q 638 265 641 329 q 563 51 631 115 q 346 -14 495 -14 m 165 1168 l 279 1361 l 399 1361 l 513 1168 l 379 1168 l 339 1246 l 299 1168 l 165 1168 z "},"Ģ":{"ha":685,"x_min":49,"x_max":642,"o":"m 346 -14 q 178 14 241 -14 q 85 104 115 42 q 53 265 56 165 q 50 398 51 324 q 49 552 49 473 q 50 705 49 631 q 53 835 51 778 q 87 1004 57 940 q 180 1097 117 1068 q 346 1125 243 1125 q 559 1061 492 1125 q 635 847 626 997 q 637 771 637 815 q 635 694 637 727 l 426 694 q 428 791 428 733 q 426 886 428 848 q 403 938 424 919 q 346 956 383 956 q 284 938 306 956 q 261 886 263 919 q 255 729 257 813 q 253 556 253 644 q 255 384 253 468 q 261 226 257 299 q 284 174 263 192 q 346 156 306 156 q 409 174 385 156 q 436 226 433 192 q 438 268 438 242 q 438 320 438 294 q 436 363 438 347 l 360 363 l 360 543 l 639 543 q 642 405 642 480 q 638 265 641 329 q 563 51 631 115 q 346 -14 495 -14 m 275 -318 l 322 -211 l 251 -211 l 251 -56 l 442 -56 l 442 -193 l 374 -318 l 275 -318 z "},"Ġ":{"ha":685,"x_min":49,"x_max":642,"o":"m 346 -14 q 178 14 241 -14 q 85 104 115 42 q 53 265 56 165 q 50 398 51 324 q 49 552 49 473 q 50 705 49 631 q 53 835 51 778 q 87 1004 57 940 q 180 1097 117 1068 q 346 1125 243 1125 q 559 1061 492 1125 q 635 847 626 997 q 637 771 637 815 q 635 694 637 727 l 426 694 q 428 791 428 733 q 426 886 428 848 q 403 938 424 919 q 346 956 383 956 q 284 938 306 956 q 261 886 263 919 q 255 729 257 813 q 253 556 253 644 q 255 384 253 468 q 261 226 257 299 q 284 174 263 192 q 346 156 306 156 q 409 174 385 156 q 436 226 433 192 q 438 268 438 242 q 438 320 438 294 q 436 363 438 347 l 360 363 l 360 543 l 639 543 q 642 405 642 480 q 638 265 641 329 q 563 51 631 115 q 346 -14 495 -14 m 271 1167 l 271 1304 l 408 1304 l 408 1167 l 271 1167 z "},"ẞ":{"ha":742,"x_min":56,"x_max":687,"o":"m 56 0 l 56 833 q 126 1047 56 983 q 349 1111 196 1111 l 667 1111 l 667 954 l 521 639 q 647 542 612 607 q 686 381 682 478 q 687 347 687 365 q 686 313 687 330 q 685 279 685 295 q 613 65 678 129 q 393 0 547 0 l 321 0 l 321 169 l 393 169 q 453 188 434 169 q 476 240 472 206 q 481 310 481 276 q 476 381 481 345 q 459 438 474 410 q 410 465 444 465 l 321 465 l 318 628 l 450 942 l 349 942 q 286 924 309 942 q 264 872 264 906 l 264 0 l 56 0 z "},"Ḡ":{"ha":685,"x_min":49,"x_max":642,"o":"m 346 -14 q 178 14 241 -14 q 85 104 115 42 q 53 265 56 165 q 50 398 51 324 q 49 552 49 473 q 50 705 49 631 q 53 835 51 778 q 87 1004 57 940 q 180 1097 117 1068 q 346 1125 243 1125 q 559 1061 492 1125 q 635 847 626 997 q 637 771 637 815 q 635 694 637 727 l 426 694 q 428 791 428 733 q 426 886 428 848 q 403 938 424 919 q 346 956 383 956 q 284 938 306 956 q 261 886 263 919 q 255 729 257 813 q 253 556 253 644 q 255 384 253 468 q 261 226 257 299 q 284 174 263 192 q 346 156 306 156 q 409 174 385 156 q 436 226 433 192 q 438 268 438 242 q 438 320 438 294 q 436 363 438 347 l 360 363 l 360 543 l 639 543 q 642 405 642 480 q 638 265 641 329 q 563 51 631 115 q 346 -14 495 -14 m 103 1246 l 570 1246 l 570 1153 l 103 1153 l 103 1246 z "},"H":{"ha":674,"x_min":56,"x_max":618,"o":"m 56 0 l 56 1111 l 264 1111 l 264 657 l 410 657 l 410 1111 l 618 1111 l 618 0 l 410 0 l 410 474 l 264 474 l 264 0 l 56 0 z "},"Ħ":{"ha":765,"x_min":21,"x_max":744,"o":"m 21 889 l 744 889 l 744 789 l 21 789 l 21 889 m 101 0 l 101 1111 l 310 1111 l 310 657 l 456 657 l 456 1111 l 664 1111 l 664 0 l 456 0 l 456 474 l 310 474 l 310 0 l 101 0 z "},"Ḫ":{"ha":674,"x_min":56,"x_max":618,"o":"m 56 0 l 56 1111 l 264 1111 l 264 657 l 410 657 l 410 1111 l 618 1111 l 618 0 l 410 0 l 410 474 l 264 474 l 264 0 l 56 0 m 338 -261 q 183 -214 231 -261 q 128 -56 134 -166 l 251 -56 q 272 -133 251 -110 q 338 -157 292 -157 q 403 -133 383 -157 q 424 -56 424 -110 l 547 -56 q 492 -214 540 -166 q 338 -261 443 -261 z "},"Ĥ":{"ha":674,"x_min":56,"x_max":618,"o":"m 56 0 l 56 1111 l 264 1111 l 264 657 l 410 657 l 410 1111 l 618 1111 l 618 0 l 410 0 l 410 474 l 264 474 l 264 0 l 56 0 m 163 1168 l 276 1361 l 396 1361 l 510 1168 l 376 1168 l 336 1246 l 296 1168 l 163 1168 z "},"Ḥ":{"ha":674,"x_min":56,"x_max":618,"o":"m 56 0 l 56 1111 l 264 1111 l 264 657 l 410 657 l 410 1111 l 618 1111 l 618 0 l 410 0 l 410 474 l 264 474 l 264 0 l 56 0 m 268 -193 l 268 -56 l 406 -56 l 406 -193 l 268 -193 z "},"I":{"ha":319,"x_min":56,"x_max":264,"o":"m 56 0 l 56 1111 l 264 1111 l 264 0 l 56 0 z "},"Í":{"ha":319,"x_min":56,"x_max":371,"o":"m 56 0 l 56 1111 l 264 1111 l 264 0 l 56 0 m 103 1167 l 238 1360 l 371 1360 l 229 1167 l 103 1167 z "},"Ĭ":{"ha":319,"x_min":-50,"x_max":369,"o":"m 56 0 l 56 1111 l 264 1111 l 264 0 l 56 0 m 160 1160 q 5 1207 53 1160 q -50 1365 -44 1255 l 74 1365 q 94 1288 74 1311 q 160 1264 114 1264 q 226 1288 206 1264 q 246 1365 246 1311 l 369 1365 q 314 1207 363 1255 q 160 1160 265 1160 z "},"Ǐ":{"ha":319,"x_min":-8,"x_max":325,"o":"m 56 0 l 56 1111 l 264 1111 l 264 0 l 56 0 m 106 1168 l -8 1361 l 111 1361 l 158 1269 l 206 1361 l 325 1361 l 211 1168 l 106 1168 z "},"Î":{"ha":319,"x_min":-15,"x_max":332,"o":"m 56 0 l 56 1111 l 264 1111 l 264 0 l 56 0 m -15 1168 l 99 1361 l 218 1361 l 332 1168 l 199 1168 l 158 1246 l 118 1168 l -15 1168 z "},"Ȉ":{"ha":319,"x_min":-132,"x_max":324,"o":"m 56 0 l 56 1111 l 264 1111 l 264 0 l 56 0 m 190 1167 l 63 1360 l 196 1360 l 324 1167 l 190 1167 m -4 1167 l -132 1360 l 1 1360 l 129 1167 l -4 1167 z "},"Ï":{"ha":319,"x_min":-15,"x_max":335,"o":"m 56 0 l 56 1111 l 264 1111 l 264 0 l 56 0 m 197 1188 l 197 1325 l 335 1325 l 335 1188 l 197 1188 m -15 1188 l -15 1325 l 122 1325 l 122 1188 l -15 1188 z "},"Ḯ":{"ha":319,"x_min":-15,"x_max":371,"o":"m 56 0 l 56 1111 l 264 1111 l 264 0 l 56 0 m 197 1188 l 197 1325 l 335 1325 l 335 1188 l 197 1188 m -15 1188 l -15 1325 l 122 1325 l 122 1188 l -15 1188 m 103 1361 l 238 1554 l 371 1554 l 229 1361 l 103 1361 z "},"İ":{"ha":319,"x_min":56,"x_max":264,"o":"m 56 0 l 56 1111 l 264 1111 l 264 0 l 56 0 m 90 1167 l 90 1304 l 228 1304 l 228 1167 l 90 1167 z "},"Ị":{"ha":319,"x_min":56,"x_max":264,"o":"m 56 0 l 56 1111 l 264 1111 l 264 0 l 56 0 m 90 -193 l 90 -56 l 228 -56 l 228 -193 l 90 -193 z "},"Ì":{"ha":319,"x_min":-53,"x_max":264,"o":"m 56 0 l 56 1111 l 264 1111 l 264 0 l 56 0 m 75 1167 l -53 1360 l 81 1360 l 201 1167 l 75 1167 z "},"Ỉ":{"ha":319,"x_min":30,"x_max":294,"o":"m 56 0 l 56 1111 l 264 1111 l 264 0 l 56 0 m 157 1158 l 167 1199 q 163 1258 178 1243 q 92 1274 147 1274 l 30 1274 l 30 1371 l 92 1371 q 245 1330 196 1371 q 272 1199 294 1289 l 263 1158 l 157 1158 z "},"Ȋ":{"ha":319,"x_min":-50,"x_max":369,"o":"m 160 1372 q 314 1325 265 1372 q 369 1167 363 1277 l 246 1167 q 226 1244 246 1221 q 160 1268 206 1268 q 94 1244 114 1268 q 74 1167 74 1221 l -50 1167 q 5 1325 -44 1277 q 160 1372 53 1372 m 56 0 l 56 1111 l 264 1111 l 264 0 l 56 0 z "},"Ī":{"ha":319,"x_min":-77,"x_max":390,"o":"m 56 0 l 56 1111 l 264 1111 l 264 0 l 56 0 m -77 1246 l 390 1246 l 390 1153 l -77 1153 l -77 1246 z "},"Į":{"ha":319,"x_min":36,"x_max":274,"o":"m 56 0 l 56 1111 l 264 1111 l 264 0 l 56 0 m 274 -232 l 229 -232 q 80 -192 124 -232 q 49 -60 36 -151 l 57 0 l 163 0 l 154 -60 q 167 -117 149 -100 q 229 -135 185 -135 l 274 -135 l 274 -232 z "},"Ĩ":{"ha":319,"x_min":-19,"x_max":339,"o":"m 56 0 l 56 1111 l 264 1111 l 264 0 l 56 0 m 261 1317 l 339 1317 q 308 1200 335 1237 q 230 1164 281 1164 q 182 1174 200 1164 q 152 1197 165 1184 q 128 1220 140 1210 q 95 1231 115 1231 q 67 1215 73 1231 q 58 1174 60 1200 l -19 1174 q 14 1298 -14 1260 q 93 1335 42 1335 q 142 1325 123 1335 q 173 1302 160 1315 q 199 1279 186 1289 q 230 1269 212 1269 q 254 1281 248 1269 q 261 1317 260 1293 z "},"J":{"ha":628,"x_min":24,"x_max":585,"o":"m 301 -14 q 139 14 199 -14 q 53 104 80 42 q 24 265 27 165 q 24 341 24 299 q 24 417 24 383 l 220 417 q 219 357 219 392 q 219 286 219 322 q 220 226 219 251 q 241 174 222 192 q 301 156 260 156 q 359 174 342 156 q 377 226 377 192 l 377 1111 l 585 1111 l 585 265 q 522 51 585 115 q 301 -14 458 -14 z "},"Ĵ":{"ha":628,"x_min":24,"x_max":585,"o":"m 301 -14 q 139 14 199 -14 q 53 104 80 42 q 24 265 27 165 q 24 341 24 299 q 24 417 24 383 l 220 417 q 219 357 219 392 q 219 286 219 322 q 220 226 219 251 q 241 174 222 192 q 301 156 260 156 q 359 174 342 156 q 377 226 377 192 l 377 1111 l 585 1111 l 585 265 q 522 51 585 115 q 301 -14 458 -14 m 165 1168 l 278 1361 l 398 1361 l 512 1168 l 378 1168 l 338 1246 l 298 1168 l 165 1168 z "},"K":{"ha":690,"x_min":56,"x_max":678,"o":"m 56 0 l 56 1111 l 278 1111 l 275 842 l 238 593 l 275 593 l 342 842 l 442 1111 l 669 1111 l 485 654 l 678 0 l 467 0 l 346 424 l 268 256 l 268 0 l 56 0 z "},"Ķ":{"ha":690,"x_min":56,"x_max":678,"o":"m 56 0 l 56 1111 l 278 1111 l 275 842 l 238 593 l 275 593 l 342 842 l 442 1111 l 669 1111 l 485 654 l 678 0 l 467 0 l 346 424 l 268 256 l 268 0 l 56 0 m 303 -318 l 350 -211 l 279 -211 l 279 -56 l 469 -56 l 469 -193 l 401 -318 l 303 -318 z "},"L":{"ha":558,"x_min":56,"x_max":538,"o":"m 56 0 l 56 1111 l 264 1111 l 264 183 l 538 183 l 538 0 l 56 0 z "},"Ǉ":{"ha":1187,"x_min":56,"x_max":1144,"o":"m 56 0 l 56 1111 l 264 1111 l 264 183 l 538 183 l 538 0 l 56 0 m 859 -14 q 698 14 757 -14 q 612 104 638 42 q 583 265 585 165 q 582 341 582 299 q 583 417 582 383 l 778 417 q 777 357 778 392 q 777 286 777 322 q 778 226 778 251 q 799 174 780 192 q 859 156 819 156 q 918 174 900 156 q 935 226 935 192 l 935 1111 l 1144 1111 l 1144 265 q 1080 51 1144 115 q 859 -14 1017 -14 z "},"Ĺ":{"ha":558,"x_min":56,"x_max":538,"o":"m 56 0 l 56 1111 l 264 1111 l 264 183 l 538 183 l 538 0 l 56 0 m 247 1167 l 382 1360 l 515 1360 l 374 1167 l 247 1167 z "},"Ľ":{"ha":558,"x_min":56,"x_max":538,"o":"m 56 0 l 56 1111 l 264 1111 l 264 183 l 538 183 l 538 0 l 56 0 m 363 918 l 401 1111 l 534 1111 l 490 918 l 363 918 z "},"Ļ":{"ha":558,"x_min":56,"x_max":538,"o":"m 56 0 l 56 1111 l 264 1111 l 264 183 l 538 183 l 538 0 l 56 0 m 232 -318 l 279 -211 l 208 -211 l 208 -56 l 399 -56 l 399 -193 l 331 -318 l 232 -318 z "},"Ŀ":{"ha":558,"x_min":56,"x_max":538,"o":"m 56 0 l 56 1111 l 264 1111 l 264 183 l 538 183 l 538 0 l 56 0 m 383 508 l 383 659 l 534 659 l 534 508 l 383 508 z "},"Ḷ":{"ha":558,"x_min":56,"x_max":538,"o":"m 56 0 l 56 1111 l 264 1111 l 264 183 l 538 183 l 538 0 l 56 0 m 228 -193 l 228 -56 l 365 -56 l 365 -193 l 228 -193 z "},"ǈ":{"ha":882,"x_min":56,"x_max":825,"o":"m 56 0 l 56 1111 l 264 1111 l 264 183 l 538 183 l 538 0 l 56 0 m 617 954 l 617 1111 l 825 1111 l 825 954 l 617 954 m 540 -296 q 490 -293 517 -296 q 439 -286 464 -290 l 439 -132 q 489 -134 458 -133 q 540 -135 521 -135 q 596 -117 576 -135 q 617 -65 617 -99 l 617 833 l 825 833 l 825 -49 q 755 -238 825 -181 q 540 -296 684 -296 z "},"Ḻ":{"ha":558,"x_min":50,"x_max":538,"o":"m 56 0 l 56 1111 l 264 1111 l 264 183 l 538 183 l 538 0 l 56 0 m 50 -76 l 517 -76 l 517 -169 l 50 -169 l 50 -76 z "},"Ł":{"ha":667,"x_min":0,"x_max":646,"o":"m 164 0 l 164 294 l 143 250 l 0 250 l 164 513 l 164 1111 l 372 1111 l 372 781 l 399 833 l 556 833 l 372 540 l 372 183 l 646 183 l 646 0 l 164 0 z "},"M":{"ha":1035,"x_min":56,"x_max":979,"o":"m 56 0 l 56 1111 l 390 1111 l 482 690 l 500 183 l 536 183 l 553 690 l 646 1111 l 979 1111 l 979 0 l 771 0 l 771 342 l 811 928 l 774 928 l 715 328 l 629 0 l 406 0 l 321 328 l 261 928 l 225 928 l 264 342 l 264 0 l 56 0 z "},"Ṃ":{"ha":1035,"x_min":56,"x_max":979,"o":"m 56 0 l 56 1111 l 390 1111 l 482 690 l 500 183 l 536 183 l 553 690 l 646 1111 l 979 1111 l 979 0 l 771 0 l 771 342 l 811 928 l 774 928 l 715 328 l 629 0 l 406 0 l 321 328 l 261 928 l 225 928 l 264 342 l 264 0 l 56 0 m 449 -193 l 449 -56 l 586 -56 l 586 -193 l 449 -193 z "},"N":{"ha":754,"x_min":56,"x_max":699,"o":"m 56 0 l 56 1111 l 357 1111 l 440 757 l 517 183 l 553 183 l 514 635 l 497 1111 l 699 1111 l 699 0 l 382 0 l 299 364 l 242 929 l 203 929 l 239 426 l 257 0 l 56 0 z "},"Ǌ":{"ha":1383,"x_min":56,"x_max":1340,"o":"m 56 0 l 56 1111 l 357 1111 l 440 757 l 517 183 l 553 183 l 514 635 l 497 1111 l 699 1111 l 699 0 l 382 0 l 299 364 l 242 929 l 203 929 l 239 426 l 257 0 l 56 0 m 1055 -14 q 893 14 953 -14 q 808 104 834 42 q 778 265 781 165 q 778 341 778 299 q 778 417 778 383 l 974 417 q 973 357 974 392 q 973 286 973 322 q 974 226 974 251 q 995 174 976 192 q 1055 156 1015 156 q 1114 174 1096 156 q 1131 226 1131 192 l 1131 1111 l 1340 1111 l 1340 265 q 1276 51 1340 115 q 1055 -14 1213 -14 z "},"Ń":{"ha":754,"x_min":56,"x_max":699,"o":"m 56 0 l 56 1111 l 357 1111 l 440 757 l 517 183 l 553 183 l 514 635 l 497 1111 l 699 1111 l 699 0 l 382 0 l 299 364 l 242 929 l 203 929 l 239 426 l 257 0 l 56 0 m 321 1167 l 456 1360 l 589 1360 l 447 1167 l 321 1167 z "},"Ň":{"ha":754,"x_min":56,"x_max":699,"o":"m 56 0 l 56 1111 l 357 1111 l 440 757 l 517 183 l 553 183 l 514 635 l 497 1111 l 699 1111 l 699 0 l 382 0 l 299 364 l 242 929 l 203 929 l 239 426 l 257 0 l 56 0 m 324 1168 l 210 1361 l 329 1361 l 376 1269 l 424 1361 l 543 1361 l 429 1168 l 324 1168 z "},"Ņ":{"ha":754,"x_min":56,"x_max":699,"o":"m 56 0 l 56 1111 l 357 1111 l 440 757 l 517 183 l 553 183 l 514 635 l 497 1111 l 699 1111 l 699 0 l 382 0 l 299 364 l 242 929 l 203 929 l 239 426 l 257 0 l 56 0 m 313 -318 l 360 -211 l 289 -211 l 289 -56 l 479 -56 l 479 -193 l 411 -318 l 313 -318 z "},"Ṅ":{"ha":754,"x_min":56,"x_max":699,"o":"m 56 0 l 56 1111 l 357 1111 l 440 757 l 517 183 l 553 183 l 514 635 l 497 1111 l 699 1111 l 699 0 l 382 0 l 299 364 l 242 929 l 203 929 l 239 426 l 257 0 l 56 0 m 308 1167 l 308 1304 l 446 1304 l 446 1167 l 308 1167 z "},"Ṇ":{"ha":754,"x_min":56,"x_max":699,"o":"m 56 0 l 56 1111 l 357 1111 l 440 757 l 517 183 l 553 183 l 514 635 l 497 1111 l 699 1111 l 699 0 l 382 0 l 299 364 l 242 929 l 203 929 l 239 426 l 257 0 l 56 0 m 308 -193 l 308 -56 l 446 -56 l 446 -193 l 308 -193 z "},"ǋ":{"ha":1078,"x_min":56,"x_max":1021,"o":"m 56 0 l 56 1111 l 357 1111 l 440 757 l 517 183 l 553 183 l 514 635 l 497 1111 l 699 1111 l 699 0 l 382 0 l 299 364 l 242 929 l 203 929 l 239 426 l 257 0 l 56 0 m 813 954 l 813 1111 l 1021 1111 l 1021 954 l 813 954 m 736 -296 q 686 -293 713 -296 q 635 -286 660 -290 l 635 -132 q 685 -134 653 -133 q 736 -135 717 -135 q 792 -117 772 -135 q 813 -65 813 -99 l 813 833 l 1021 833 l 1021 -49 q 950 -238 1021 -181 q 736 -296 880 -296 z "},"Ṉ":{"ha":754,"x_min":56,"x_max":699,"o":"m 56 0 l 56 1111 l 357 1111 l 440 757 l 517 183 l 553 183 l 514 635 l 497 1111 l 699 1111 l 699 0 l 382 0 l 299 364 l 242 929 l 203 929 l 239 426 l 257 0 l 56 0 m 131 -76 l 597 -76 l 597 -169 l 131 -169 l 131 -76 z "},"Ñ":{"ha":754,"x_min":56,"x_max":699,"o":"m 56 0 l 56 1111 l 357 1111 l 440 757 l 517 183 l 553 183 l 514 635 l 497 1111 l 699 1111 l 699 0 l 382 0 l 299 364 l 242 929 l 203 929 l 239 426 l 257 0 l 56 0 m 479 1317 l 557 1317 q 526 1200 553 1237 q 448 1164 499 1164 q 400 1174 418 1164 q 370 1197 383 1184 q 346 1220 358 1210 q 313 1231 333 1231 q 285 1215 291 1231 q 276 1174 278 1200 l 199 1174 q 232 1298 204 1260 q 311 1335 260 1335 q 360 1325 341 1335 q 391 1302 378 1315 q 417 1279 404 1289 q 448 1269 430 1269 q 472 1281 466 1269 q 479 1317 478 1293 z "},"O":{"ha":690,"x_min":49,"x_max":642,"o":"m 344 -14 q 123 51 192 -14 q 51 265 55 115 q 49 407 50 333 q 49 556 49 481 q 49 706 49 632 q 51 847 50 779 q 123 1061 55 997 q 344 1125 192 1125 q 565 1061 498 1125 q 636 847 631 997 q 640 704 639 778 q 642 555 642 631 q 640 407 642 480 q 636 265 639 333 q 565 51 631 115 q 344 -14 498 -14 m 344 156 q 406 174 385 156 q 428 226 427 192 q 433 382 431 297 q 434 556 434 467 q 433 731 434 646 q 428 886 431 815 q 406 938 427 919 q 344 956 384 956 q 283 938 305 956 q 260 886 261 919 q 255 731 257 815 q 253 556 253 646 q 255 382 253 467 q 260 226 257 297 q 283 174 261 192 q 344 156 305 156 z "},"Œ":{"ha":946,"x_min":49,"x_max":915,"o":"m 344 -14 q 123 51 192 -14 q 51 265 55 115 q 49 407 50 333 q 49 556 49 481 q 49 706 49 632 q 51 847 50 779 q 123 1061 55 997 q 344 1125 192 1125 q 469 1111 420 1125 l 471 1111 l 915 1111 l 915 928 l 643 928 l 643 657 l 901 657 l 901 474 l 643 474 l 643 183 l 915 183 l 915 0 l 471 0 l 469 0 q 344 -14 420 -14 m 344 156 q 406 174 385 156 q 428 226 427 192 q 431 312 430 267 q 433 407 432 358 q 434 506 433 456 q 434 607 434 556 q 433 706 433 657 q 431 800 432 755 q 428 886 430 846 q 406 938 427 919 q 344 956 384 956 q 283 938 305 956 q 260 886 261 919 q 255 731 257 815 q 253 556 253 646 q 255 382 253 467 q 260 226 257 297 q 283 174 261 192 q 344 156 305 156 z "},"Ó":{"ha":690,"x_min":49,"x_max":642,"o":"m 344 -14 q 123 51 192 -14 q 51 265 55 115 q 49 407 50 333 q 49 556 49 481 q 49 706 49 632 q 51 847 50 779 q 123 1061 55 997 q 344 1125 192 1125 q 565 1061 498 1125 q 636 847 631 997 q 640 704 639 778 q 642 555 642 631 q 640 407 642 480 q 636 265 639 333 q 565 51 631 115 q 344 -14 498 -14 m 344 156 q 406 174 385 156 q 428 226 427 192 q 433 382 431 297 q 434 556 434 467 q 433 731 434 646 q 428 886 431 815 q 406 938 427 919 q 344 956 384 956 q 283 938 305 956 q 260 886 261 919 q 255 731 257 815 q 253 556 253 646 q 255 382 253 467 q 260 226 257 297 q 283 174 261 192 q 344 156 305 156 m 289 1167 l 424 1360 l 557 1360 l 415 1167 l 289 1167 z "},"Ŏ":{"ha":690,"x_min":49,"x_max":642,"o":"m 344 -14 q 123 51 192 -14 q 51 265 55 115 q 49 407 50 333 q 49 556 49 481 q 49 706 49 632 q 51 847 50 779 q 123 1061 55 997 q 344 1125 192 1125 q 565 1061 498 1125 q 636 847 631 997 q 640 704 639 778 q 642 555 642 631 q 640 407 642 480 q 636 265 639 333 q 565 51 631 115 q 344 -14 498 -14 m 344 156 q 406 174 385 156 q 428 226 427 192 q 433 382 431 297 q 434 556 434 467 q 433 731 434 646 q 428 886 431 815 q 406 938 427 919 q 344 956 384 956 q 283 938 305 956 q 260 886 261 919 q 255 731 257 815 q 253 556 253 646 q 255 382 253 467 q 260 226 257 297 q 283 174 261 192 q 344 156 305 156 m 346 1160 q 191 1207 240 1160 q 136 1365 142 1255 l 260 1365 q 280 1288 260 1311 q 346 1264 300 1264 q 412 1288 392 1264 q 432 1365 432 1311 l 556 1365 q 500 1207 549 1255 q 346 1160 451 1160 z "},"Ǒ":{"ha":690,"x_min":49,"x_max":642,"o":"m 344 -14 q 123 51 192 -14 q 51 265 55 115 q 49 407 50 333 q 49 556 49 481 q 49 706 49 632 q 51 847 50 779 q 123 1061 55 997 q 344 1125 192 1125 q 565 1061 498 1125 q 636 847 631 997 q 640 704 639 778 q 642 555 642 631 q 640 407 642 480 q 636 265 639 333 q 565 51 631 115 q 344 -14 498 -14 m 344 156 q 406 174 385 156 q 428 226 427 192 q 433 382 431 297 q 434 556 434 467 q 433 731 434 646 q 428 886 431 815 q 406 938 427 919 q 344 956 384 956 q 283 938 305 956 q 260 886 261 919 q 255 731 257 815 q 253 556 253 646 q 255 382 253 467 q 260 226 257 297 q 283 174 261 192 q 344 156 305 156 m 292 1168 l 178 1361 l 297 1361 l 344 1269 l 392 1361 l 511 1361 l 397 1168 l 292 1168 z "},"Ô":{"ha":690,"x_min":49,"x_max":642,"o":"m 344 -14 q 123 51 192 -14 q 51 265 55 115 q 49 407 50 333 q 49 556 49 481 q 49 706 49 632 q 51 847 50 779 q 123 1061 55 997 q 344 1125 192 1125 q 565 1061 498 1125 q 636 847 631 997 q 640 704 639 778 q 642 555 642 631 q 640 407 642 480 q 636 265 639 333 q 565 51 631 115 q 344 -14 498 -14 m 344 156 q 406 174 385 156 q 428 226 427 192 q 433 382 431 297 q 434 556 434 467 q 433 731 434 646 q 428 886 431 815 q 406 938 427 919 q 344 956 384 956 q 283 938 305 956 q 260 886 261 919 q 255 731 257 815 q 253 556 253 646 q 255 382 253 467 q 260 226 257 297 q 283 174 261 192 q 344 156 305 156 m 171 1168 l 285 1361 l 404 1361 l 518 1168 l 385 1168 l 344 1246 l 304 1168 l 171 1168 z "},"Ố":{"ha":690,"x_min":49,"x_max":764,"o":"m 344 -14 q 123 51 192 -14 q 51 265 55 115 q 49 407 50 333 q 49 556 49 481 q 49 706 49 632 q 51 847 50 779 q 123 1061 55 997 q 344 1125 192 1125 q 565 1061 498 1125 q 636 847 631 997 q 640 704 639 778 q 642 555 642 631 q 640 407 642 480 q 636 265 639 333 q 565 51 631 115 q 344 -14 498 -14 m 344 156 q 406 174 385 156 q 428 226 427 192 q 433 382 431 297 q 434 556 434 467 q 433 731 434 646 q 428 886 431 815 q 406 938 427 919 q 344 956 384 956 q 283 938 305 956 q 260 886 261 919 q 255 731 257 815 q 253 556 253 646 q 255 382 253 467 q 260 226 257 297 q 283 174 261 192 q 344 156 305 156 m 171 1168 l 285 1361 l 404 1361 l 518 1168 l 385 1168 l 344 1246 l 304 1168 l 171 1168 m 496 1347 l 631 1540 l 764 1540 l 622 1347 l 496 1347 z "},"Ộ":{"ha":690,"x_min":49,"x_max":642,"o":"m 344 -14 q 123 51 192 -14 q 51 265 55 115 q 49 407 50 333 q 49 556 49 481 q 49 706 49 632 q 51 847 50 779 q 123 1061 55 997 q 344 1125 192 1125 q 565 1061 498 1125 q 636 847 631 997 q 640 704 639 778 q 642 555 642 631 q 640 407 642 480 q 636 265 639 333 q 565 51 631 115 q 344 -14 498 -14 m 344 156 q 406 174 385 156 q 428 226 427 192 q 433 382 431 297 q 434 556 434 467 q 433 731 434 646 q 428 886 431 815 q 406 938 427 919 q 344 956 384 956 q 283 938 305 956 q 260 886 261 919 q 255 731 257 815 q 253 556 253 646 q 255 382 253 467 q 260 226 257 297 q 283 174 261 192 q 344 156 305 156 m 276 -193 l 276 -56 l 414 -56 l 414 -193 l 276 -193 m 171 1168 l 285 1361 l 404 1361 l 518 1168 l 385 1168 l 344 1246 l 304 1168 l 171 1168 z "},"Ồ":{"ha":690,"x_min":49,"x_max":664,"o":"m 344 -14 q 123 51 192 -14 q 51 265 55 115 q 49 407 50 333 q 49 556 49 481 q 49 706 49 632 q 51 847 50 779 q 123 1061 55 997 q 344 1125 192 1125 q 565 1061 498 1125 q 636 847 631 997 q 640 704 639 778 q 642 555 642 631 q 640 407 642 480 q 636 265 639 333 q 565 51 631 115 q 344 -14 498 -14 m 344 156 q 406 174 385 156 q 428 226 427 192 q 433 382 431 297 q 434 556 434 467 q 433 731 434 646 q 428 886 431 815 q 406 938 427 919 q 344 956 384 956 q 283 938 305 956 q 260 886 261 919 q 255 731 257 815 q 253 556 253 646 q 255 382 253 467 q 260 226 257 297 q 283 174 261 192 q 344 156 305 156 m 171 1168 l 285 1361 l 404 1361 l 518 1168 l 385 1168 l 344 1246 l 304 1168 l 171 1168 m 538 1347 l 410 1540 l 543 1540 l 664 1347 l 538 1347 z "},"Ổ":{"ha":690,"x_min":49,"x_max":642,"o":"m 344 -14 q 123 51 192 -14 q 51 265 55 115 q 49 407 50 333 q 49 556 49 481 q 49 706 49 632 q 51 847 50 779 q 123 1061 55 997 q 344 1125 192 1125 q 565 1061 498 1125 q 636 847 631 997 q 640 704 639 778 q 642 555 642 631 q 640 407 642 480 q 636 265 639 333 q 565 51 631 115 q 344 -14 498 -14 m 344 156 q 406 174 385 156 q 428 226 427 192 q 433 382 431 297 q 434 556 434 467 q 433 731 434 646 q 428 886 431 815 q 406 938 427 919 q 344 956 384 956 q 283 938 305 956 q 260 886 261 919 q 255 731 257 815 q 253 556 253 646 q 255 382 253 467 q 260 226 257 297 q 283 174 261 192 q 344 156 305 156 m 171 1168 l 285 1361 l 404 1361 l 518 1168 l 385 1168 l 344 1246 l 304 1168 l 171 1168 m 499 1325 l 508 1365 q 504 1425 519 1410 q 433 1440 489 1440 l 372 1440 l 372 1538 l 433 1538 q 587 1497 538 1538 q 614 1365 636 1456 l 604 1325 l 499 1325 z "},"Ỗ":{"ha":690,"x_min":49,"x_max":642,"o":"m 344 -14 q 123 51 192 -14 q 51 265 55 115 q 49 407 50 333 q 49 556 49 481 q 49 706 49 632 q 51 847 50 779 q 123 1061 55 997 q 344 1125 192 1125 q 565 1061 498 1125 q 636 847 631 997 q 640 704 639 778 q 642 555 642 631 q 640 407 642 480 q 636 265 639 333 q 565 51 631 115 q 344 -14 498 -14 m 344 156 q 406 174 385 156 q 428 226 427 192 q 433 382 431 297 q 434 556 434 467 q 433 731 434 646 q 428 886 431 815 q 406 938 427 919 q 344 956 384 956 q 283 938 305 956 q 260 886 261 919 q 255 731 257 815 q 253 556 253 646 q 255 382 253 467 q 260 226 257 297 q 283 174 261 192 q 344 156 305 156 m 171 1168 l 285 1361 l 404 1361 l 518 1168 l 385 1168 l 344 1246 l 304 1168 l 171 1168 m 464 1546 l 542 1546 q 510 1430 538 1466 q 433 1393 483 1393 q 385 1403 403 1393 q 355 1426 367 1413 q 331 1450 343 1440 q 298 1460 318 1460 q 269 1444 276 1460 q 261 1403 263 1429 l 183 1403 q 217 1527 189 1490 q 296 1564 245 1564 q 344 1554 326 1564 q 376 1531 363 1544 q 402 1508 389 1518 q 433 1499 415 1499 q 457 1510 451 1499 q 464 1546 463 1522 z "},"Ȍ":{"ha":690,"x_min":49,"x_max":642,"o":"m 344 -14 q 123 51 192 -14 q 51 265 55 115 q 49 407 50 333 q 49 556 49 481 q 49 706 49 632 q 51 847 50 779 q 123 1061 55 997 q 344 1125 192 1125 q 565 1061 498 1125 q 636 847 631 997 q 640 704 639 778 q 642 555 642 631 q 640 407 642 480 q 636 265 639 333 q 565 51 631 115 q 344 -14 498 -14 m 344 156 q 406 174 385 156 q 428 226 427 192 q 433 382 431 297 q 434 556 434 467 q 433 731 434 646 q 428 886 431 815 q 406 938 427 919 q 344 956 384 956 q 283 938 305 956 q 260 886 261 919 q 255 731 257 815 q 253 556 253 646 q 255 382 253 467 q 260 226 257 297 q 283 174 261 192 q 344 156 305 156 m 376 1167 l 249 1360 l 382 1360 l 510 1167 l 376 1167 m 182 1167 l 54 1360 l 188 1360 l 315 1167 l 182 1167 z "},"Ö":{"ha":690,"x_min":49,"x_max":642,"o":"m 344 -14 q 123 51 192 -14 q 51 265 55 115 q 49 407 50 333 q 49 556 49 481 q 49 706 49 632 q 51 847 50 779 q 123 1061 55 997 q 344 1125 192 1125 q 565 1061 498 1125 q 636 847 631 997 q 640 704 639 778 q 642 555 642 631 q 640 407 642 480 q 636 265 639 333 q 565 51 631 115 q 344 -14 498 -14 m 344 156 q 406 174 385 156 q 428 226 427 192 q 433 382 431 297 q 434 556 434 467 q 433 731 434 646 q 428 886 431 815 q 406 938 427 919 q 344 956 384 956 q 283 938 305 956 q 260 886 261 919 q 255 731 257 815 q 253 556 253 646 q 255 382 253 467 q 260 226 257 297 q 283 174 261 192 q 344 156 305 156 m 383 1188 l 383 1325 l 521 1325 l 521 1188 l 383 1188 m 171 1188 l 171 1325 l 308 1325 l 308 1188 l 171 1188 z "},"Ȫ":{"ha":690,"x_min":49,"x_max":642,"o":"m 344 -14 q 123 51 192 -14 q 51 265 55 115 q 49 407 50 333 q 49 556 49 481 q 49 706 49 632 q 51 847 50 779 q 123 1061 55 997 q 344 1125 192 1125 q 565 1061 498 1125 q 636 847 631 997 q 640 704 639 778 q 642 555 642 631 q 640 407 642 480 q 636 265 639 333 q 565 51 631 115 q 344 -14 498 -14 m 344 156 q 406 174 385 156 q 428 226 427 192 q 433 382 431 297 q 434 556 434 467 q 433 731 434 646 q 428 886 431 815 q 406 938 427 919 q 344 956 384 956 q 283 938 305 956 q 260 886 261 919 q 255 731 257 815 q 253 556 253 646 q 255 382 253 467 q 260 226 257 297 q 283 174 261 192 q 344 156 305 156 m 383 1188 l 383 1325 l 521 1325 l 521 1188 l 383 1188 m 171 1188 l 171 1325 l 308 1325 l 308 1188 l 171 1188 m 109 1440 l 576 1440 l 576 1347 l 109 1347 l 109 1440 z "},"Ȱ":{"ha":690,"x_min":49,"x_max":642,"o":"m 344 -14 q 123 51 192 -14 q 51 265 55 115 q 49 407 50 333 q 49 556 49 481 q 49 706 49 632 q 51 847 50 779 q 123 1061 55 997 q 344 1125 192 1125 q 565 1061 498 1125 q 636 847 631 997 q 640 704 639 778 q 642 555 642 631 q 640 407 642 480 q 636 265 639 333 q 565 51 631 115 q 344 -14 498 -14 m 344 156 q 406 174 385 156 q 428 226 427 192 q 433 382 431 297 q 434 556 434 467 q 433 731 434 646 q 428 886 431 815 q 406 938 427 919 q 344 956 384 956 q 283 938 305 956 q 260 886 261 919 q 255 731 257 815 q 253 556 253 646 q 255 382 253 467 q 260 226 257 297 q 283 174 261 192 q 344 156 305 156 m 276 1167 l 276 1304 l 414 1304 l 414 1167 l 276 1167 m 109 1440 l 576 1440 l 576 1347 l 109 1347 l 109 1440 z "},"Ọ":{"ha":690,"x_min":49,"x_max":642,"o":"m 344 -14 q 123 51 192 -14 q 51 265 55 115 q 49 407 50 333 q 49 556 49 481 q 49 706 49 632 q 51 847 50 779 q 123 1061 55 997 q 344 1125 192 1125 q 565 1061 498 1125 q 636 847 631 997 q 640 704 639 778 q 642 555 642 631 q 640 407 642 480 q 636 265 639 333 q 565 51 631 115 q 344 -14 498 -14 m 344 156 q 406 174 385 156 q 428 226 427 192 q 433 382 431 297 q 434 556 434 467 q 433 731 434 646 q 428 886 431 815 q 406 938 427 919 q 344 956 384 956 q 283 938 305 956 q 260 886 261 919 q 255 731 257 815 q 253 556 253 646 q 255 382 253 467 q 260 226 257 297 q 283 174 261 192 q 344 156 305 156 m 276 -193 l 276 -56 l 414 -56 l 414 -193 l 276 -193 z "},"Ò":{"ha":690,"x_min":49,"x_max":642,"o":"m 344 -14 q 123 51 192 -14 q 51 265 55 115 q 49 407 50 333 q 49 556 49 481 q 49 706 49 632 q 51 847 50 779 q 123 1061 55 997 q 344 1125 192 1125 q 565 1061 498 1125 q 636 847 631 997 q 640 704 639 778 q 642 555 642 631 q 640 407 642 480 q 636 265 639 333 q 565 51 631 115 q 344 -14 498 -14 m 344 156 q 406 174 385 156 q 428 226 427 192 q 433 382 431 297 q 434 556 434 467 q 433 731 434 646 q 428 886 431 815 q 406 938 427 919 q 344 956 384 956 q 283 938 305 956 q 260 886 261 919 q 255 731 257 815 q 253 556 253 646 q 255 382 253 467 q 260 226 257 297 q 283 174 261 192 q 344 156 305 156 m 261 1167 l 133 1360 l 267 1360 l 388 1167 l 261 1167 z "},"Ω":{"ha":800,"x_min":56,"x_max":744,"o":"m 56 0 l 56 183 l 157 183 l 157 201 q 85 272 108 228 q 58 389 62 315 q 57 448 58 413 q 56 524 56 484 q 56 601 56 564 q 58 664 57 638 q 101 824 65 763 q 211 914 138 885 q 400 942 284 942 q 653 877 574 942 q 742 664 733 813 q 744 601 743 638 q 744 524 744 564 q 744 448 744 484 q 742 389 743 413 q 716 272 739 315 q 643 201 692 228 l 643 183 l 744 183 l 744 0 l 440 0 l 440 179 l 456 183 q 511 220 490 193 q 533 306 531 247 q 536 397 535 353 q 537 483 537 440 q 536 569 537 526 q 533 661 535 613 q 500 747 531 721 q 400 772 469 772 q 300 747 331 772 q 267 661 269 721 q 263 540 264 597 q 264 426 263 483 q 267 306 265 369 q 290 220 269 247 q 344 183 310 193 l 360 179 l 360 0 l 56 0 z "},"Ỏ":{"ha":690,"x_min":49,"x_max":642,"o":"m 344 -14 q 123 51 192 -14 q 51 265 55 115 q 49 407 50 333 q 49 556 49 481 q 49 706 49 632 q 51 847 50 779 q 123 1061 55 997 q 344 1125 192 1125 q 565 1061 498 1125 q 636 847 631 997 q 640 704 639 778 q 642 555 642 631 q 640 407 642 480 q 636 265 639 333 q 565 51 631 115 q 344 -14 498 -14 m 344 156 q 406 174 385 156 q 428 226 427 192 q 433 382 431 297 q 434 556 434 467 q 433 731 434 646 q 428 886 431 815 q 406 938 427 919 q 344 956 384 956 q 283 938 305 956 q 260 886 261 919 q 255 731 257 815 q 253 556 253 646 q 255 382 253 467 q 260 226 257 297 q 283 174 261 192 q 344 156 305 156 m 350 1158 l 360 1199 q 356 1258 371 1243 q 285 1274 340 1274 l 223 1274 l 223 1371 l 285 1371 q 438 1330 389 1371 q 465 1199 488 1289 l 456 1158 l 350 1158 z "},"Ơ":{"ha":690,"x_min":49,"x_max":690,"o":"m 344 -14 q 123 51 192 -14 q 51 265 55 115 q 49 407 50 333 q 49 556 49 481 q 49 706 49 632 q 51 847 50 779 q 123 1061 55 997 q 344 1125 192 1125 q 565 1061 498 1125 q 636 847 631 997 q 640 704 639 778 q 642 555 642 631 q 640 407 642 480 q 636 265 639 333 q 565 51 631 115 q 344 -14 498 -14 m 344 156 q 406 174 385 156 q 428 226 427 192 q 433 382 431 297 q 434 556 434 467 q 433 731 434 646 q 428 886 431 815 q 406 938 427 919 q 344 956 384 956 q 283 938 305 956 q 260 886 261 919 q 255 731 257 815 q 253 556 253 646 q 255 382 253 467 q 260 226 257 297 q 283 174 261 192 q 344 156 305 156 m 500 1010 q 487 1010 495 1010 q 467 1013 479 1010 l 467 1111 q 489 1111 483 1111 q 500 1111 495 1111 q 556 1137 538 1111 q 578 1222 574 1163 q 579 1264 578 1235 q 579 1320 579 1292 q 578 1361 578 1348 l 689 1361 q 690 1320 690 1348 q 690 1264 690 1292 q 689 1222 690 1235 q 637 1061 683 1113 q 500 1010 591 1010 z "},"Ớ":{"ha":690,"x_min":49,"x_max":690,"o":"m 344 -14 q 123 51 192 -14 q 51 265 55 115 q 49 407 50 333 q 49 556 49 481 q 49 706 49 632 q 51 847 50 779 q 123 1061 55 997 q 344 1125 192 1125 q 565 1061 498 1125 q 636 847 631 997 q 640 704 639 778 q 642 555 642 631 q 640 407 642 480 q 636 265 639 333 q 565 51 631 115 q 344 -14 498 -14 m 344 156 q 406 174 385 156 q 428 226 427 192 q 433 382 431 297 q 434 556 434 467 q 433 731 434 646 q 428 886 431 815 q 406 938 427 919 q 344 956 384 956 q 283 938 305 956 q 260 886 261 919 q 255 731 257 815 q 253 556 253 646 q 255 382 253 467 q 260 226 257 297 q 283 174 261 192 q 344 156 305 156 m 500 1010 q 487 1010 495 1010 q 467 1013 479 1010 l 467 1111 q 489 1111 483 1111 q 500 1111 495 1111 q 556 1137 538 1111 q 578 1222 574 1163 q 579 1264 578 1235 q 579 1320 579 1292 q 578 1361 578 1348 l 689 1361 q 690 1320 690 1348 q 690 1264 690 1292 q 689 1222 690 1235 q 637 1061 683 1113 q 500 1010 591 1010 m 289 1167 l 424 1360 l 557 1360 l 415 1167 l 289 1167 z "},"Ợ":{"ha":690,"x_min":49,"x_max":690,"o":"m 344 -14 q 123 51 192 -14 q 51 265 55 115 q 49 407 50 333 q 49 556 49 481 q 49 706 49 632 q 51 847 50 779 q 123 1061 55 997 q 344 1125 192 1125 q 565 1061 498 1125 q 636 847 631 997 q 640 704 639 778 q 642 555 642 631 q 640 407 642 480 q 636 265 639 333 q 565 51 631 115 q 344 -14 498 -14 m 344 156 q 406 174 385 156 q 428 226 427 192 q 433 382 431 297 q 434 556 434 467 q 433 731 434 646 q 428 886 431 815 q 406 938 427 919 q 344 956 384 956 q 283 938 305 956 q 260 886 261 919 q 255 731 257 815 q 253 556 253 646 q 255 382 253 467 q 260 226 257 297 q 283 174 261 192 q 344 156 305 156 m 500 1010 q 487 1010 495 1010 q 467 1013 479 1010 l 467 1111 q 489 1111 483 1111 q 500 1111 495 1111 q 556 1137 538 1111 q 578 1222 574 1163 q 579 1264 578 1235 q 579 1320 579 1292 q 578 1361 578 1348 l 689 1361 q 690 1320 690 1348 q 690 1264 690 1292 q 689 1222 690 1235 q 637 1061 683 1113 q 500 1010 591 1010 m 276 -193 l 276 -56 l 414 -56 l 414 -193 l 276 -193 z "},"Ờ":{"ha":690,"x_min":49,"x_max":690,"o":"m 344 -14 q 123 51 192 -14 q 51 265 55 115 q 49 407 50 333 q 49 556 49 481 q 49 706 49 632 q 51 847 50 779 q 123 1061 55 997 q 344 1125 192 1125 q 565 1061 498 1125 q 636 847 631 997 q 640 704 639 778 q 642 555 642 631 q 640 407 642 480 q 636 265 639 333 q 565 51 631 115 q 344 -14 498 -14 m 344 156 q 406 174 385 156 q 428 226 427 192 q 433 382 431 297 q 434 556 434 467 q 433 731 434 646 q 428 886 431 815 q 406 938 427 919 q 344 956 384 956 q 283 938 305 956 q 260 886 261 919 q 255 731 257 815 q 253 556 253 646 q 255 382 253 467 q 260 226 257 297 q 283 174 261 192 q 344 156 305 156 m 500 1010 q 487 1010 495 1010 q 467 1013 479 1010 l 467 1111 q 489 1111 483 1111 q 500 1111 495 1111 q 556 1137 538 1111 q 578 1222 574 1163 q 579 1264 578 1235 q 579 1320 579 1292 q 578 1361 578 1348 l 689 1361 q 690 1320 690 1348 q 690 1264 690 1292 q 689 1222 690 1235 q 637 1061 683 1113 q 500 1010 591 1010 m 261 1167 l 133 1360 l 267 1360 l 388 1167 l 261 1167 z "},"Ở":{"ha":690,"x_min":49,"x_max":690,"o":"m 344 -14 q 123 51 192 -14 q 51 265 55 115 q 49 407 50 333 q 49 556 49 481 q 49 706 49 632 q 51 847 50 779 q 123 1061 55 997 q 344 1125 192 1125 q 565 1061 498 1125 q 636 847 631 997 q 640 704 639 778 q 642 555 642 631 q 640 407 642 480 q 636 265 639 333 q 565 51 631 115 q 344 -14 498 -14 m 344 156 q 406 174 385 156 q 428 226 427 192 q 433 382 431 297 q 434 556 434 467 q 433 731 434 646 q 428 886 431 815 q 406 938 427 919 q 344 956 384 956 q 283 938 305 956 q 260 886 261 919 q 255 731 257 815 q 253 556 253 646 q 255 382 253 467 q 260 226 257 297 q 283 174 261 192 q 344 156 305 156 m 500 1010 q 487 1010 495 1010 q 467 1013 479 1010 l 467 1111 q 489 1111 483 1111 q 500 1111 495 1111 q 556 1137 538 1111 q 578 1222 574 1163 q 579 1264 578 1235 q 579 1320 579 1292 q 578 1361 578 1348 l 689 1361 q 690 1320 690 1348 q 690 1264 690 1292 q 689 1222 690 1235 q 637 1061 683 1113 q 500 1010 591 1010 m 350 1158 l 360 1199 q 356 1258 371 1243 q 285 1274 340 1274 l 223 1274 l 223 1371 l 285 1371 q 438 1330 389 1371 q 465 1199 488 1289 l 456 1158 l 350 1158 z "},"Ỡ":{"ha":690,"x_min":49,"x_max":690,"o":"m 344 -14 q 123 51 192 -14 q 51 265 55 115 q 49 407 50 333 q 49 556 49 481 q 49 706 49 632 q 51 847 50 779 q 123 1061 55 997 q 344 1125 192 1125 q 565 1061 498 1125 q 636 847 631 997 q 640 704 639 778 q 642 555 642 631 q 640 407 642 480 q 636 265 639 333 q 565 51 631 115 q 344 -14 498 -14 m 344 156 q 406 174 385 156 q 428 226 427 192 q 433 382 431 297 q 434 556 434 467 q 433 731 434 646 q 428 886 431 815 q 406 938 427 919 q 344 956 384 956 q 283 938 305 956 q 260 886 261 919 q 255 731 257 815 q 253 556 253 646 q 255 382 253 467 q 260 226 257 297 q 283 174 261 192 q 344 156 305 156 m 500 1010 q 487 1010 495 1010 q 467 1013 479 1010 l 467 1111 q 489 1111 483 1111 q 500 1111 495 1111 q 556 1137 538 1111 q 578 1222 574 1163 q 579 1264 578 1235 q 579 1320 579 1292 q 578 1361 578 1348 l 689 1361 q 690 1320 690 1348 q 690 1264 690 1292 q 689 1222 690 1235 q 637 1061 683 1113 q 500 1010 591 1010 m 406 1358 l 483 1358 q 452 1242 479 1278 q 374 1206 425 1206 q 327 1216 344 1206 q 297 1239 309 1226 q 272 1262 285 1252 q 240 1272 260 1272 q 211 1257 217 1272 q 203 1215 205 1242 l 125 1215 q 159 1339 131 1302 q 238 1376 187 1376 q 286 1367 267 1376 q 318 1344 305 1357 q 343 1321 331 1331 q 374 1311 356 1311 q 398 1323 392 1311 q 406 1358 404 1335 z "},"Ő":{"ha":690,"x_min":49,"x_max":683,"o":"m 344 -14 q 123 51 192 -14 q 51 265 55 115 q 49 407 50 333 q 49 556 49 481 q 49 706 49 632 q 51 847 50 779 q 123 1061 55 997 q 344 1125 192 1125 q 565 1061 498 1125 q 636 847 631 997 q 640 704 639 778 q 642 555 642 631 q 640 407 642 480 q 636 265 639 333 q 565 51 631 115 q 344 -14 498 -14 m 344 156 q 406 174 385 156 q 428 226 427 192 q 433 382 431 297 q 434 556 434 467 q 433 731 434 646 q 428 886 431 815 q 406 938 427 919 q 344 956 384 956 q 283 938 305 956 q 260 886 261 919 q 255 731 257 815 q 253 556 253 646 q 255 382 253 467 q 260 226 257 297 q 283 174 261 192 q 344 156 305 156 m 172 1168 l 333 1361 l 475 1361 l 314 1168 l 172 1168 m 381 1168 l 542 1361 l 683 1361 l 522 1168 l 381 1168 z "},"Ȏ":{"ha":690,"x_min":49,"x_max":642,"o":"m 346 1372 q 500 1325 451 1372 q 556 1167 549 1277 l 432 1167 q 412 1244 432 1221 q 346 1268 392 1268 q 280 1244 300 1268 q 260 1167 260 1221 l 136 1167 q 191 1325 142 1277 q 346 1372 240 1372 m 344 -14 q 123 51 192 -14 q 51 265 55 115 q 49 407 50 333 q 49 556 49 481 q 49 706 49 632 q 51 847 50 779 q 123 1061 55 997 q 344 1125 192 1125 q 565 1061 498 1125 q 636 847 631 997 q 640 704 639 778 q 642 555 642 631 q 640 407 642 480 q 636 265 639 333 q 565 51 631 115 q 344 -14 498 -14 m 344 156 q 406 174 385 156 q 428 226 427 192 q 433 382 431 297 q 434 556 434 467 q 433 731 434 646 q 428 886 431 815 q 406 938 427 919 q 344 956 384 956 q 283 938 305 956 q 260 886 261 919 q 255 731 257 815 q 253 556 253 646 q 255 382 253 467 q 260 226 257 297 q 283 174 261 192 q 344 156 305 156 z "},"Ō":{"ha":690,"x_min":49,"x_max":642,"o":"m 344 -14 q 123 51 192 -14 q 51 265 55 115 q 49 407 50 333 q 49 556 49 481 q 49 706 49 632 q 51 847 50 779 q 123 1061 55 997 q 344 1125 192 1125 q 565 1061 498 1125 q 636 847 631 997 q 640 704 639 778 q 642 555 642 631 q 640 407 642 480 q 636 265 639 333 q 565 51 631 115 q 344 -14 498 -14 m 344 156 q 406 174 385 156 q 428 226 427 192 q 433 382 431 297 q 434 556 434 467 q 433 731 434 646 q 428 886 431 815 q 406 938 427 919 q 344 956 384 956 q 283 938 305 956 q 260 886 261 919 q 255 731 257 815 q 253 556 253 646 q 255 382 253 467 q 260 226 257 297 q 283 174 261 192 q 344 156 305 156 m 109 1246 l 576 1246 l 576 1153 l 109 1153 l 109 1246 z "},"Ṓ":{"ha":690,"x_min":49,"x_max":642,"o":"m 344 -14 q 123 51 192 -14 q 51 265 55 115 q 49 407 50 333 q 49 556 49 481 q 49 706 49 632 q 51 847 50 779 q 123 1061 55 997 q 344 1125 192 1125 q 565 1061 498 1125 q 636 847 631 997 q 640 704 639 778 q 642 555 642 631 q 640 407 642 480 q 636 265 639 333 q 565 51 631 115 q 344 -14 498 -14 m 344 156 q 406 174 385 156 q 428 226 427 192 q 433 382 431 297 q 434 556 434 467 q 433 731 434 646 q 428 886 431 815 q 406 938 427 919 q 344 956 384 956 q 283 938 305 956 q 260 886 261 919 q 255 731 257 815 q 253 556 253 646 q 255 382 253 467 q 260 226 257 297 q 283 174 261 192 q 344 156 305 156 m 109 1246 l 576 1246 l 576 1153 l 109 1153 l 109 1246 m 289 1322 l 424 1515 l 557 1515 l 415 1322 l 289 1322 z "},"Ṑ":{"ha":690,"x_min":49,"x_max":642,"o":"m 344 -14 q 123 51 192 -14 q 51 265 55 115 q 49 407 50 333 q 49 556 49 481 q 49 706 49 632 q 51 847 50 779 q 123 1061 55 997 q 344 1125 192 1125 q 565 1061 498 1125 q 636 847 631 997 q 640 704 639 778 q 642 555 642 631 q 640 407 642 480 q 636 265 639 333 q 565 51 631 115 q 344 -14 498 -14 m 344 156 q 406 174 385 156 q 428 226 427 192 q 433 382 431 297 q 434 556 434 467 q 433 731 434 646 q 428 886 431 815 q 406 938 427 919 q 344 956 384 956 q 283 938 305 956 q 260 886 261 919 q 255 731 257 815 q 253 556 253 646 q 255 382 253 467 q 260 226 257 297 q 283 174 261 192 q 344 156 305 156 m 109 1246 l 576 1246 l 576 1153 l 109 1153 l 109 1246 m 261 1322 l 133 1515 l 267 1515 l 388 1322 l 261 1322 z "},"Ǫ":{"ha":690,"x_min":49,"x_max":642,"o":"m 344 -14 q 123 51 192 -14 q 51 265 55 115 q 49 407 50 333 q 49 556 49 481 q 49 706 49 632 q 51 847 50 779 q 123 1061 55 997 q 344 1125 192 1125 q 565 1061 498 1125 q 636 847 631 997 q 640 704 639 778 q 642 555 642 631 q 640 407 642 480 q 636 265 639 333 q 565 51 631 115 q 344 -14 498 -14 m 344 156 q 406 174 385 156 q 428 226 427 192 q 433 382 431 297 q 434 556 434 467 q 433 731 434 646 q 428 886 431 815 q 406 938 427 919 q 344 956 384 956 q 283 938 305 956 q 260 886 261 919 q 255 731 257 815 q 253 556 253 646 q 255 382 253 467 q 260 226 257 297 q 283 174 261 192 q 344 156 305 156 m 589 -228 l 544 -228 q 395 -187 440 -228 q 364 -56 351 -147 l 372 4 l 478 4 l 469 -56 q 483 -113 465 -96 q 544 -131 501 -131 l 589 -131 l 589 -228 z "},"Ø":{"ha":690,"x_min":49,"x_max":642,"o":"m 344 -14 q 123 51 192 -14 q 51 265 55 115 q 49 407 50 333 q 49 556 49 481 q 49 706 49 632 q 51 847 50 779 q 123 1061 55 997 q 344 1125 192 1125 q 565 1061 498 1125 q 636 847 631 997 q 640 704 639 778 q 642 555 642 631 q 640 407 642 480 q 636 265 639 333 q 565 51 631 115 q 344 -14 498 -14 m 344 156 q 406 174 385 156 q 428 226 427 192 q 431 320 430 270 q 433 423 433 369 q 433 531 433 476 l 257 314 q 258 269 257 291 q 260 226 259 247 q 283 174 261 192 q 344 156 305 156 m 254 533 l 432 753 q 430 819 431 786 q 428 886 429 853 q 406 938 427 919 q 344 956 384 956 q 283 938 305 956 q 260 886 261 919 q 256 777 258 835 q 254 658 255 719 q 254 533 253 596 z "},"Ǿ":{"ha":690,"x_min":49,"x_max":642,"o":"m 344 -14 q 123 51 192 -14 q 51 265 55 115 q 49 407 50 333 q 49 556 49 481 q 49 706 49 632 q 51 847 50 779 q 123 1061 55 997 q 344 1125 192 1125 q 565 1061 498 1125 q 636 847 631 997 q 640 704 639 778 q 642 555 642 631 q 640 407 642 480 q 636 265 639 333 q 565 51 631 115 q 344 -14 498 -14 m 344 156 q 406 174 385 156 q 428 226 427 192 q 431 320 430 270 q 433 423 433 369 q 433 531 433 476 l 257 314 q 258 269 257 291 q 260 226 259 247 q 283 174 261 192 q 344 156 305 156 m 254 533 l 432 753 q 430 819 431 786 q 428 886 429 853 q 406 938 427 919 q 344 956 384 956 q 283 938 305 956 q 260 886 261 919 q 256 777 258 835 q 254 658 255 719 q 254 533 253 596 m 289 1167 l 424 1360 l 557 1360 l 415 1167 l 289 1167 z "},"Õ":{"ha":690,"x_min":49,"x_max":642,"o":"m 344 -14 q 123 51 192 -14 q 51 265 55 115 q 49 407 50 333 q 49 556 49 481 q 49 706 49 632 q 51 847 50 779 q 123 1061 55 997 q 344 1125 192 1125 q 565 1061 498 1125 q 636 847 631 997 q 640 704 639 778 q 642 555 642 631 q 640 407 642 480 q 636 265 639 333 q 565 51 631 115 q 344 -14 498 -14 m 344 156 q 406 174 385 156 q 428 226 427 192 q 433 382 431 297 q 434 556 434 467 q 433 731 434 646 q 428 886 431 815 q 406 938 427 919 q 344 956 384 956 q 283 938 305 956 q 260 886 261 919 q 255 731 257 815 q 253 556 253 646 q 255 382 253 467 q 260 226 257 297 q 283 174 261 192 q 344 156 305 156 m 447 1317 l 525 1317 q 494 1200 521 1237 q 416 1164 467 1164 q 368 1174 386 1164 q 339 1197 351 1184 q 314 1220 326 1210 q 281 1231 301 1231 q 253 1215 259 1231 q 244 1174 247 1200 l 167 1174 q 200 1298 172 1260 q 279 1335 228 1335 q 328 1325 309 1335 q 359 1302 347 1315 q 385 1279 372 1289 q 416 1269 398 1269 q 440 1281 434 1269 q 447 1317 446 1293 z "},"Ṍ":{"ha":690,"x_min":49,"x_max":642,"o":"m 344 -14 q 123 51 192 -14 q 51 265 55 115 q 49 407 50 333 q 49 556 49 481 q 49 706 49 632 q 51 847 50 779 q 123 1061 55 997 q 344 1125 192 1125 q 565 1061 498 1125 q 636 847 631 997 q 640 704 639 778 q 642 555 642 631 q 640 407 642 480 q 636 265 639 333 q 565 51 631 115 q 344 -14 498 -14 m 344 156 q 406 174 385 156 q 428 226 427 192 q 433 382 431 297 q 434 556 434 467 q 433 731 434 646 q 428 886 431 815 q 406 938 427 919 q 344 956 384 956 q 283 938 305 956 q 260 886 261 919 q 255 731 257 815 q 253 556 253 646 q 255 382 253 467 q 260 226 257 297 q 283 174 261 192 q 344 156 305 156 m 447 1317 l 525 1317 q 494 1200 521 1237 q 416 1164 467 1164 q 368 1174 386 1164 q 339 1197 351 1184 q 314 1220 326 1210 q 281 1231 301 1231 q 253 1215 259 1231 q 244 1174 247 1200 l 167 1174 q 200 1298 172 1260 q 279 1335 228 1335 q 328 1325 309 1335 q 359 1302 347 1315 q 385 1279 372 1289 q 416 1269 398 1269 q 440 1281 434 1269 q 447 1317 446 1293 m 289 1396 l 424 1589 l 557 1589 l 415 1396 l 289 1396 z "},"Ṏ":{"ha":690,"x_min":49,"x_max":642,"o":"m 344 -14 q 123 51 192 -14 q 51 265 55 115 q 49 407 50 333 q 49 556 49 481 q 49 706 49 632 q 51 847 50 779 q 123 1061 55 997 q 344 1125 192 1125 q 565 1061 498 1125 q 636 847 631 997 q 640 704 639 778 q 642 555 642 631 q 640 407 642 480 q 636 265 639 333 q 565 51 631 115 q 344 -14 498 -14 m 344 156 q 406 174 385 156 q 428 226 427 192 q 433 382 431 297 q 434 556 434 467 q 433 731 434 646 q 428 886 431 815 q 406 938 427 919 q 344 956 384 956 q 283 938 305 956 q 260 886 261 919 q 255 731 257 815 q 253 556 253 646 q 255 382 253 467 q 260 226 257 297 q 283 174 261 192 q 344 156 305 156 m 447 1317 l 525 1317 q 494 1200 521 1237 q 416 1164 467 1164 q 368 1174 386 1164 q 339 1197 351 1184 q 314 1220 326 1210 q 281 1231 301 1231 q 253 1215 259 1231 q 244 1174 247 1200 l 167 1174 q 200 1298 172 1260 q 279 1335 228 1335 q 328 1325 309 1335 q 359 1302 347 1315 q 385 1279 372 1289 q 416 1269 398 1269 q 440 1281 434 1269 q 447 1317 446 1293 m 383 1417 l 383 1554 l 521 1554 l 521 1417 l 383 1417 m 171 1417 l 171 1554 l 308 1554 l 308 1417 l 171 1417 z "},"Ȭ":{"ha":690,"x_min":49,"x_max":642,"o":"m 344 -14 q 123 51 192 -14 q 51 265 55 115 q 49 407 50 333 q 49 556 49 481 q 49 706 49 632 q 51 847 50 779 q 123 1061 55 997 q 344 1125 192 1125 q 565 1061 498 1125 q 636 847 631 997 q 640 704 639 778 q 642 555 642 631 q 640 407 642 480 q 636 265 639 333 q 565 51 631 115 q 344 -14 498 -14 m 344 156 q 406 174 385 156 q 428 226 427 192 q 433 382 431 297 q 434 556 434 467 q 433 731 434 646 q 428 886 431 815 q 406 938 427 919 q 344 956 384 956 q 283 938 305 956 q 260 886 261 919 q 255 731 257 815 q 253 556 253 646 q 255 382 253 467 q 260 226 257 297 q 283 174 261 192 q 344 156 305 156 m 447 1317 l 525 1317 q 494 1200 521 1237 q 416 1164 467 1164 q 368 1174 386 1164 q 339 1197 351 1184 q 314 1220 326 1210 q 281 1231 301 1231 q 253 1215 259 1231 q 244 1174 247 1200 l 167 1174 q 200 1298 172 1260 q 279 1335 228 1335 q 328 1325 309 1335 q 359 1302 347 1315 q 385 1279 372 1289 q 416 1269 398 1269 q 440 1281 434 1269 q 447 1317 446 1293 m 109 1475 l 576 1475 l 576 1382 l 109 1382 l 109 1475 z "},"P":{"ha":653,"x_min":56,"x_max":624,"o":"m 56 0 l 56 1111 l 324 1111 q 548 1048 479 1111 q 622 840 617 985 q 624 732 624 782 q 622 624 624 682 q 548 416 617 479 q 324 353 479 353 l 264 353 l 264 0 l 56 0 m 264 536 l 324 536 q 390 556 367 536 q 414 613 412 576 q 417 689 416 647 q 417 775 417 732 q 414 851 416 817 q 390 908 412 888 q 324 928 367 928 l 264 928 l 264 536 z "},"Q":{"ha":690,"x_min":49,"x_max":642,"o":"m 621 -172 q 434 -144 501 -181 q 343 -14 367 -106 q 123 51 191 -14 q 51 265 55 115 q 49 407 50 333 q 49 556 49 481 q 49 706 49 632 q 51 847 50 779 q 123 1061 55 997 q 344 1125 192 1125 q 565 1061 498 1125 q 636 847 631 997 q 640 704 639 778 q 642 555 642 631 q 640 407 642 480 q 636 265 639 333 q 609 119 633 177 q 536 28 585 60 q 566 -1 544 7 q 621 -6 588 -10 l 621 -172 m 344 156 q 406 174 385 156 q 428 226 427 192 q 433 382 431 297 q 434 556 434 467 q 433 731 434 646 q 428 886 431 815 q 406 938 427 919 q 344 956 385 956 q 283 938 305 956 q 260 886 261 919 q 255 731 257 815 q 253 556 253 646 q 255 382 253 467 q 260 226 257 297 q 283 174 261 192 q 344 156 305 156 z "},"R":{"ha":663,"x_min":56,"x_max":638,"o":"m 56 0 l 56 1111 l 324 1111 q 548 1048 479 1111 q 622 840 617 985 q 624 772 624 801 q 624 714 624 743 q 622 646 624 685 q 592 498 619 556 q 507 410 565 440 l 638 0 l 417 0 l 311 375 l 264 375 l 264 0 l 56 0 m 264 558 l 324 558 q 390 578 367 558 q 414 635 412 599 q 417 706 416 669 q 417 780 417 743 q 414 851 416 817 q 390 908 412 888 q 324 928 367 928 l 264 928 l 264 558 z "},"Ŕ":{"ha":663,"x_min":56,"x_max":638,"o":"m 56 0 l 56 1111 l 324 1111 q 548 1048 479 1111 q 622 840 617 985 q 624 772 624 801 q 624 714 624 743 q 622 646 624 685 q 592 498 619 556 q 507 410 565 440 l 638 0 l 417 0 l 311 375 l 264 375 l 264 0 l 56 0 m 264 558 l 324 558 q 390 578 367 558 q 414 635 412 599 q 417 706 416 669 q 417 780 417 743 q 414 851 416 817 q 390 908 412 888 q 324 928 367 928 l 264 928 l 264 558 m 271 1167 l 406 1360 l 539 1360 l 397 1167 l 271 1167 z "},"Ř":{"ha":663,"x_min":56,"x_max":638,"o":"m 56 0 l 56 1111 l 324 1111 q 548 1048 479 1111 q 622 840 617 985 q 624 772 624 801 q 624 714 624 743 q 622 646 624 685 q 592 498 619 556 q 507 410 565 440 l 638 0 l 417 0 l 311 375 l 264 375 l 264 0 l 56 0 m 264 558 l 324 558 q 390 578 367 558 q 414 635 412 599 q 417 706 416 669 q 417 780 417 743 q 414 851 416 817 q 390 908 412 888 q 324 928 367 928 l 264 928 l 264 558 m 274 1168 l 160 1361 l 279 1361 l 326 1269 l 374 1361 l 493 1361 l 379 1168 l 274 1168 z "},"Ŗ":{"ha":663,"x_min":56,"x_max":638,"o":"m 56 0 l 56 1111 l 324 1111 q 548 1048 479 1111 q 622 840 617 985 q 624 772 624 801 q 624 714 624 743 q 622 646 624 685 q 592 498 619 556 q 507 410 565 440 l 638 0 l 417 0 l 311 375 l 264 375 l 264 0 l 56 0 m 264 558 l 324 558 q 390 578 367 558 q 414 635 412 599 q 417 706 416 669 q 417 780 417 743 q 414 851 416 817 q 390 908 412 888 q 324 928 367 928 l 264 928 l 264 558 m 282 -318 l 329 -211 l 258 -211 l 258 -56 l 449 -56 l 449 -193 l 381 -318 l 282 -318 z "},"Ȑ":{"ha":663,"x_min":36,"x_max":638,"o":"m 56 0 l 56 1111 l 324 1111 q 548 1048 479 1111 q 622 840 617 985 q 624 772 624 801 q 624 714 624 743 q 622 646 624 685 q 592 498 619 556 q 507 410 565 440 l 638 0 l 417 0 l 311 375 l 264 375 l 264 0 l 56 0 m 264 558 l 324 558 q 390 578 367 558 q 414 635 412 599 q 417 706 416 669 q 417 780 417 743 q 414 851 416 817 q 390 908 412 888 q 324 928 367 928 l 264 928 l 264 558 m 358 1167 l 231 1360 l 364 1360 l 492 1167 l 358 1167 m 164 1167 l 36 1360 l 169 1360 l 297 1167 l 164 1167 z "},"Ṛ":{"ha":663,"x_min":56,"x_max":638,"o":"m 56 0 l 56 1111 l 324 1111 q 548 1048 479 1111 q 622 840 617 985 q 624 772 624 801 q 624 714 624 743 q 622 646 624 685 q 592 498 619 556 q 507 410 565 440 l 638 0 l 417 0 l 311 375 l 264 375 l 264 0 l 56 0 m 264 558 l 324 558 q 390 578 367 558 q 414 635 412 599 q 417 706 416 669 q 417 780 417 743 q 414 851 416 817 q 390 908 412 888 q 324 928 367 928 l 264 928 l 264 558 m 278 -193 l 278 -56 l 415 -56 l 415 -193 l 278 -193 z "},"Ȓ":{"ha":663,"x_min":56,"x_max":638,"o":"m 328 1372 q 482 1325 433 1372 q 538 1167 531 1277 l 414 1167 q 394 1244 414 1221 q 328 1268 374 1268 q 262 1244 282 1268 q 242 1167 242 1221 l 118 1167 q 173 1325 124 1277 q 328 1372 222 1372 m 56 0 l 56 1111 l 324 1111 q 548 1048 479 1111 q 622 840 617 985 q 624 772 624 801 q 624 714 624 743 q 622 646 624 685 q 592 498 619 556 q 507 410 565 440 l 638 0 l 417 0 l 311 375 l 264 375 l 264 0 l 56 0 m 264 558 l 324 558 q 390 578 367 558 q 414 635 412 599 q 417 706 416 669 q 417 780 417 743 q 414 851 416 817 q 390 908 412 888 q 324 928 367 928 l 264 928 l 264 558 z "},"Ṟ":{"ha":663,"x_min":56,"x_max":638,"o":"m 56 0 l 56 1111 l 324 1111 q 548 1048 479 1111 q 622 840 617 985 q 624 772 624 801 q 624 714 624 743 q 622 646 624 685 q 592 498 619 556 q 507 410 565 440 l 638 0 l 417 0 l 311 375 l 264 375 l 264 0 l 56 0 m 264 558 l 324 558 q 390 578 367 558 q 414 635 412 599 q 417 706 416 669 q 417 780 417 743 q 414 851 416 817 q 390 908 412 888 q 324 928 367 928 l 264 928 l 264 558 m 100 -76 l 567 -76 l 567 -169 l 100 -169 l 100 -76 z "},"S":{"ha":658,"x_min":35,"x_max":624,"o":"m 330 -14 q 112 51 177 -14 q 41 265 47 115 q 40 314 40 288 q 42 368 40 341 q 47 417 43 394 l 242 417 q 239 317 240 366 q 242 226 238 267 q 267 174 246 192 q 330 156 288 156 q 390 174 371 156 q 413 226 409 192 q 417 273 416 250 q 417 320 418 297 q 413 367 416 343 q 395 419 410 396 q 347 451 380 443 l 233 481 q 118 534 160 499 q 57 622 76 569 q 35 743 38 674 q 35 798 35 774 q 35 847 35 822 q 69 1008 40 947 q 162 1097 99 1069 q 330 1125 225 1125 q 544 1061 478 1125 q 617 847 611 997 q 618 774 619 817 q 615 694 617 731 l 415 694 q 417 790 417 742 q 416 886 418 838 q 392 938 415 919 q 330 956 369 956 q 268 938 288 956 q 244 886 248 919 q 240 815 240 851 q 244 743 240 778 q 263 692 247 715 q 315 661 279 669 l 413 638 q 536 582 491 619 q 600 492 581 546 q 623 367 620 438 q 624 333 624 351 q 623 299 624 316 q 622 265 622 281 q 550 51 615 115 q 330 -14 484 -14 z "},"Ś":{"ha":658,"x_min":35,"x_max":624,"o":"m 330 -14 q 112 51 177 -14 q 41 265 47 115 q 40 314 40 288 q 42 368 40 341 q 47 417 43 394 l 242 417 q 239 317 240 366 q 242 226 238 267 q 267 174 246 192 q 330 156 288 156 q 390 174 371 156 q 413 226 409 192 q 417 273 416 250 q 417 320 418 297 q 413 367 416 343 q 395 419 410 396 q 347 451 380 443 l 233 481 q 118 534 160 499 q 57 622 76 569 q 35 743 38 674 q 35 798 35 774 q 35 847 35 822 q 69 1008 40 947 q 162 1097 99 1069 q 330 1125 225 1125 q 544 1061 478 1125 q 617 847 611 997 q 618 774 619 817 q 615 694 617 731 l 415 694 q 417 790 417 742 q 416 886 418 838 q 392 938 415 919 q 330 956 369 956 q 268 938 288 956 q 244 886 248 919 q 240 815 240 851 q 244 743 240 778 q 263 692 247 715 q 315 661 279 669 l 413 638 q 536 582 491 619 q 600 492 581 546 q 623 367 620 438 q 624 333 624 351 q 623 299 624 316 q 622 265 622 281 q 550 51 615 115 q 330 -14 484 -14 m 272 1167 l 406 1360 l 540 1360 l 398 1167 l 272 1167 z "},"Ṥ":{"ha":658,"x_min":35,"x_max":624,"o":"m 330 -14 q 112 51 177 -14 q 41 265 47 115 q 40 314 40 288 q 42 368 40 341 q 47 417 43 394 l 242 417 q 239 317 240 366 q 242 226 238 267 q 267 174 246 192 q 330 156 288 156 q 390 174 371 156 q 413 226 409 192 q 417 273 416 250 q 417 320 418 297 q 413 367 416 343 q 395 419 410 396 q 347 451 380 443 l 233 481 q 118 534 160 499 q 57 622 76 569 q 35 743 38 674 q 35 798 35 774 q 35 847 35 822 q 69 1008 40 947 q 162 1097 99 1069 q 330 1125 225 1125 q 544 1061 478 1125 q 617 847 611 997 q 618 774 619 817 q 615 694 617 731 l 415 694 q 417 790 417 742 q 416 886 418 838 q 392 938 415 919 q 330 956 369 956 q 268 938 288 956 q 244 886 248 919 q 240 815 240 851 q 244 743 240 778 q 263 692 247 715 q 315 661 279 669 l 413 638 q 536 582 491 619 q 600 492 581 546 q 623 367 620 438 q 624 333 624 351 q 623 299 624 316 q 622 265 622 281 q 550 51 615 115 q 330 -14 484 -14 m 272 1167 l 406 1360 l 540 1360 l 398 1167 l 272 1167 m 259 1417 l 259 1554 l 397 1554 l 397 1417 l 259 1417 z "},"Š":{"ha":658,"x_min":35,"x_max":624,"o":"m 330 -14 q 112 51 177 -14 q 41 265 47 115 q 40 314 40 288 q 42 368 40 341 q 47 417 43 394 l 242 417 q 239 317 240 366 q 242 226 238 267 q 267 174 246 192 q 330 156 288 156 q 390 174 371 156 q 413 226 409 192 q 417 273 416 250 q 417 320 418 297 q 413 367 416 343 q 395 419 410 396 q 347 451 380 443 l 233 481 q 118 534 160 499 q 57 622 76 569 q 35 743 38 674 q 35 798 35 774 q 35 847 35 822 q 69 1008 40 947 q 162 1097 99 1069 q 330 1125 225 1125 q 544 1061 478 1125 q 617 847 611 997 q 618 774 619 817 q 615 694 617 731 l 415 694 q 417 790 417 742 q 416 886 418 838 q 392 938 415 919 q 330 956 369 956 q 268 938 288 956 q 244 886 248 919 q 240 815 240 851 q 244 743 240 778 q 263 692 247 715 q 315 661 279 669 l 413 638 q 536 582 491 619 q 600 492 581 546 q 623 367 620 438 q 624 333 624 351 q 623 299 624 316 q 622 265 622 281 q 550 51 615 115 q 330 -14 484 -14 m 274 1168 l 160 1361 l 280 1361 l 327 1269 l 374 1361 l 494 1361 l 380 1168 l 274 1168 z "},"Ṧ":{"ha":658,"x_min":35,"x_max":624,"o":"m 330 -14 q 112 51 177 -14 q 41 265 47 115 q 40 314 40 288 q 42 368 40 341 q 47 417 43 394 l 242 417 q 239 317 240 366 q 242 226 238 267 q 267 174 246 192 q 330 156 288 156 q 390 174 371 156 q 413 226 409 192 q 417 273 416 250 q 417 320 418 297 q 413 367 416 343 q 395 419 410 396 q 347 451 380 443 l 233 481 q 118 534 160 499 q 57 622 76 569 q 35 743 38 674 q 35 798 35 774 q 35 847 35 822 q 69 1008 40 947 q 162 1097 99 1069 q 330 1125 225 1125 q 544 1061 478 1125 q 617 847 611 997 q 618 774 619 817 q 615 694 617 731 l 415 694 q 417 790 417 742 q 416 886 418 838 q 392 938 415 919 q 330 956 369 956 q 268 938 288 956 q 244 886 248 919 q 240 815 240 851 q 244 743 240 778 q 263 692 247 715 q 315 661 279 669 l 413 638 q 536 582 491 619 q 600 492 581 546 q 623 367 620 438 q 624 333 624 351 q 623 299 624 316 q 622 265 622 281 q 550 51 615 115 q 330 -14 484 -14 m 274 1168 l 160 1361 l 280 1361 l 327 1269 l 374 1361 l 494 1361 l 380 1168 l 274 1168 m 259 1417 l 259 1554 l 397 1554 l 397 1417 l 259 1417 z "},"Ş":{"ha":658,"x_min":35,"x_max":624,"o":"m 330 -14 q 112 51 177 -14 q 41 265 47 115 q 40 314 40 288 q 42 368 40 341 q 47 417 43 394 l 242 417 q 239 317 240 366 q 242 226 238 267 q 267 174 246 192 q 330 156 288 156 q 390 174 371 156 q 413 226 409 192 q 417 273 416 250 q 417 320 418 297 q 413 367 416 343 q 395 419 410 396 q 347 451 380 443 l 233 481 q 118 534 160 499 q 57 622 76 569 q 35 743 38 674 q 35 798 35 774 q 35 847 35 822 q 69 1008 40 947 q 162 1097 99 1069 q 330 1125 225 1125 q 544 1061 478 1125 q 617 847 611 997 q 618 774 619 817 q 615 694 617 731 l 415 694 q 417 790 417 742 q 416 886 418 838 q 392 938 415 919 q 330 956 369 956 q 268 938 288 956 q 244 886 248 919 q 240 815 240 851 q 244 743 240 778 q 263 692 247 715 q 315 661 279 669 l 413 638 q 536 582 491 619 q 600 492 581 546 q 623 367 620 438 q 624 333 624 351 q 623 299 624 316 q 622 265 622 281 q 550 51 615 115 q 330 -14 484 -14 m 165 -218 l 165 -121 l 209 -121 q 271 -103 253 -121 q 284 -46 290 -86 l 276 14 l 381 14 l 390 -46 q 358 -178 402 -137 q 209 -218 315 -218 l 165 -218 z "},"Ə":{"ha":688,"x_min":49,"x_max":639,"o":"m 344 -14 q 125 51 194 -14 q 55 264 57 115 q 54 430 54 351 q 55 617 54 510 l 434 617 q 432 757 433 689 q 428 885 431 826 q 406 938 428 919 q 344 956 383 956 q 281 938 303 956 q 258 885 259 919 q 257 825 257 860 q 257 755 256 790 q 258 694 257 719 l 49 694 q 49 770 49 728 q 49 846 49 813 q 122 1060 53 996 q 344 1125 191 1125 q 568 1060 501 1125 q 637 846 634 996 q 639 713 638 788 q 639 555 639 637 q 639 398 639 474 q 637 263 638 322 q 566 61 635 135 q 344 -14 497 -14 m 344 156 q 406 174 383 156 q 428 225 428 192 q 432 344 431 281 q 434 474 433 407 l 259 474 q 259 387 259 429 q 261 305 260 345 q 263 225 262 265 q 285 174 265 192 q 344 156 306 156 z "},"Ŝ":{"ha":658,"x_min":35,"x_max":624,"o":"m 330 -14 q 112 51 177 -14 q 41 265 47 115 q 40 314 40 288 q 42 368 40 341 q 47 417 43 394 l 242 417 q 239 317 240 366 q 242 226 238 267 q 267 174 246 192 q 330 156 288 156 q 390 174 371 156 q 413 226 409 192 q 417 273 416 250 q 417 320 418 297 q 413 367 416 343 q 395 419 410 396 q 347 451 380 443 l 233 481 q 118 534 160 499 q 57 622 76 569 q 35 743 38 674 q 35 798 35 774 q 35 847 35 822 q 69 1008 40 947 q 162 1097 99 1069 q 330 1125 225 1125 q 544 1061 478 1125 q 617 847 611 997 q 618 774 619 817 q 615 694 617 731 l 415 694 q 417 790 417 742 q 416 886 418 838 q 392 938 415 919 q 330 956 369 956 q 268 938 288 956 q 244 886 248 919 q 240 815 240 851 q 244 743 240 778 q 263 692 247 715 q 315 661 279 669 l 413 638 q 536 582 491 619 q 600 492 581 546 q 623 367 620 438 q 624 333 624 351 q 623 299 624 316 q 622 265 622 281 q 550 51 615 115 q 330 -14 484 -14 m 153 1168 l 267 1361 l 387 1361 l 501 1168 l 367 1168 l 327 1246 l 287 1168 l 153 1168 z "},"Ș":{"ha":658,"x_min":35,"x_max":624,"o":"m 330 -14 q 112 51 177 -14 q 41 265 47 115 q 40 314 40 288 q 42 368 40 341 q 47 417 43 394 l 242 417 q 239 317 240 366 q 242 226 238 267 q 267 174 246 192 q 330 156 288 156 q 390 174 371 156 q 413 226 409 192 q 417 273 416 250 q 417 320 418 297 q 413 367 416 343 q 395 419 410 396 q 347 451 380 443 l 233 481 q 118 534 160 499 q 57 622 76 569 q 35 743 38 674 q 35 798 35 774 q 35 847 35 822 q 69 1008 40 947 q 162 1097 99 1069 q 330 1125 225 1125 q 544 1061 478 1125 q 617 847 611 997 q 618 774 619 817 q 615 694 617 731 l 415 694 q 417 790 417 742 q 416 886 418 838 q 392 938 415 919 q 330 956 369 956 q 268 938 288 956 q 244 886 248 919 q 240 815 240 851 q 244 743 240 778 q 263 692 247 715 q 315 661 279 669 l 413 638 q 536 582 491 619 q 600 492 581 546 q 623 367 620 438 q 624 333 624 351 q 623 299 624 316 q 622 265 622 281 q 550 51 615 115 q 330 -14 484 -14 m 263 -318 l 310 -211 l 240 -211 l 240 -56 l 430 -56 l 430 -193 l 362 -318 l 263 -318 z "},"Ṡ":{"ha":658,"x_min":35,"x_max":624,"o":"m 330 -14 q 112 51 177 -14 q 41 265 47 115 q 40 314 40 288 q 42 368 40 341 q 47 417 43 394 l 242 417 q 239 317 240 366 q 242 226 238 267 q 267 174 246 192 q 330 156 288 156 q 390 174 371 156 q 413 226 409 192 q 417 273 416 250 q 417 320 418 297 q 413 367 416 343 q 395 419 410 396 q 347 451 380 443 l 233 481 q 118 534 160 499 q 57 622 76 569 q 35 743 38 674 q 35 798 35 774 q 35 847 35 822 q 69 1008 40 947 q 162 1097 99 1069 q 330 1125 225 1125 q 544 1061 478 1125 q 617 847 611 997 q 618 774 619 817 q 615 694 617 731 l 415 694 q 417 790 417 742 q 416 886 418 838 q 392 938 415 919 q 330 956 369 956 q 268 938 288 956 q 244 886 248 919 q 240 815 240 851 q 244 743 240 778 q 263 692 247 715 q 315 661 279 669 l 413 638 q 536 582 491 619 q 600 492 581 546 q 623 367 620 438 q 624 333 624 351 q 623 299 624 316 q 622 265 622 281 q 550 51 615 115 q 330 -14 484 -14 m 259 1167 l 259 1304 l 397 1304 l 397 1167 l 259 1167 z "},"Ṣ":{"ha":658,"x_min":35,"x_max":624,"o":"m 330 -14 q 112 51 177 -14 q 41 265 47 115 q 40 314 40 288 q 42 368 40 341 q 47 417 43 394 l 242 417 q 239 317 240 366 q 242 226 238 267 q 267 174 246 192 q 330 156 288 156 q 390 174 371 156 q 413 226 409 192 q 417 273 416 250 q 417 320 418 297 q 413 367 416 343 q 395 419 410 396 q 347 451 380 443 l 233 481 q 118 534 160 499 q 57 622 76 569 q 35 743 38 674 q 35 798 35 774 q 35 847 35 822 q 69 1008 40 947 q 162 1097 99 1069 q 330 1125 225 1125 q 544 1061 478 1125 q 617 847 611 997 q 618 774 619 817 q 615 694 617 731 l 415 694 q 417 790 417 742 q 416 886 418 838 q 392 938 415 919 q 330 956 369 956 q 268 938 288 956 q 244 886 248 919 q 240 815 240 851 q 244 743 240 778 q 263 692 247 715 q 315 661 279 669 l 413 638 q 536 582 491 619 q 600 492 581 546 q 623 367 620 438 q 624 333 624 351 q 623 299 624 316 q 622 265 622 281 q 550 51 615 115 q 330 -14 484 -14 m 259 -193 l 259 -56 l 397 -56 l 397 -193 l 259 -193 z "},"Ṩ":{"ha":658,"x_min":35,"x_max":624,"o":"m 330 -14 q 112 51 177 -14 q 41 265 47 115 q 40 314 40 288 q 42 368 40 341 q 47 417 43 394 l 242 417 q 239 317 240 366 q 242 226 238 267 q 267 174 246 192 q 330 156 288 156 q 390 174 371 156 q 413 226 409 192 q 417 273 416 250 q 417 320 418 297 q 413 367 416 343 q 395 419 410 396 q 347 451 380 443 l 233 481 q 118 534 160 499 q 57 622 76 569 q 35 743 38 674 q 35 798 35 774 q 35 847 35 822 q 69 1008 40 947 q 162 1097 99 1069 q 330 1125 225 1125 q 544 1061 478 1125 q 617 847 611 997 q 618 774 619 817 q 615 694 617 731 l 415 694 q 417 790 417 742 q 416 886 418 838 q 392 938 415 919 q 330 956 369 956 q 268 938 288 956 q 244 886 248 919 q 240 815 240 851 q 244 743 240 778 q 263 692 247 715 q 315 661 279 669 l 413 638 q 536 582 491 619 q 600 492 581 546 q 623 367 620 438 q 624 333 624 351 q 623 299 624 316 q 622 265 622 281 q 550 51 615 115 q 330 -14 484 -14 m 259 -193 l 259 -56 l 397 -56 l 397 -193 l 259 -193 m 259 1167 l 259 1304 l 397 1304 l 397 1167 l 259 1167 z "},"T":{"ha":582,"x_min":8,"x_max":574,"o":"m 187 0 l 187 928 l 8 928 l 8 1111 l 574 1111 l 574 928 l 395 928 l 395 0 l 187 0 z "},"Ŧ":{"ha":582,"x_min":8,"x_max":574,"o":"m 187 0 l 187 928 l 8 928 l 8 1111 l 574 1111 l 574 928 l 395 928 l 395 0 l 187 0 m 99 543 l 485 543 l 485 443 l 99 443 l 99 543 z "},"Ť":{"ha":582,"x_min":8,"x_max":574,"o":"m 187 0 l 187 928 l 8 928 l 8 1111 l 574 1111 l 574 928 l 395 928 l 395 0 l 187 0 m 238 1168 l 124 1361 l 243 1361 l 290 1269 l 338 1361 l 457 1361 l 343 1168 l 238 1168 z "},"Ţ":{"ha":582,"x_min":8,"x_max":574,"o":"m 187 0 l 187 928 l 8 928 l 8 1111 l 574 1111 l 574 928 l 395 928 l 395 0 l 187 0 m 128 -218 l 128 -121 l 172 -121 q 234 -103 216 -121 q 247 -46 253 -86 l 239 14 l 344 14 l 353 -46 q 322 -178 365 -137 q 172 -218 278 -218 l 128 -218 z "},"Ț":{"ha":582,"x_min":8,"x_max":574,"o":"m 187 0 l 187 928 l 8 928 l 8 1111 l 574 1111 l 574 928 l 395 928 l 395 0 l 187 0 m 226 -318 l 274 -211 l 203 -211 l 203 -56 l 393 -56 l 393 -193 l 325 -318 l 226 -318 z "},"Ṭ":{"ha":582,"x_min":8,"x_max":574,"o":"m 187 0 l 187 928 l 8 928 l 8 1111 l 574 1111 l 574 928 l 395 928 l 395 0 l 187 0 m 222 -193 l 222 -56 l 360 -56 l 360 -193 l 222 -193 z "},"Þ":{"ha":651,"x_min":56,"x_max":624,"o":"m 56 0 l 56 1111 l 264 1111 l 264 944 l 324 944 q 548 882 479 944 q 622 674 617 819 q 624 565 624 615 q 622 457 624 515 q 548 249 617 313 q 324 186 479 186 l 264 186 l 264 0 l 56 0 m 264 369 l 324 369 q 390 390 367 369 q 414 446 412 410 q 417 523 416 480 q 417 608 417 565 q 414 685 416 651 q 390 741 412 722 q 324 761 367 761 l 264 761 l 264 369 z "},"Ṯ":{"ha":582,"x_min":8,"x_max":574,"o":"m 187 0 l 187 928 l 8 928 l 8 1111 l 574 1111 l 574 928 l 395 928 l 395 0 l 187 0 m 44 -76 l 511 -76 l 511 -169 l 44 -169 l 44 -76 z "},"U":{"ha":676,"x_min":43,"x_max":634,"o":"m 339 -14 q 115 51 183 -14 q 46 265 48 115 q 43 689 43 475 q 46 1111 43 902 l 254 1111 q 251 820 251 972 q 252 517 251 669 q 254 226 253 366 q 276 174 254 192 q 339 156 299 156 q 401 174 380 156 q 422 226 422 192 q 425 517 424 366 q 425 820 426 669 q 422 1111 425 972 l 631 1111 q 634 689 634 902 q 631 265 634 475 q 561 51 628 115 q 339 -14 494 -14 z "},"Ú":{"ha":676,"x_min":43,"x_max":634,"o":"m 339 -14 q 115 51 183 -14 q 46 265 48 115 q 43 689 43 475 q 46 1111 43 902 l 254 1111 q 251 820 251 972 q 252 517 251 669 q 254 226 253 366 q 276 174 254 192 q 339 156 299 156 q 401 174 380 156 q 422 226 422 192 q 425 517 424 366 q 425 820 426 669 q 422 1111 425 972 l 631 1111 q 634 689 634 902 q 631 265 634 475 q 561 51 628 115 q 339 -14 494 -14 m 282 1167 l 417 1360 l 550 1360 l 408 1167 l 282 1167 z "},"Ŭ":{"ha":676,"x_min":43,"x_max":634,"o":"m 339 -14 q 115 51 183 -14 q 46 265 48 115 q 43 689 43 475 q 46 1111 43 902 l 254 1111 q 251 820 251 972 q 252 517 251 669 q 254 226 253 366 q 276 174 254 192 q 339 156 299 156 q 401 174 380 156 q 422 226 422 192 q 425 517 424 366 q 425 820 426 669 q 422 1111 425 972 l 631 1111 q 634 689 634 902 q 631 265 634 475 q 561 51 628 115 q 339 -14 494 -14 m 339 1160 q 184 1207 233 1160 q 129 1365 135 1255 l 253 1365 q 273 1288 253 1311 q 339 1264 293 1264 q 405 1288 385 1264 q 425 1365 425 1311 l 549 1365 q 493 1207 542 1255 q 339 1160 444 1160 z "},"Ǔ":{"ha":676,"x_min":43,"x_max":634,"o":"m 339 -14 q 115 51 183 -14 q 46 265 48 115 q 43 689 43 475 q 46 1111 43 902 l 254 1111 q 251 820 251 972 q 252 517 251 669 q 254 226 253 366 q 276 174 254 192 q 339 156 299 156 q 401 174 380 156 q 422 226 422 192 q 425 517 424 366 q 425 820 426 669 q 422 1111 425 972 l 631 1111 q 634 689 634 902 q 631 265 634 475 q 561 51 628 115 q 339 -14 494 -14 m 285 1168 l 171 1361 l 290 1361 l 338 1269 l 385 1361 l 504 1361 l 390 1168 l 285 1168 z "},"Û":{"ha":676,"x_min":43,"x_max":634,"o":"m 339 -14 q 115 51 183 -14 q 46 265 48 115 q 43 689 43 475 q 46 1111 43 902 l 254 1111 q 251 820 251 972 q 252 517 251 669 q 254 226 253 366 q 276 174 254 192 q 339 156 299 156 q 401 174 380 156 q 422 226 422 192 q 425 517 424 366 q 425 820 426 669 q 422 1111 425 972 l 631 1111 q 634 689 634 902 q 631 265 634 475 q 561 51 628 115 q 339 -14 494 -14 m 164 1168 l 278 1361 l 397 1361 l 511 1168 l 378 1168 l 338 1246 l 297 1168 l 164 1168 z "},"Ȕ":{"ha":676,"x_min":43,"x_max":634,"o":"m 339 -14 q 115 51 183 -14 q 46 265 48 115 q 43 689 43 475 q 46 1111 43 902 l 254 1111 q 251 820 251 972 q 252 517 251 669 q 254 226 253 366 q 276 174 254 192 q 339 156 299 156 q 401 174 380 156 q 422 226 422 192 q 425 517 424 366 q 425 820 426 669 q 422 1111 425 972 l 631 1111 q 634 689 634 902 q 631 265 634 475 q 561 51 628 115 q 339 -14 494 -14 m 369 1167 l 242 1360 l 375 1360 l 503 1167 l 369 1167 m 175 1167 l 47 1360 l 181 1360 l 308 1167 l 175 1167 z "},"Ü":{"ha":676,"x_min":43,"x_max":634,"o":"m 339 -14 q 115 51 183 -14 q 46 265 48 115 q 43 689 43 475 q 46 1111 43 902 l 254 1111 q 251 820 251 972 q 252 517 251 669 q 254 226 253 366 q 276 174 254 192 q 339 156 299 156 q 401 174 380 156 q 422 226 422 192 q 425 517 424 366 q 425 820 426 669 q 422 1111 425 972 l 631 1111 q 634 689 634 902 q 631 265 634 475 q 561 51 628 115 q 339 -14 494 -14 m 376 1188 l 376 1325 l 514 1325 l 514 1188 l 376 1188 m 164 1188 l 164 1325 l 301 1325 l 301 1188 l 164 1188 z "},"Ǘ":{"ha":676,"x_min":43,"x_max":634,"o":"m 339 -14 q 115 51 183 -14 q 46 265 48 115 q 43 689 43 475 q 46 1111 43 902 l 254 1111 q 251 820 251 972 q 252 517 251 669 q 254 226 253 366 q 276 174 254 192 q 339 156 299 156 q 401 174 380 156 q 422 226 422 192 q 425 517 424 366 q 425 820 426 669 q 422 1111 425 972 l 631 1111 q 634 689 634 902 q 631 265 634 475 q 561 51 628 115 q 339 -14 494 -14 m 376 1188 l 376 1325 l 514 1325 l 514 1188 l 376 1188 m 164 1188 l 164 1325 l 301 1325 l 301 1188 l 164 1188 m 282 1361 l 417 1554 l 550 1554 l 408 1361 l 282 1361 z "},"Ǚ":{"ha":676,"x_min":43,"x_max":634,"o":"m 339 -14 q 115 51 183 -14 q 46 265 48 115 q 43 689 43 475 q 46 1111 43 902 l 254 1111 q 251 820 251 972 q 252 517 251 669 q 254 226 253 366 q 276 174 254 192 q 339 156 299 156 q 401 174 380 156 q 422 226 422 192 q 425 517 424 366 q 425 820 426 669 q 422 1111 425 972 l 631 1111 q 634 689 634 902 q 631 265 634 475 q 561 51 628 115 q 339 -14 494 -14 m 376 1188 l 376 1325 l 514 1325 l 514 1188 l 376 1188 m 164 1188 l 164 1325 l 301 1325 l 301 1188 l 164 1188 m 285 1363 l 171 1556 l 290 1556 l 338 1464 l 385 1556 l 504 1556 l 390 1363 l 285 1363 z "},"Ǜ":{"ha":676,"x_min":43,"x_max":634,"o":"m 339 -14 q 115 51 183 -14 q 46 265 48 115 q 43 689 43 475 q 46 1111 43 902 l 254 1111 q 251 820 251 972 q 252 517 251 669 q 254 226 253 366 q 276 174 254 192 q 339 156 299 156 q 401 174 380 156 q 422 226 422 192 q 425 517 424 366 q 425 820 426 669 q 422 1111 425 972 l 631 1111 q 634 689 634 902 q 631 265 634 475 q 561 51 628 115 q 339 -14 494 -14 m 376 1188 l 376 1325 l 514 1325 l 514 1188 l 376 1188 m 164 1188 l 164 1325 l 301 1325 l 301 1188 l 164 1188 m 254 1361 l 126 1554 l 260 1554 l 381 1361 l 254 1361 z "},"Ǖ":{"ha":676,"x_min":43,"x_max":634,"o":"m 339 -14 q 115 51 183 -14 q 46 265 48 115 q 43 689 43 475 q 46 1111 43 902 l 254 1111 q 251 820 251 972 q 252 517 251 669 q 254 226 253 366 q 276 174 254 192 q 339 156 299 156 q 401 174 380 156 q 422 226 422 192 q 425 517 424 366 q 425 820 426 669 q 422 1111 425 972 l 631 1111 q 634 689 634 902 q 631 265 634 475 q 561 51 628 115 q 339 -14 494 -14 m 376 1188 l 376 1325 l 514 1325 l 514 1188 l 376 1188 m 164 1188 l 164 1325 l 301 1325 l 301 1188 l 164 1188 m 102 1440 l 569 1440 l 569 1347 l 102 1347 l 102 1440 z "},"Ụ":{"ha":676,"x_min":43,"x_max":634,"o":"m 339 -14 q 115 51 183 -14 q 46 265 48 115 q 43 689 43 475 q 46 1111 43 902 l 254 1111 q 251 820 251 972 q 252 517 251 669 q 254 226 253 366 q 276 174 254 192 q 339 156 299 156 q 401 174 380 156 q 422 226 422 192 q 425 517 424 366 q 425 820 426 669 q 422 1111 425 972 l 631 1111 q 634 689 634 902 q 631 265 634 475 q 561 51 628 115 q 339 -14 494 -14 m 269 -193 l 269 -56 l 407 -56 l 407 -193 l 269 -193 z "},"Ù":{"ha":676,"x_min":43,"x_max":634,"o":"m 339 -14 q 115 51 183 -14 q 46 265 48 115 q 43 689 43 475 q 46 1111 43 902 l 254 1111 q 251 820 251 972 q 252 517 251 669 q 254 226 253 366 q 276 174 254 192 q 339 156 299 156 q 401 174 380 156 q 422 226 422 192 q 425 517 424 366 q 425 820 426 669 q 422 1111 425 972 l 631 1111 q 634 689 634 902 q 631 265 634 475 q 561 51 628 115 q 339 -14 494 -14 m 254 1167 l 126 1360 l 260 1360 l 381 1167 l 254 1167 z "},"Ủ":{"ha":676,"x_min":43,"x_max":634,"o":"m 339 -14 q 115 51 183 -14 q 46 265 48 115 q 43 689 43 475 q 46 1111 43 902 l 254 1111 q 251 820 251 972 q 252 517 251 669 q 254 226 253 366 q 276 174 254 192 q 339 156 299 156 q 401 174 380 156 q 422 226 422 192 q 425 517 424 366 q 425 820 426 669 q 422 1111 425 972 l 631 1111 q 634 689 634 902 q 631 265 634 475 q 561 51 628 115 q 339 -14 494 -14 m 349 1158 l 358 1199 q 354 1258 369 1243 q 283 1274 339 1274 l 222 1274 l 222 1371 l 283 1371 q 437 1330 388 1371 q 464 1199 486 1289 l 454 1158 l 349 1158 z "},"Ư":{"ha":676,"x_min":43,"x_max":713,"o":"m 339 -14 q 115 51 183 -14 q 46 265 48 115 q 43 689 43 475 q 46 1111 43 902 l 254 1111 q 251 820 251 972 q 252 517 251 669 q 254 226 253 366 q 276 174 254 192 q 339 156 299 156 q 401 174 380 156 q 422 226 422 192 q 425 517 424 366 q 425 820 426 669 q 422 1111 425 972 l 631 1111 q 634 689 634 902 q 631 265 634 475 q 561 51 628 115 q 339 -14 494 -14 m 522 1010 q 509 1010 517 1010 q 489 1013 501 1010 l 489 1111 q 511 1111 505 1111 q 522 1111 517 1111 q 578 1137 560 1111 q 600 1222 597 1163 q 601 1264 601 1235 q 601 1320 601 1292 q 600 1361 601 1348 l 711 1361 q 712 1320 712 1348 q 712 1264 713 1292 q 711 1222 712 1235 q 659 1061 705 1113 q 522 1010 613 1010 z "},"Ứ":{"ha":676,"x_min":43,"x_max":713,"o":"m 339 -14 q 115 51 183 -14 q 46 265 48 115 q 43 689 43 475 q 46 1111 43 902 l 254 1111 q 251 820 251 972 q 252 517 251 669 q 254 226 253 366 q 276 174 254 192 q 339 156 299 156 q 401 174 380 156 q 422 226 422 192 q 425 517 424 366 q 425 820 426 669 q 422 1111 425 972 l 631 1111 q 634 689 634 902 q 631 265 634 475 q 561 51 628 115 q 339 -14 494 -14 m 522 1010 q 509 1010 517 1010 q 489 1013 501 1010 l 489 1111 q 511 1111 505 1111 q 522 1111 517 1111 q 578 1137 560 1111 q 600 1222 597 1163 q 601 1264 601 1235 q 601 1320 601 1292 q 600 1361 601 1348 l 711 1361 q 712 1320 712 1348 q 712 1264 713 1292 q 711 1222 712 1235 q 659 1061 705 1113 q 522 1010 613 1010 m 282 1167 l 417 1360 l 550 1360 l 408 1167 l 282 1167 z "},"Ự":{"ha":676,"x_min":43,"x_max":713,"o":"m 339 -14 q 115 51 183 -14 q 46 265 48 115 q 43 689 43 475 q 46 1111 43 902 l 254 1111 q 251 820 251 972 q 252 517 251 669 q 254 226 253 366 q 276 174 254 192 q 339 156 299 156 q 401 174 380 156 q 422 226 422 192 q 425 517 424 366 q 425 820 426 669 q 422 1111 425 972 l 631 1111 q 634 689 634 902 q 631 265 634 475 q 561 51 628 115 q 339 -14 494 -14 m 522 1010 q 509 1010 517 1010 q 489 1013 501 1010 l 489 1111 q 511 1111 505 1111 q 522 1111 517 1111 q 578 1137 560 1111 q 600 1222 597 1163 q 601 1264 601 1235 q 601 1320 601 1292 q 600 1361 601 1348 l 711 1361 q 712 1320 712 1348 q 712 1264 713 1292 q 711 1222 712 1235 q 659 1061 705 1113 q 522 1010 613 1010 m 269 -193 l 269 -56 l 407 -56 l 407 -193 l 269 -193 z "},"Ừ":{"ha":676,"x_min":43,"x_max":713,"o":"m 339 -14 q 115 51 183 -14 q 46 265 48 115 q 43 689 43 475 q 46 1111 43 902 l 254 1111 q 251 820 251 972 q 252 517 251 669 q 254 226 253 366 q 276 174 254 192 q 339 156 299 156 q 401 174 380 156 q 422 226 422 192 q 425 517 424 366 q 425 820 426 669 q 422 1111 425 972 l 631 1111 q 634 689 634 902 q 631 265 634 475 q 561 51 628 115 q 339 -14 494 -14 m 522 1010 q 509 1010 517 1010 q 489 1013 501 1010 l 489 1111 q 511 1111 505 1111 q 522 1111 517 1111 q 578 1137 560 1111 q 600 1222 597 1163 q 601 1264 601 1235 q 601 1320 601 1292 q 600 1361 601 1348 l 711 1361 q 712 1320 712 1348 q 712 1264 713 1292 q 711 1222 712 1235 q 659 1061 705 1113 q 522 1010 613 1010 m 254 1167 l 126 1360 l 260 1360 l 381 1167 l 254 1167 z "},"Ử":{"ha":676,"x_min":43,"x_max":713,"o":"m 339 -14 q 115 51 183 -14 q 46 265 48 115 q 43 689 43 475 q 46 1111 43 902 l 254 1111 q 251 820 251 972 q 252 517 251 669 q 254 226 253 366 q 276 174 254 192 q 339 156 299 156 q 401 174 380 156 q 422 226 422 192 q 425 517 424 366 q 425 820 426 669 q 422 1111 425 972 l 631 1111 q 634 689 634 902 q 631 265 634 475 q 561 51 628 115 q 339 -14 494 -14 m 522 1010 q 509 1010 517 1010 q 489 1013 501 1010 l 489 1111 q 511 1111 505 1111 q 522 1111 517 1111 q 578 1137 560 1111 q 600 1222 597 1163 q 601 1264 601 1235 q 601 1320 601 1292 q 600 1361 601 1348 l 711 1361 q 712 1320 712 1348 q 712 1264 713 1292 q 711 1222 712 1235 q 659 1061 705 1113 q 522 1010 613 1010 m 349 1158 l 358 1199 q 354 1258 369 1243 q 283 1274 339 1274 l 222 1274 l 222 1371 l 283 1371 q 437 1330 388 1371 q 464 1199 486 1289 l 454 1158 l 349 1158 z "},"Ữ":{"ha":676,"x_min":43,"x_max":713,"o":"m 339 -14 q 115 51 183 -14 q 46 265 48 115 q 43 689 43 475 q 46 1111 43 902 l 254 1111 q 251 820 251 972 q 252 517 251 669 q 254 226 253 366 q 276 174 254 192 q 339 156 299 156 q 401 174 380 156 q 422 226 422 192 q 425 517 424 366 q 425 820 426 669 q 422 1111 425 972 l 631 1111 q 634 689 634 902 q 631 265 634 475 q 561 51 628 115 q 339 -14 494 -14 m 522 1010 q 509 1010 517 1010 q 489 1013 501 1010 l 489 1111 q 511 1111 505 1111 q 522 1111 517 1111 q 578 1137 560 1111 q 600 1222 597 1163 q 601 1264 601 1235 q 601 1320 601 1292 q 600 1361 601 1348 l 711 1361 q 712 1320 712 1348 q 712 1264 713 1292 q 711 1222 712 1235 q 659 1061 705 1113 q 522 1010 613 1010 m 417 1360 l 494 1360 q 463 1244 490 1281 q 385 1208 436 1208 q 338 1218 356 1208 q 308 1241 320 1228 q 283 1264 296 1254 q 251 1274 271 1274 q 222 1259 228 1274 q 214 1217 216 1244 l 136 1217 q 170 1341 142 1304 q 249 1378 198 1378 q 297 1369 278 1378 q 329 1346 316 1359 q 355 1323 342 1333 q 385 1313 367 1313 q 409 1325 403 1313 q 417 1360 415 1337 z "},"Ű":{"ha":676,"x_min":43,"x_max":676,"o":"m 339 -14 q 115 51 183 -14 q 46 265 48 115 q 43 689 43 475 q 46 1111 43 902 l 254 1111 q 251 820 251 972 q 252 517 251 669 q 254 226 253 366 q 276 174 254 192 q 339 156 299 156 q 401 174 380 156 q 422 226 422 192 q 425 517 424 366 q 425 820 426 669 q 422 1111 425 972 l 631 1111 q 634 689 634 902 q 631 265 634 475 q 561 51 628 115 q 339 -14 494 -14 m 165 1168 l 326 1361 l 468 1361 l 307 1168 l 165 1168 m 374 1168 l 535 1361 l 676 1361 l 515 1168 l 374 1168 z "},"Ȗ":{"ha":676,"x_min":43,"x_max":634,"o":"m 339 1372 q 493 1325 444 1372 q 549 1167 542 1277 l 425 1167 q 405 1244 425 1221 q 339 1268 385 1268 q 273 1244 293 1268 q 253 1167 253 1221 l 129 1167 q 184 1325 135 1277 q 339 1372 233 1372 m 339 -14 q 115 51 183 -14 q 46 265 48 115 q 43 689 43 475 q 46 1111 43 902 l 254 1111 q 251 820 251 972 q 252 517 251 669 q 254 226 253 366 q 276 174 254 192 q 339 156 299 156 q 401 174 380 156 q 422 226 422 192 q 425 517 424 366 q 425 820 426 669 q 422 1111 425 972 l 631 1111 q 634 689 634 902 q 631 265 634 475 q 561 51 628 115 q 339 -14 494 -14 z "},"Ū":{"ha":676,"x_min":43,"x_max":634,"o":"m 339 -14 q 115 51 183 -14 q 46 265 48 115 q 43 689 43 475 q 46 1111 43 902 l 254 1111 q 251 820 251 972 q 252 517 251 669 q 254 226 253 366 q 276 174 254 192 q 339 156 299 156 q 401 174 380 156 q 422 226 422 192 q 425 517 424 366 q 425 820 426 669 q 422 1111 425 972 l 631 1111 q 634 689 634 902 q 631 265 634 475 q 561 51 628 115 q 339 -14 494 -14 m 102 1246 l 569 1246 l 569 1153 l 102 1153 l 102 1246 z "},"Ṻ":{"ha":676,"x_min":43,"x_max":634,"o":"m 339 -14 q 115 51 183 -14 q 46 265 48 115 q 43 689 43 475 q 46 1111 43 902 l 254 1111 q 251 820 251 972 q 252 517 251 669 q 254 226 253 366 q 276 174 254 192 q 339 156 299 156 q 401 174 380 156 q 422 226 422 192 q 425 517 424 366 q 425 820 426 669 q 422 1111 425 972 l 631 1111 q 634 689 634 902 q 631 265 634 475 q 561 51 628 115 q 339 -14 494 -14 m 102 1246 l 569 1246 l 569 1153 l 102 1153 l 102 1246 m 376 1343 l 376 1481 l 514 1481 l 514 1343 l 376 1343 m 164 1343 l 164 1481 l 301 1481 l 301 1343 l 164 1343 z "},"Ų":{"ha":676,"x_min":43,"x_max":634,"o":"m 339 -14 q 115 51 183 -14 q 46 265 48 115 q 43 689 43 475 q 46 1111 43 902 l 254 1111 q 251 820 251 972 q 252 517 251 669 q 254 226 253 366 q 276 174 254 192 q 339 156 299 156 q 401 174 380 156 q 422 226 422 192 q 425 517 424 366 q 425 820 426 669 q 422 1111 425 972 l 631 1111 q 634 689 634 902 q 631 265 634 475 q 561 51 628 115 q 339 -14 494 -14 m 583 -228 l 539 -228 q 390 -187 434 -228 q 358 -56 346 -147 l 367 4 l 472 4 l 464 -56 q 477 -113 459 -96 q 539 -131 495 -131 l 583 -131 l 583 -228 z "},"Ů":{"ha":676,"x_min":43,"x_max":634,"o":"m 339 -14 q 115 51 183 -14 q 46 265 48 115 q 43 689 43 475 q 46 1111 43 902 l 254 1111 q 251 820 251 972 q 252 517 251 669 q 254 226 253 366 q 276 174 254 192 q 339 156 299 156 q 401 174 380 156 q 422 226 422 192 q 425 517 424 366 q 425 820 426 669 q 422 1111 425 972 l 631 1111 q 634 689 634 902 q 631 265 634 475 q 561 51 628 115 q 339 -14 494 -14 m 339 1160 q 234 1203 278 1160 q 190 1308 190 1247 q 234 1414 190 1370 q 339 1457 278 1457 q 444 1414 401 1457 q 488 1308 488 1370 q 444 1203 488 1247 q 339 1160 401 1160 m 339 1267 q 369 1279 357 1267 q 381 1308 381 1291 q 369 1338 381 1326 q 339 1350 357 1350 q 309 1338 322 1350 q 297 1308 297 1326 q 309 1279 297 1291 q 339 1267 322 1267 z "},"Ũ":{"ha":676,"x_min":43,"x_max":634,"o":"m 339 -14 q 115 51 183 -14 q 46 265 48 115 q 43 689 43 475 q 46 1111 43 902 l 254 1111 q 251 820 251 972 q 252 517 251 669 q 254 226 253 366 q 276 174 254 192 q 339 156 299 156 q 401 174 380 156 q 422 226 422 192 q 425 517 424 366 q 425 820 426 669 q 422 1111 425 972 l 631 1111 q 634 689 634 902 q 631 265 634 475 q 561 51 628 115 q 339 -14 494 -14 m 440 1317 l 518 1317 q 487 1200 514 1237 q 409 1164 460 1164 q 361 1174 379 1164 q 332 1197 344 1184 q 307 1220 319 1210 q 274 1231 294 1231 q 246 1215 252 1231 q 238 1174 240 1200 l 160 1174 q 193 1298 165 1260 q 272 1335 222 1335 q 321 1325 302 1335 q 352 1302 340 1315 q 378 1279 365 1289 q 409 1269 391 1269 q 433 1281 427 1269 q 440 1317 439 1293 z "},"Ṹ":{"ha":676,"x_min":43,"x_max":634,"o":"m 339 -14 q 115 51 183 -14 q 46 265 48 115 q 43 689 43 475 q 46 1111 43 902 l 254 1111 q 251 820 251 972 q 252 517 251 669 q 254 226 253 366 q 276 174 254 192 q 339 156 299 156 q 401 174 380 156 q 422 226 422 192 q 425 517 424 366 q 425 820 426 669 q 422 1111 425 972 l 631 1111 q 634 689 634 902 q 631 265 634 475 q 561 51 628 115 q 339 -14 494 -14 m 440 1317 l 518 1317 q 487 1200 514 1237 q 409 1164 460 1164 q 361 1174 379 1164 q 332 1197 344 1184 q 307 1220 319 1210 q 274 1231 294 1231 q 246 1215 252 1231 q 238 1174 240 1200 l 160 1174 q 193 1298 165 1260 q 272 1335 222 1335 q 321 1325 302 1335 q 352 1302 340 1315 q 378 1279 365 1289 q 409 1269 391 1269 q 433 1281 427 1269 q 440 1317 439 1293 m 282 1396 l 417 1589 l 550 1589 l 408 1396 l 282 1396 z "},"V":{"ha":686,"x_min":14,"x_max":672,"o":"m 175 0 l 14 1111 l 229 1111 l 311 554 l 324 183 l 363 183 l 375 554 l 457 1111 l 672 1111 l 511 0 l 175 0 z "},"W":{"ha":1111,"x_min":24,"x_max":1088,"o":"m 129 0 l 24 1111 l 233 1111 l 269 603 l 290 183 l 328 183 l 325 603 l 422 1104 l 689 1104 l 786 603 l 783 183 l 821 183 l 842 603 l 878 1111 l 1088 1111 l 982 0 l 642 0 l 590 310 l 574 928 l 538 928 l 521 310 l 469 0 l 129 0 z "},"Ẃ":{"ha":1111,"x_min":24,"x_max":1088,"o":"m 129 0 l 24 1111 l 233 1111 l 269 603 l 290 183 l 328 183 l 325 603 l 422 1104 l 689 1104 l 786 603 l 783 183 l 821 183 l 842 603 l 878 1111 l 1088 1111 l 982 0 l 642 0 l 590 310 l 574 928 l 538 928 l 521 310 l 469 0 l 129 0 m 499 1167 l 633 1360 l 767 1360 l 625 1167 l 499 1167 z "},"Ŵ":{"ha":1111,"x_min":24,"x_max":1088,"o":"m 129 0 l 24 1111 l 233 1111 l 269 603 l 290 183 l 328 183 l 325 603 l 422 1104 l 689 1104 l 786 603 l 783 183 l 821 183 l 842 603 l 878 1111 l 1088 1111 l 982 0 l 642 0 l 590 310 l 574 928 l 538 928 l 521 310 l 469 0 l 129 0 m 381 1168 l 494 1361 l 614 1361 l 728 1168 l 594 1168 l 554 1246 l 514 1168 l 381 1168 z "},"Ẅ":{"ha":1111,"x_min":24,"x_max":1088,"o":"m 129 0 l 24 1111 l 233 1111 l 269 603 l 290 183 l 328 183 l 325 603 l 422 1104 l 689 1104 l 786 603 l 783 183 l 821 183 l 842 603 l 878 1111 l 1088 1111 l 982 0 l 642 0 l 590 310 l 574 928 l 538 928 l 521 310 l 469 0 l 129 0 m 593 1188 l 593 1325 l 731 1325 l 731 1188 l 593 1188 m 381 1188 l 381 1325 l 518 1325 l 518 1188 l 381 1188 z "},"Ẁ":{"ha":1111,"x_min":24,"x_max":1088,"o":"m 129 0 l 24 1111 l 233 1111 l 269 603 l 290 183 l 328 183 l 325 603 l 422 1104 l 689 1104 l 786 603 l 783 183 l 821 183 l 842 603 l 878 1111 l 1088 1111 l 982 0 l 642 0 l 590 310 l 574 928 l 538 928 l 521 310 l 469 0 l 129 0 m 471 1167 l 343 1360 l 476 1360 l 597 1167 l 471 1167 z "},"X":{"ha":654,"x_min":16,"x_max":638,"o":"m 16 0 l 190 578 l 20 1111 l 224 1111 l 297 851 l 315 661 l 342 661 l 360 851 l 430 1111 l 634 1111 l 473 571 l 638 0 l 434 0 l 360 274 l 342 478 l 315 478 l 297 274 l 220 0 l 16 0 z "},"Y":{"ha":646,"x_min":10,"x_max":635,"o":"m 219 0 l 219 264 l 219 265 l 10 1111 l 223 1111 l 283 842 l 303 515 l 342 515 l 363 842 l 423 1111 l 635 1111 l 427 265 l 427 264 l 427 0 l 219 0 z "},"Ý":{"ha":646,"x_min":10,"x_max":635,"o":"m 219 0 l 219 264 l 219 265 l 10 1111 l 223 1111 l 283 842 l 303 515 l 342 515 l 363 842 l 423 1111 l 635 1111 l 427 265 l 427 264 l 427 0 l 219 0 m 259 1167 l 394 1360 l 527 1360 l 385 1167 l 259 1167 z "},"Ŷ":{"ha":646,"x_min":10,"x_max":635,"o":"m 219 0 l 219 264 l 219 265 l 10 1111 l 223 1111 l 283 842 l 303 515 l 342 515 l 363 842 l 423 1111 l 635 1111 l 427 265 l 427 264 l 427 0 l 219 0 m 141 1168 l 255 1361 l 374 1361 l 488 1168 l 355 1168 l 315 1246 l 274 1168 l 141 1168 z "},"Ÿ":{"ha":646,"x_min":10,"x_max":635,"o":"m 219 0 l 219 264 l 219 265 l 10 1111 l 223 1111 l 283 842 l 303 515 l 342 515 l 363 842 l 423 1111 l 635 1111 l 427 265 l 427 264 l 427 0 l 219 0 m 353 1188 l 353 1325 l 491 1325 l 491 1188 l 353 1188 m 141 1188 l 141 1325 l 278 1325 l 278 1188 l 141 1188 z "},"Ẏ":{"ha":646,"x_min":10,"x_max":635,"o":"m 219 0 l 219 264 l 219 265 l 10 1111 l 223 1111 l 283 842 l 303 515 l 342 515 l 363 842 l 423 1111 l 635 1111 l 427 265 l 427 264 l 427 0 l 219 0 m 247 1167 l 247 1304 l 384 1304 l 384 1167 l 247 1167 z "},"Ỵ":{"ha":646,"x_min":10,"x_max":635,"o":"m 219 0 l 219 264 l 219 265 l 10 1111 l 223 1111 l 283 842 l 303 515 l 342 515 l 363 842 l 423 1111 l 635 1111 l 427 265 l 427 264 l 427 0 l 219 0 m 255 -193 l 255 -56 l 392 -56 l 392 -193 l 255 -193 z "},"Ỳ":{"ha":646,"x_min":10,"x_max":635,"o":"m 219 0 l 219 264 l 219 265 l 10 1111 l 223 1111 l 283 842 l 303 515 l 342 515 l 363 842 l 423 1111 l 635 1111 l 427 265 l 427 264 l 427 0 l 219 0 m 231 1167 l 103 1360 l 237 1360 l 358 1167 l 231 1167 z "},"Ỷ":{"ha":646,"x_min":10,"x_max":635,"o":"m 219 0 l 219 264 l 219 265 l 10 1111 l 223 1111 l 283 842 l 303 515 l 342 515 l 363 842 l 423 1111 l 635 1111 l 427 265 l 427 264 l 427 0 l 219 0 m 331 1158 l 340 1199 q 336 1258 351 1243 q 265 1274 321 1274 l 203 1274 l 203 1371 l 265 1371 q 419 1330 369 1371 q 446 1199 468 1289 l 436 1158 l 331 1158 z "},"Ȳ":{"ha":646,"x_min":10,"x_max":635,"o":"m 219 0 l 219 264 l 219 265 l 10 1111 l 223 1111 l 283 842 l 303 515 l 342 515 l 363 842 l 423 1111 l 635 1111 l 427 265 l 427 264 l 427 0 l 219 0 m 79 1246 l 546 1246 l 546 1153 l 79 1153 l 79 1246 z "},"Ỹ":{"ha":646,"x_min":10,"x_max":635,"o":"m 219 0 l 219 264 l 219 265 l 10 1111 l 223 1111 l 283 842 l 303 515 l 342 515 l 363 842 l 423 1111 l 635 1111 l 427 265 l 427 264 l 427 0 l 219 0 m 417 1317 l 495 1317 q 464 1200 491 1237 q 386 1164 437 1164 q 339 1174 356 1164 q 309 1197 321 1184 q 284 1220 297 1210 q 251 1231 272 1231 q 223 1215 229 1231 q 215 1174 217 1200 l 137 1174 q 170 1298 142 1260 q 249 1335 199 1335 q 298 1325 279 1335 q 330 1302 317 1315 q 355 1279 342 1289 q 386 1269 368 1269 q 410 1281 404 1269 q 417 1317 416 1293 z "},"Z":{"ha":581,"x_min":24,"x_max":556,"o":"m 24 0 l 24 174 l 334 928 l 41 928 l 41 1111 l 556 1111 l 556 933 l 233 183 l 535 183 l 535 0 l 24 0 z "},"Ź":{"ha":581,"x_min":24,"x_max":556,"o":"m 24 0 l 24 174 l 334 928 l 41 928 l 41 1111 l 556 1111 l 556 933 l 233 183 l 535 183 l 535 0 l 24 0 m 230 1167 l 365 1360 l 498 1360 l 356 1167 l 230 1167 z "},"Ž":{"ha":581,"x_min":24,"x_max":556,"o":"m 24 0 l 24 174 l 334 928 l 41 928 l 41 1111 l 556 1111 l 556 933 l 233 183 l 535 183 l 535 0 l 24 0 m 233 1168 l 119 1361 l 238 1361 l 285 1269 l 333 1361 l 452 1361 l 338 1168 l 233 1168 z "},"Ż":{"ha":581,"x_min":24,"x_max":556,"o":"m 24 0 l 24 174 l 334 928 l 41 928 l 41 1111 l 556 1111 l 556 933 l 233 183 l 535 183 l 535 0 l 24 0 m 217 1167 l 217 1304 l 355 1304 l 355 1167 l 217 1167 z "},"Ẓ":{"ha":581,"x_min":24,"x_max":556,"o":"m 24 0 l 24 174 l 334 928 l 41 928 l 41 1111 l 556 1111 l 556 933 l 233 183 l 535 183 l 535 0 l 24 0 m 217 -193 l 217 -56 l 355 -56 l 355 -193 l 217 -193 z "},"a":{"ha":660,"x_min":38,"x_max":606,"o":"m 227 -11 q 91 34 135 -11 q 38 189 48 78 q 38 219 38 201 q 38 250 38 238 q 65 347 43 307 q 133 417 88 387 q 253 474 178 447 q 326 497 291 488 q 399 515 361 506 l 399 622 q 386 674 399 656 q 331 692 372 692 q 284 677 297 692 q 269 629 271 663 q 268 596 268 619 q 268 549 267 573 q 269 513 268 525 l 66 513 q 65 551 65 520 q 65 606 64 583 q 94 743 68 690 q 179 822 121 797 q 337 847 238 847 q 499 819 440 847 q 582 730 558 791 q 606 572 606 669 l 605 0 l 397 0 l 397 90 l 370 90 q 314 13 345 38 q 227 -11 283 -11 m 315 138 q 363 153 342 138 q 398 193 385 168 l 398 382 q 350 370 373 377 q 308 354 326 363 q 259 310 272 338 q 244 250 246 283 q 243 226 243 237 q 244 206 243 216 q 265 155 247 172 q 315 138 283 138 z "},"á":{"ha":660,"x_min":38,"x_max":606,"o":"m 227 -11 q 91 34 135 -11 q 38 189 48 78 q 38 219 38 201 q 38 250 38 238 q 65 347 43 307 q 133 417 88 387 q 253 474 178 447 q 326 497 291 488 q 399 515 361 506 l 399 622 q 386 674 399 656 q 331 692 372 692 q 284 677 297 692 q 269 629 271 663 q 268 596 268 619 q 268 549 267 573 q 269 513 268 525 l 66 513 q 65 551 65 520 q 65 606 64 583 q 94 743 68 690 q 179 822 121 797 q 337 847 238 847 q 499 819 440 847 q 582 730 558 791 q 606 572 606 669 l 605 0 l 397 0 l 397 90 l 370 90 q 314 13 345 38 q 227 -11 283 -11 m 315 138 q 363 153 342 138 q 398 193 385 168 l 398 382 q 350 370 373 377 q 308 354 326 363 q 259 310 272 338 q 244 250 246 283 q 243 226 243 237 q 244 206 243 216 q 265 155 247 172 q 315 138 283 138 m 278 889 l 413 1082 l 547 1082 l 405 889 l 278 889 z "},"ă":{"ha":660,"x_min":38,"x_max":606,"o":"m 227 -11 q 91 34 135 -11 q 38 189 48 78 q 38 219 38 201 q 38 250 38 238 q 65 347 43 307 q 133 417 88 387 q 253 474 178 447 q 326 497 291 488 q 399 515 361 506 l 399 622 q 386 674 399 656 q 331 692 372 692 q 284 677 297 692 q 269 629 271 663 q 268 596 268 619 q 268 549 267 573 q 269 513 268 525 l 66 513 q 65 551 65 520 q 65 606 64 583 q 94 743 68 690 q 179 822 121 797 q 337 847 238 847 q 499 819 440 847 q 582 730 558 791 q 606 572 606 669 l 605 0 l 397 0 l 397 90 l 370 90 q 314 13 345 38 q 227 -11 283 -11 m 315 138 q 363 153 342 138 q 398 193 385 168 l 398 382 q 350 370 373 377 q 308 354 326 363 q 259 310 272 338 q 244 250 246 283 q 243 226 243 237 q 244 206 243 216 q 265 155 247 172 q 315 138 283 138 m 335 896 q 181 943 229 896 q 126 1101 132 991 l 249 1101 q 269 1024 249 1047 q 335 1000 290 1000 q 401 1024 381 1000 q 422 1101 422 1047 l 545 1101 q 490 943 538 991 q 335 896 441 896 z "},"ắ":{"ha":660,"x_min":38,"x_max":606,"o":"m 227 -11 q 91 34 135 -11 q 38 189 48 78 q 38 219 38 201 q 38 250 38 238 q 65 347 43 307 q 133 417 88 387 q 253 474 178 447 q 326 497 291 488 q 399 515 361 506 l 399 622 q 386 674 399 656 q 331 692 372 692 q 284 677 297 692 q 269 629 271 663 q 268 596 268 619 q 268 549 267 573 q 269 513 268 525 l 66 513 q 65 551 65 520 q 65 606 64 583 q 94 743 68 690 q 179 822 121 797 q 337 847 238 847 q 499 819 440 847 q 582 730 558 791 q 606 572 606 669 l 605 0 l 397 0 l 397 90 l 370 90 q 314 13 345 38 q 227 -11 283 -11 m 315 138 q 363 153 342 138 q 398 193 385 168 l 398 382 q 350 370 373 377 q 308 354 326 363 q 259 310 272 338 q 244 250 246 283 q 243 226 243 237 q 244 206 243 216 q 265 155 247 172 q 315 138 283 138 m 335 882 q 181 930 229 882 q 126 1088 132 977 l 249 1088 q 269 1010 249 1033 q 335 986 290 986 q 401 1010 381 986 q 422 1088 422 1033 l 545 1088 q 490 930 538 977 q 335 882 441 882 m 278 1138 l 413 1331 l 547 1331 l 405 1138 l 278 1138 z "},"ặ":{"ha":660,"x_min":38,"x_max":606,"o":"m 227 -11 q 91 34 135 -11 q 38 189 48 78 q 38 219 38 201 q 38 250 38 238 q 65 347 43 307 q 133 417 88 387 q 253 474 178 447 q 326 497 291 488 q 399 515 361 506 l 399 622 q 386 674 399 656 q 331 692 372 692 q 284 677 297 692 q 269 629 271 663 q 268 596 268 619 q 268 549 267 573 q 269 513 268 525 l 66 513 q 65 551 65 520 q 65 606 64 583 q 94 743 68 690 q 179 822 121 797 q 337 847 238 847 q 499 819 440 847 q 582 730 558 791 q 606 572 606 669 l 605 0 l 397 0 l 397 90 l 370 90 q 314 13 345 38 q 227 -11 283 -11 m 315 138 q 363 153 342 138 q 398 193 385 168 l 398 382 q 350 370 373 377 q 308 354 326 363 q 259 310 272 338 q 244 250 246 283 q 243 226 243 237 q 244 206 243 216 q 265 155 247 172 q 315 138 283 138 m 252 -193 l 252 -56 l 390 -56 l 390 -193 l 252 -193 m 335 882 q 181 930 229 882 q 126 1088 132 977 l 249 1088 q 269 1010 249 1033 q 335 986 290 986 q 401 1010 381 986 q 422 1088 422 1033 l 545 1088 q 490 930 538 977 q 335 882 441 882 z "},"ằ":{"ha":660,"x_min":38,"x_max":606,"o":"m 227 -11 q 91 34 135 -11 q 38 189 48 78 q 38 219 38 201 q 38 250 38 238 q 65 347 43 307 q 133 417 88 387 q 253 474 178 447 q 326 497 291 488 q 399 515 361 506 l 399 622 q 386 674 399 656 q 331 692 372 692 q 284 677 297 692 q 269 629 271 663 q 268 596 268 619 q 268 549 267 573 q 269 513 268 525 l 66 513 q 65 551 65 520 q 65 606 64 583 q 94 743 68 690 q 179 822 121 797 q 337 847 238 847 q 499 819 440 847 q 582 730 558 791 q 606 572 606 669 l 605 0 l 397 0 l 397 90 l 370 90 q 314 13 345 38 q 227 -11 283 -11 m 315 138 q 363 153 342 138 q 398 193 385 168 l 398 382 q 350 370 373 377 q 308 354 326 363 q 259 310 272 338 q 244 250 246 283 q 243 226 243 237 q 244 206 243 216 q 265 155 247 172 q 315 138 283 138 m 335 882 q 181 930 229 882 q 126 1088 132 977 l 249 1088 q 269 1010 249 1033 q 335 986 290 986 q 401 1010 381 986 q 422 1088 422 1033 l 545 1088 q 490 930 538 977 q 335 882 441 882 m 251 1138 l 123 1331 l 256 1331 l 377 1138 l 251 1138 z "},"ẳ":{"ha":660,"x_min":38,"x_max":606,"o":"m 227 -11 q 91 34 135 -11 q 38 189 48 78 q 38 219 38 201 q 38 250 38 238 q 65 347 43 307 q 133 417 88 387 q 253 474 178 447 q 326 497 291 488 q 399 515 361 506 l 399 622 q 386 674 399 656 q 331 692 372 692 q 284 677 297 692 q 269 629 271 663 q 268 596 268 619 q 268 549 267 573 q 269 513 268 525 l 66 513 q 65 551 65 520 q 65 606 64 583 q 94 743 68 690 q 179 822 121 797 q 337 847 238 847 q 499 819 440 847 q 582 730 558 791 q 606 572 606 669 l 605 0 l 397 0 l 397 90 l 370 90 q 314 13 345 38 q 227 -11 283 -11 m 315 138 q 363 153 342 138 q 398 193 385 168 l 398 382 q 350 370 373 377 q 308 354 326 363 q 259 310 272 338 q 244 250 246 283 q 243 226 243 237 q 244 206 243 216 q 265 155 247 172 q 315 138 283 138 m 335 882 q 181 930 229 882 q 126 1088 132 977 l 249 1088 q 269 1010 249 1033 q 335 986 290 986 q 401 1010 381 986 q 422 1088 422 1033 l 545 1088 q 490 930 538 977 q 335 882 441 882 m 284 1115 l 294 1156 q 290 1215 305 1200 q 219 1231 274 1231 l 157 1231 l 157 1328 l 219 1328 q 372 1287 323 1328 q 399 1156 422 1246 l 390 1115 l 284 1115 z "},"ẵ":{"ha":660,"x_min":38,"x_max":606,"o":"m 227 -11 q 91 34 135 -11 q 38 189 48 78 q 38 219 38 201 q 38 250 38 238 q 65 347 43 307 q 133 417 88 387 q 253 474 178 447 q 326 497 291 488 q 399 515 361 506 l 399 622 q 386 674 399 656 q 331 692 372 692 q 284 677 297 692 q 269 629 271 663 q 268 596 268 619 q 268 549 267 573 q 269 513 268 525 l 66 513 q 65 551 65 520 q 65 606 64 583 q 94 743 68 690 q 179 822 121 797 q 337 847 238 847 q 499 819 440 847 q 582 730 558 791 q 606 572 606 669 l 605 0 l 397 0 l 397 90 l 370 90 q 314 13 345 38 q 227 -11 283 -11 m 315 138 q 363 153 342 138 q 398 193 385 168 l 398 382 q 350 370 373 377 q 308 354 326 363 q 259 310 272 338 q 244 250 246 283 q 243 226 243 237 q 244 206 243 216 q 265 155 247 172 q 315 138 283 138 m 335 882 q 181 930 229 882 q 126 1088 132 977 l 249 1088 q 269 1010 249 1033 q 335 986 290 986 q 401 1010 381 986 q 422 1088 422 1033 l 545 1088 q 490 930 538 977 q 335 882 441 882 m 437 1288 l 515 1288 q 483 1171 510 1208 q 406 1135 456 1135 q 358 1145 376 1135 q 328 1168 340 1155 q 303 1191 316 1181 q 271 1201 291 1201 q 242 1186 249 1201 q 234 1144 236 1171 l 156 1144 q 190 1268 162 1231 q 269 1306 218 1306 q 317 1296 299 1306 q 349 1273 336 1286 q 375 1250 362 1260 q 406 1240 388 1240 q 430 1252 424 1240 q 437 1288 435 1264 z "},"ǎ":{"ha":660,"x_min":38,"x_max":606,"o":"m 227 -11 q 91 34 135 -11 q 38 189 48 78 q 38 219 38 201 q 38 250 38 238 q 65 347 43 307 q 133 417 88 387 q 253 474 178 447 q 326 497 291 488 q 399 515 361 506 l 399 622 q 386 674 399 656 q 331 692 372 692 q 284 677 297 692 q 269 629 271 663 q 268 596 268 619 q 268 549 267 573 q 269 513 268 525 l 66 513 q 65 551 65 520 q 65 606 64 583 q 94 743 68 690 q 179 822 121 797 q 337 847 238 847 q 499 819 440 847 q 582 730 558 791 q 606 572 606 669 l 605 0 l 397 0 l 397 90 l 370 90 q 314 13 345 38 q 227 -11 283 -11 m 315 138 q 363 153 342 138 q 398 193 385 168 l 398 382 q 350 370 373 377 q 308 354 326 363 q 259 310 272 338 q 244 250 246 283 q 243 226 243 237 q 244 206 243 216 q 265 155 247 172 q 315 138 283 138 m 281 890 l 167 1083 l 287 1083 l 334 992 l 381 1083 l 501 1083 l 387 890 l 281 890 z "},"â":{"ha":660,"x_min":38,"x_max":606,"o":"m 227 -11 q 91 34 135 -11 q 38 189 48 78 q 38 219 38 201 q 38 250 38 238 q 65 347 43 307 q 133 417 88 387 q 253 474 178 447 q 326 497 291 488 q 399 515 361 506 l 399 622 q 386 674 399 656 q 331 692 372 692 q 284 677 297 692 q 269 629 271 663 q 268 596 268 619 q 268 549 267 573 q 269 513 268 525 l 66 513 q 65 551 65 520 q 65 606 64 583 q 94 743 68 690 q 179 822 121 797 q 337 847 238 847 q 499 819 440 847 q 582 730 558 791 q 606 572 606 669 l 605 0 l 397 0 l 397 90 l 370 90 q 314 13 345 38 q 227 -11 283 -11 m 315 138 q 363 153 342 138 q 398 193 385 168 l 398 382 q 350 370 373 377 q 308 354 326 363 q 259 310 272 338 q 244 250 246 283 q 243 226 243 237 q 244 206 243 216 q 265 155 247 172 q 315 138 283 138 m 160 890 l 274 1083 l 394 1083 l 508 890 l 374 890 l 334 968 l 294 890 l 160 890 z "},"ấ":{"ha":660,"x_min":38,"x_max":753,"o":"m 227 -11 q 91 34 135 -11 q 38 189 48 78 q 38 219 38 201 q 38 250 38 238 q 65 347 43 307 q 133 417 88 387 q 253 474 178 447 q 326 497 291 488 q 399 515 361 506 l 399 622 q 386 674 399 656 q 331 692 372 692 q 284 677 297 692 q 269 629 271 663 q 268 596 268 619 q 268 549 267 573 q 269 513 268 525 l 66 513 q 65 551 65 520 q 65 606 64 583 q 94 743 68 690 q 179 822 121 797 q 337 847 238 847 q 499 819 440 847 q 582 730 558 791 q 606 572 606 669 l 605 0 l 397 0 l 397 90 l 370 90 q 314 13 345 38 q 227 -11 283 -11 m 315 138 q 363 153 342 138 q 398 193 385 168 l 398 382 q 350 370 373 377 q 308 354 326 363 q 259 310 272 338 q 244 250 246 283 q 243 226 243 237 q 244 206 243 216 q 265 155 247 172 q 315 138 283 138 m 160 890 l 274 1083 l 394 1083 l 508 890 l 374 890 l 334 968 l 294 890 l 160 890 m 485 1069 l 620 1263 l 753 1263 l 612 1069 l 485 1069 z "},"ậ":{"ha":660,"x_min":38,"x_max":606,"o":"m 227 -11 q 91 34 135 -11 q 38 189 48 78 q 38 219 38 201 q 38 250 38 238 q 65 347 43 307 q 133 417 88 387 q 253 474 178 447 q 326 497 291 488 q 399 515 361 506 l 399 622 q 386 674 399 656 q 331 692 372 692 q 284 677 297 692 q 269 629 271 663 q 268 596 268 619 q 268 549 267 573 q 269 513 268 525 l 66 513 q 65 551 65 520 q 65 606 64 583 q 94 743 68 690 q 179 822 121 797 q 337 847 238 847 q 499 819 440 847 q 582 730 558 791 q 606 572 606 669 l 605 0 l 397 0 l 397 90 l 370 90 q 314 13 345 38 q 227 -11 283 -11 m 315 138 q 363 153 342 138 q 398 193 385 168 l 398 382 q 350 370 373 377 q 308 354 326 363 q 259 310 272 338 q 244 250 246 283 q 243 226 243 237 q 244 206 243 216 q 265 155 247 172 q 315 138 283 138 m 252 -193 l 252 -56 l 390 -56 l 390 -193 l 252 -193 m 160 890 l 274 1083 l 394 1083 l 508 890 l 374 890 l 334 968 l 294 890 l 160 890 z "},"ầ":{"ha":660,"x_min":38,"x_max":653,"o":"m 227 -11 q 91 34 135 -11 q 38 189 48 78 q 38 219 38 201 q 38 250 38 238 q 65 347 43 307 q 133 417 88 387 q 253 474 178 447 q 326 497 291 488 q 399 515 361 506 l 399 622 q 386 674 399 656 q 331 692 372 692 q 284 677 297 692 q 269 629 271 663 q 268 596 268 619 q 268 549 267 573 q 269 513 268 525 l 66 513 q 65 551 65 520 q 65 606 64 583 q 94 743 68 690 q 179 822 121 797 q 337 847 238 847 q 499 819 440 847 q 582 730 558 791 q 606 572 606 669 l 605 0 l 397 0 l 397 90 l 370 90 q 314 13 345 38 q 227 -11 283 -11 m 315 138 q 363 153 342 138 q 398 193 385 168 l 398 382 q 350 370 373 377 q 308 354 326 363 q 259 310 272 338 q 244 250 246 283 q 243 226 243 237 q 244 206 243 216 q 265 155 247 172 q 315 138 283 138 m 160 890 l 274 1083 l 394 1083 l 508 890 l 374 890 l 334 968 l 294 890 l 160 890 m 527 1069 l 399 1263 l 533 1263 l 653 1069 l 527 1069 z "},"ẩ":{"ha":660,"x_min":38,"x_max":626,"o":"m 227 -11 q 91 34 135 -11 q 38 189 48 78 q 38 219 38 201 q 38 250 38 238 q 65 347 43 307 q 133 417 88 387 q 253 474 178 447 q 326 497 291 488 q 399 515 361 506 l 399 622 q 386 674 399 656 q 331 692 372 692 q 284 677 297 692 q 269 629 271 663 q 268 596 268 619 q 268 549 267 573 q 269 513 268 525 l 66 513 q 65 551 65 520 q 65 606 64 583 q 94 743 68 690 q 179 822 121 797 q 337 847 238 847 q 499 819 440 847 q 582 730 558 791 q 606 572 606 669 l 605 0 l 397 0 l 397 90 l 370 90 q 314 13 345 38 q 227 -11 283 -11 m 315 138 q 363 153 342 138 q 398 193 385 168 l 398 382 q 350 370 373 377 q 308 354 326 363 q 259 310 272 338 q 244 250 246 283 q 243 226 243 237 q 244 206 243 216 q 265 155 247 172 q 315 138 283 138 m 160 890 l 274 1083 l 394 1083 l 508 890 l 374 890 l 334 968 l 294 890 l 160 890 m 488 1047 l 498 1088 q 494 1147 509 1132 q 423 1163 478 1163 l 361 1163 l 361 1260 l 423 1260 q 576 1219 527 1260 q 603 1088 626 1178 l 594 1047 l 488 1047 z "},"ẫ":{"ha":660,"x_min":38,"x_max":606,"o":"m 227 -11 q 91 34 135 -11 q 38 189 48 78 q 38 219 38 201 q 38 250 38 238 q 65 347 43 307 q 133 417 88 387 q 253 474 178 447 q 326 497 291 488 q 399 515 361 506 l 399 622 q 386 674 399 656 q 331 692 372 692 q 284 677 297 692 q 269 629 271 663 q 268 596 268 619 q 268 549 267 573 q 269 513 268 525 l 66 513 q 65 551 65 520 q 65 606 64 583 q 94 743 68 690 q 179 822 121 797 q 337 847 238 847 q 499 819 440 847 q 582 730 558 791 q 606 572 606 669 l 605 0 l 397 0 l 397 90 l 370 90 q 314 13 345 38 q 227 -11 283 -11 m 315 138 q 363 153 342 138 q 398 193 385 168 l 398 382 q 350 370 373 377 q 308 354 326 363 q 259 310 272 338 q 244 250 246 283 q 243 226 243 237 q 244 206 243 216 q 265 155 247 172 q 315 138 283 138 m 160 890 l 274 1083 l 394 1083 l 508 890 l 374 890 l 334 968 l 294 890 l 160 890 m 453 1268 l 531 1268 q 500 1152 527 1188 q 422 1115 473 1115 q 375 1125 392 1115 q 345 1149 357 1135 q 320 1172 333 1162 q 288 1182 308 1182 q 259 1167 265 1182 q 251 1125 253 1151 l 173 1125 q 207 1249 178 1212 q 285 1286 235 1286 q 334 1276 315 1286 q 366 1253 353 1267 q 391 1231 378 1240 q 422 1221 404 1221 q 446 1233 440 1221 q 453 1268 452 1244 z "},"´":{"ha":365,"x_min":49,"x_max":317,"o":"m 49 889 l 183 1082 l 317 1082 l 175 889 l 49 889 z "},"́":{"ha":0,"x_min":49,"x_max":317,"o":"m 49 889 l 183 1082 l 317 1082 l 175 889 l 49 889 z "},"ȁ":{"ha":660,"x_min":38,"x_max":606,"o":"m 227 -11 q 91 34 135 -11 q 38 189 48 78 q 38 219 38 201 q 38 250 38 238 q 65 347 43 307 q 133 417 88 387 q 253 474 178 447 q 326 497 291 488 q 399 515 361 506 l 399 622 q 386 674 399 656 q 331 692 372 692 q 284 677 297 692 q 269 629 271 663 q 268 596 268 619 q 268 549 267 573 q 269 513 268 525 l 66 513 q 65 551 65 520 q 65 606 64 583 q 94 743 68 690 q 179 822 121 797 q 337 847 238 847 q 499 819 440 847 q 582 730 558 791 q 606 572 606 669 l 605 0 l 397 0 l 397 90 l 370 90 q 314 13 345 38 q 227 -11 283 -11 m 315 138 q 363 153 342 138 q 398 193 385 168 l 398 382 q 350 370 373 377 q 308 354 326 363 q 259 310 272 338 q 244 250 246 283 q 243 226 243 237 q 244 206 243 216 q 265 155 247 172 q 315 138 283 138 m 366 889 l 238 1082 l 372 1082 l 499 889 l 366 889 m 172 889 l 44 1082 l 177 1082 l 305 889 l 172 889 z "},"ä":{"ha":660,"x_min":38,"x_max":606,"o":"m 227 -11 q 91 34 135 -11 q 38 189 48 78 q 38 219 38 201 q 38 250 38 238 q 65 347 43 307 q 133 417 88 387 q 253 474 178 447 q 326 497 291 488 q 399 515 361 506 l 399 622 q 386 674 399 656 q 331 692 372 692 q 284 677 297 692 q 269 629 271 663 q 268 596 268 619 q 268 549 267 573 q 269 513 268 525 l 66 513 q 65 551 65 520 q 65 606 64 583 q 94 743 68 690 q 179 822 121 797 q 337 847 238 847 q 499 819 440 847 q 582 730 558 791 q 606 572 606 669 l 605 0 l 397 0 l 397 90 l 370 90 q 314 13 345 38 q 227 -11 283 -11 m 315 138 q 363 153 342 138 q 398 193 385 168 l 398 382 q 350 370 373 377 q 308 354 326 363 q 259 310 272 338 q 244 250 246 283 q 243 226 243 237 q 244 206 243 216 q 265 155 247 172 q 315 138 283 138 m 373 910 l 373 1047 l 510 1047 l 510 910 l 373 910 m 160 910 l 160 1047 l 298 1047 l 298 910 l 160 910 z "},"ạ":{"ha":660,"x_min":38,"x_max":606,"o":"m 227 -11 q 91 34 135 -11 q 38 189 48 78 q 38 219 38 201 q 38 250 38 238 q 65 347 43 307 q 133 417 88 387 q 253 474 178 447 q 326 497 291 488 q 399 515 361 506 l 399 622 q 386 674 399 656 q 331 692 372 692 q 284 677 297 692 q 269 629 271 663 q 268 596 268 619 q 268 549 267 573 q 269 513 268 525 l 66 513 q 65 551 65 520 q 65 606 64 583 q 94 743 68 690 q 179 822 121 797 q 337 847 238 847 q 499 819 440 847 q 582 730 558 791 q 606 572 606 669 l 605 0 l 397 0 l 397 90 l 370 90 q 314 13 345 38 q 227 -11 283 -11 m 315 138 q 363 153 342 138 q 398 193 385 168 l 398 382 q 350 370 373 377 q 308 354 326 363 q 259 310 272 338 q 244 250 246 283 q 243 226 243 237 q 244 206 243 216 q 265 155 247 172 q 315 138 283 138 m 252 -193 l 252 -56 l 390 -56 l 390 -193 l 252 -193 z "},"æ":{"ha":989,"x_min":38,"x_max":951,"o":"m 227 -11 q 95 34 145 -11 q 38 189 46 78 q 38 219 38 201 q 38 250 38 238 q 95 385 46 335 q 253 474 145 435 q 326 497 291 488 q 398 515 360 506 q 398 551 398 533 q 398 586 398 569 q 398 622 398 604 q 393 660 398 644 q 373 684 388 676 q 331 692 358 692 q 284 677 297 692 q 269 629 271 663 q 268 596 268 619 q 268 549 267 573 q 269 513 268 525 l 66 513 q 65 534 65 517 q 64 570 64 551 q 65 606 64 590 q 94 743 68 690 q 179 822 121 797 q 337 847 238 847 q 435 840 393 847 q 506 814 476 832 q 582 840 539 832 q 677 847 624 847 q 880 791 817 847 q 949 606 943 735 q 950 569 950 594 q 951 511 951 544 q 950 445 951 479 q 948 382 949 411 l 603 382 q 603 297 603 340 q 603 211 603 254 q 623 158 603 174 q 680 142 642 142 q 728 158 713 142 q 745 211 743 174 q 747 258 747 228 q 745 324 747 288 l 948 324 q 950 286 949 317 q 949 233 951 256 q 880 44 943 101 q 680 -14 817 -14 q 524 11 585 -14 q 431 90 463 36 l 416 90 q 340 13 390 36 q 227 -11 289 -11 m 315 138 q 351 146 332 138 q 385 185 371 155 q 399 279 399 215 q 399 328 399 301 q 398 382 398 354 q 352 370 376 377 q 308 354 328 364 q 259 312 272 338 q 244 250 247 287 q 243 227 243 238 q 244 206 243 216 q 265 155 247 172 q 315 138 283 138 m 603 525 l 747 525 q 746 582 747 551 q 745 629 745 612 q 728 677 745 663 q 677 692 712 692 q 622 677 641 692 q 603 629 603 663 q 603 577 603 603 q 603 525 603 551 z "},"ǽ":{"ha":989,"x_min":38,"x_max":951,"o":"m 227 -11 q 95 34 145 -11 q 38 189 46 78 q 38 219 38 201 q 38 250 38 238 q 95 385 46 335 q 253 474 145 435 q 326 497 291 488 q 398 515 360 506 q 398 551 398 533 q 398 586 398 569 q 398 622 398 604 q 393 660 398 644 q 373 684 388 676 q 331 692 358 692 q 284 677 297 692 q 269 629 271 663 q 268 596 268 619 q 268 549 267 573 q 269 513 268 525 l 66 513 q 65 534 65 517 q 64 570 64 551 q 65 606 64 590 q 94 743 68 690 q 179 822 121 797 q 337 847 238 847 q 435 840 393 847 q 506 814 476 832 q 582 840 539 832 q 677 847 624 847 q 880 791 817 847 q 949 606 943 735 q 950 569 950 594 q 951 511 951 544 q 950 445 951 479 q 948 382 949 411 l 603 382 q 603 297 603 340 q 603 211 603 254 q 623 158 603 174 q 680 142 642 142 q 728 158 713 142 q 745 211 743 174 q 747 258 747 228 q 745 324 747 288 l 948 324 q 950 286 949 317 q 949 233 951 256 q 880 44 943 101 q 680 -14 817 -14 q 524 11 585 -14 q 431 90 463 36 l 416 90 q 340 13 390 36 q 227 -11 289 -11 m 315 138 q 351 146 332 138 q 385 185 371 155 q 399 279 399 215 q 399 328 399 301 q 398 382 398 354 q 352 370 376 377 q 308 354 328 364 q 259 312 272 338 q 244 250 247 287 q 243 227 243 238 q 244 206 243 216 q 265 155 247 172 q 315 138 283 138 m 603 525 l 747 525 q 746 582 747 551 q 745 629 745 612 q 728 677 745 663 q 677 692 712 692 q 622 677 641 692 q 603 629 603 663 q 603 577 603 603 q 603 525 603 551 m 451 889 l 585 1082 l 719 1082 l 577 889 l 451 889 z "},"à":{"ha":660,"x_min":38,"x_max":606,"o":"m 227 -11 q 91 34 135 -11 q 38 189 48 78 q 38 219 38 201 q 38 250 38 238 q 65 347 43 307 q 133 417 88 387 q 253 474 178 447 q 326 497 291 488 q 399 515 361 506 l 399 622 q 386 674 399 656 q 331 692 372 692 q 284 677 297 692 q 269 629 271 663 q 268 596 268 619 q 268 549 267 573 q 269 513 268 525 l 66 513 q 65 551 65 520 q 65 606 64 583 q 94 743 68 690 q 179 822 121 797 q 337 847 238 847 q 499 819 440 847 q 582 730 558 791 q 606 572 606 669 l 605 0 l 397 0 l 397 90 l 370 90 q 314 13 345 38 q 227 -11 283 -11 m 315 138 q 363 153 342 138 q 398 193 385 168 l 398 382 q 350 370 373 377 q 308 354 326 363 q 259 310 272 338 q 244 250 246 283 q 243 226 243 237 q 244 206 243 216 q 265 155 247 172 q 315 138 283 138 m 251 889 l 123 1082 l 256 1082 l 377 889 l 251 889 z "},"ả":{"ha":660,"x_min":38,"x_max":606,"o":"m 227 -11 q 91 34 135 -11 q 38 189 48 78 q 38 219 38 201 q 38 250 38 238 q 65 347 43 307 q 133 417 88 387 q 253 474 178 447 q 326 497 291 488 q 399 515 361 506 l 399 622 q 386 674 399 656 q 331 692 372 692 q 284 677 297 692 q 269 629 271 663 q 268 596 268 619 q 268 549 267 573 q 269 513 268 525 l 66 513 q 65 551 65 520 q 65 606 64 583 q 94 743 68 690 q 179 822 121 797 q 337 847 238 847 q 499 819 440 847 q 582 730 558 791 q 606 572 606 669 l 605 0 l 397 0 l 397 90 l 370 90 q 314 13 345 38 q 227 -11 283 -11 m 315 138 q 363 153 342 138 q 398 193 385 168 l 398 382 q 350 370 373 377 q 308 354 326 363 q 259 310 272 338 q 244 250 246 283 q 243 226 243 237 q 244 206 243 216 q 265 155 247 172 q 315 138 283 138 m 324 881 l 333 921 q 329 981 344 965 q 258 996 314 996 l 197 996 l 197 1093 l 258 1093 q 412 1052 363 1093 q 439 921 461 1011 l 429 881 l 324 881 z "},"ȃ":{"ha":660,"x_min":38,"x_max":606,"o":"m 335 1094 q 490 1047 441 1094 q 545 889 538 999 l 422 889 q 401 967 422 943 q 335 990 381 990 q 269 967 290 990 q 249 889 249 943 l 126 889 q 181 1047 132 999 q 335 1094 229 1094 m 227 -11 q 91 34 135 -11 q 38 189 48 78 q 38 219 38 201 q 38 250 38 238 q 65 347 43 307 q 133 417 88 387 q 253 474 178 447 q 326 497 291 488 q 399 515 361 506 l 399 622 q 386 674 399 656 q 331 692 372 692 q 284 677 297 692 q 269 629 271 663 q 268 596 268 619 q 268 549 267 573 q 269 513 268 525 l 66 513 q 65 551 65 520 q 65 606 64 583 q 94 743 68 690 q 179 822 121 797 q 337 847 238 847 q 499 819 440 847 q 582 730 558 791 q 606 572 606 669 l 605 0 l 397 0 l 397 90 l 370 90 q 314 13 345 38 q 227 -11 283 -11 m 315 138 q 363 153 342 138 q 398 193 385 168 l 398 382 q 350 370 373 377 q 308 354 326 363 q 259 310 272 338 q 244 250 246 283 q 243 226 243 237 q 244 206 243 216 q 265 155 247 172 q 315 138 283 138 z "},"ā":{"ha":660,"x_min":38,"x_max":606,"o":"m 227 -11 q 91 34 135 -11 q 38 189 48 78 q 38 219 38 201 q 38 250 38 238 q 65 347 43 307 q 133 417 88 387 q 253 474 178 447 q 326 497 291 488 q 399 515 361 506 l 399 622 q 386 674 399 656 q 331 692 372 692 q 284 677 297 692 q 269 629 271 663 q 268 596 268 619 q 268 549 267 573 q 269 513 268 525 l 66 513 q 65 551 65 520 q 65 606 64 583 q 94 743 68 690 q 179 822 121 797 q 337 847 238 847 q 499 819 440 847 q 582 730 558 791 q 606 572 606 669 l 605 0 l 397 0 l 397 90 l 370 90 q 314 13 345 38 q 227 -11 283 -11 m 315 138 q 363 153 342 138 q 398 193 385 168 l 398 382 q 350 370 373 377 q 308 354 326 363 q 259 310 272 338 q 244 250 246 283 q 243 226 243 237 q 244 206 243 216 q 265 155 247 172 q 315 138 283 138 m 99 968 l 565 968 l 565 875 l 99 875 l 99 968 z "},"&":{"ha":860,"x_min":56,"x_max":804,"o":"m 363 -14 q 134 51 206 -14 q 57 264 63 115 q 56 306 56 288 q 56 344 56 325 q 57 389 56 364 q 97 531 60 478 q 183 622 133 584 q 139 730 156 676 q 114 833 122 783 q 158 1044 95 963 q 368 1125 222 1125 q 568 1052 507 1125 q 614 846 628 979 q 571 716 607 778 q 467 596 535 653 q 449 582 458 589 q 431 567 440 574 q 470 509 449 538 q 513 453 491 481 q 509 503 512 476 q 501 564 506 531 l 668 564 q 676 468 673 521 q 679 361 679 415 q 675 260 679 307 q 747 183 714 217 q 804 124 781 148 l 671 -6 q 633 34 652 15 q 594 74 615 54 q 537 24 570 43 q 460 -5 503 4 q 363 -14 417 -14 m 368 150 q 413 157 393 150 q 447 177 433 163 q 468 214 460 192 q 372 331 419 272 q 283 450 325 390 q 266 420 273 437 q 258 381 260 403 q 256 338 257 354 q 256 305 256 322 q 258 258 257 288 q 289 178 262 206 q 368 150 315 150 m 342 719 q 394 766 375 744 q 422 809 413 789 q 435 846 431 829 q 433 949 447 910 q 368 989 419 989 q 309 952 326 989 q 297 868 293 915 q 311 797 299 835 q 342 719 323 759 z "},"ą":{"ha":660,"x_min":38,"x_max":613,"o":"m 227 -11 q 91 34 135 -11 q 38 189 48 78 q 38 219 38 201 q 38 250 38 238 q 65 347 43 307 q 133 417 88 387 q 253 474 178 447 q 326 497 291 488 q 399 515 361 506 l 399 622 q 386 674 399 656 q 331 692 372 692 q 284 677 297 692 q 269 629 271 663 q 268 596 268 619 q 268 549 267 573 q 269 513 268 525 l 66 513 q 65 551 65 520 q 65 606 64 583 q 94 743 68 690 q 179 822 121 797 q 337 847 238 847 q 499 819 440 847 q 582 730 558 791 q 606 572 606 669 l 605 0 l 397 0 l 397 90 l 370 90 q 314 13 345 38 q 227 -11 283 -11 m 315 138 q 363 153 342 138 q 398 193 385 168 l 398 382 q 350 370 373 377 q 308 354 326 363 q 259 310 272 338 q 244 250 246 283 q 243 226 243 237 q 244 206 243 216 q 265 155 247 172 q 315 138 283 138 m 613 -228 l 569 -228 q 420 -187 464 -228 q 388 -56 376 -147 l 397 4 l 502 4 l 494 -56 q 507 -113 489 -96 q 569 -131 525 -131 l 613 -131 l 613 -228 z "},"ʼ":{"ha":282,"x_min":56,"x_max":226,"o":"m 92 717 l 56 914 l 56 1111 l 226 1111 l 226 914 l 190 717 l 92 717 z "},"≈":{"ha":743,"x_min":56,"x_max":688,"o":"m 490 501 q 411 516 445 501 q 350 549 377 531 q 297 583 323 568 q 243 597 272 597 q 190 576 209 597 q 167 515 170 554 l 56 515 q 115 693 63 640 q 249 746 167 746 q 332 732 299 746 q 391 699 366 718 q 441 667 417 681 q 494 653 465 653 q 553 670 532 653 q 576 719 574 688 l 688 719 q 628 552 681 602 q 490 501 576 501 m 490 251 q 411 266 445 251 q 350 299 377 281 q 297 333 323 318 q 243 347 272 347 q 190 326 209 347 q 167 265 170 304 l 56 265 q 115 443 63 390 q 249 496 167 496 q 332 482 299 496 q 391 449 366 468 q 441 417 417 431 q 494 403 465 403 q 553 420 532 403 q 576 469 574 438 l 688 469 q 628 302 681 352 q 490 251 576 251 z "},"å":{"ha":660,"x_min":38,"x_max":606,"o":"m 227 -11 q 91 34 135 -11 q 38 189 48 78 q 38 219 38 201 q 38 250 38 238 q 65 347 43 307 q 133 417 88 387 q 253 474 178 447 q 326 497 291 488 q 399 515 361 506 l 399 622 q 386 674 399 656 q 331 692 372 692 q 284 677 297 692 q 269 629 271 663 q 268 596 268 619 q 268 549 267 573 q 269 513 268 525 l 66 513 q 65 551 65 520 q 65 606 64 583 q 94 743 68 690 q 179 822 121 797 q 337 847 238 847 q 499 819 440 847 q 582 730 558 791 q 606 572 606 669 l 605 0 l 397 0 l 397 90 l 370 90 q 314 13 345 38 q 227 -11 283 -11 m 315 138 q 363 153 342 138 q 398 193 385 168 l 398 382 q 350 370 373 377 q 308 354 326 363 q 259 310 272 338 q 244 250 246 283 q 243 226 243 237 q 244 206 243 216 q 265 155 247 172 q 315 138 283 138 m 335 882 q 231 926 274 882 q 187 1031 187 969 q 231 1136 187 1092 q 335 1179 274 1179 q 441 1136 397 1179 q 484 1031 484 1092 q 441 926 484 969 q 335 882 397 882 m 335 989 q 365 1001 353 989 q 377 1031 377 1013 q 365 1060 377 1049 q 335 1072 353 1072 q 306 1060 318 1072 q 294 1031 294 1049 q 306 1001 294 1013 q 335 989 318 989 z "},"ǻ":{"ha":660,"x_min":38,"x_max":606,"o":"m 227 -11 q 91 34 135 -11 q 38 189 48 78 q 38 219 38 201 q 38 250 38 238 q 65 347 43 307 q 133 417 88 387 q 253 474 178 447 q 326 497 291 488 q 399 515 361 506 l 399 622 q 386 674 399 656 q 331 692 372 692 q 284 677 297 692 q 269 629 271 663 q 268 596 268 619 q 268 549 267 573 q 269 513 268 525 l 66 513 q 65 551 65 520 q 65 606 64 583 q 94 743 68 690 q 179 822 121 797 q 337 847 238 847 q 499 819 440 847 q 582 730 558 791 q 606 572 606 669 l 605 0 l 397 0 l 397 90 l 370 90 q 314 13 345 38 q 227 -11 283 -11 m 315 138 q 363 153 342 138 q 398 193 385 168 l 398 382 q 350 370 373 377 q 308 354 326 363 q 259 310 272 338 q 244 250 246 283 q 243 226 243 237 q 244 206 243 216 q 265 155 247 172 q 315 138 283 138 m 335 882 q 231 926 274 882 q 187 1031 187 969 q 231 1136 187 1092 q 335 1179 274 1179 q 441 1136 397 1179 q 484 1031 484 1092 q 441 926 484 969 q 335 882 397 882 m 335 989 q 365 1001 353 989 q 377 1031 377 1013 q 365 1060 377 1049 q 335 1072 353 1072 q 306 1060 318 1072 q 294 1031 294 1049 q 306 1001 294 1013 q 335 989 318 989 m 278 1242 l 413 1435 l 547 1435 l 405 1242 l 278 1242 z "},"^":{"ha":600,"x_min":56,"x_max":544,"o":"m 56 597 l 233 957 l 367 957 l 544 597 l 411 597 l 300 822 l 189 597 l 56 597 z "},"~":{"ha":743,"x_min":56,"x_max":688,"o":"m 490 383 q 411 398 445 383 q 350 431 377 413 q 297 465 323 450 q 243 479 272 479 q 190 458 209 479 q 167 397 170 436 l 56 397 q 115 575 63 522 q 249 628 167 628 q 332 614 299 628 q 391 581 366 600 q 441 549 417 563 q 494 535 465 535 q 553 552 532 535 q 576 601 574 569 l 688 601 q 628 434 681 484 q 490 383 576 383 z "},"*":{"ha":350,"x_min":24,"x_max":326,"o":"m 24 928 l 109 967 l 24 1006 l 66 1078 l 141 1024 l 133 1117 l 217 1117 l 208 1025 l 284 1078 l 326 1006 l 241 967 l 326 928 l 284 856 l 208 910 l 217 817 l 133 817 l 141 908 l 66 856 l 24 928 z "},"@":{"ha":1006,"x_min":56,"x_max":950,"o":"m 501 -224 q 248 -191 345 -224 q 106 -86 151 -158 q 58 101 60 -15 q 56 252 57 179 q 56 398 56 325 q 56 549 56 471 q 58 715 57 627 q 106 912 60 837 q 248 1021 151 987 q 501 1056 345 1056 q 751 1021 655 1056 q 895 911 848 987 q 946 714 942 836 q 949 602 948 656 q 950 497 950 548 q 949 395 950 445 q 946 293 948 344 q 889 179 943 217 q 744 140 835 140 q 613 160 656 140 q 554 210 570 180 l 521 210 q 482 158 502 178 q 418 139 462 139 q 332 177 361 139 q 296 306 303 215 q 293 388 293 342 q 293 476 292 434 q 296 544 294 518 q 333 673 301 634 q 421 711 364 711 q 481 693 460 711 q 521 639 501 676 l 542 639 l 542 701 l 701 701 l 701 297 q 713 258 701 272 q 744 244 725 244 q 772 259 761 244 q 785 299 783 273 q 789 382 788 333 q 791 489 791 431 q 791 607 792 547 q 786 724 790 667 q 718 873 781 827 q 501 919 655 919 q 288 874 351 919 q 221 724 224 829 q 217 565 218 645 q 216 404 216 484 q 217 245 216 324 q 221 92 218 167 q 288 -46 224 -5 q 501 -87 351 -87 q 714 -47 649 -87 q 778 92 778 -6 q 778 96 778 94 q 778 100 778 98 l 936 100 q 936 96 936 98 q 936 92 936 94 q 893 -92 936 -23 q 753 -192 849 -161 q 501 -224 658 -224 m 488 253 q 517 264 499 253 q 542 288 535 274 l 542 561 q 515 586 535 577 q 488 596 496 596 q 464 586 471 596 q 456 560 457 576 q 452 470 452 510 q 453 388 451 430 q 457 290 454 345 q 465 261 458 269 q 488 253 472 253 z "},"ã":{"ha":660,"x_min":38,"x_max":606,"o":"m 227 -11 q 91 34 135 -11 q 38 189 48 78 q 38 219 38 201 q 38 250 38 238 q 65 347 43 307 q 133 417 88 387 q 253 474 178 447 q 326 497 291 488 q 399 515 361 506 l 399 622 q 386 674 399 656 q 331 692 372 692 q 284 677 297 692 q 269 629 271 663 q 268 596 268 619 q 268 549 267 573 q 269 513 268 525 l 66 513 q 65 551 65 520 q 65 606 64 583 q 94 743 68 690 q 179 822 121 797 q 337 847 238 847 q 499 819 440 847 q 582 730 558 791 q 606 572 606 669 l 605 0 l 397 0 l 397 90 l 370 90 q 314 13 345 38 q 227 -11 283 -11 m 315 138 q 363 153 342 138 q 398 193 385 168 l 398 382 q 350 370 373 377 q 308 354 326 363 q 259 310 272 338 q 244 250 246 283 q 243 226 243 237 q 244 206 243 216 q 265 155 247 172 q 315 138 283 138 m 437 1039 l 515 1039 q 483 923 510 959 q 406 886 456 886 q 358 896 376 886 q 328 919 340 906 q 303 943 316 933 q 271 953 291 953 q 242 938 249 953 q 234 896 236 922 l 156 896 q 190 1020 162 983 q 269 1057 218 1057 q 317 1047 299 1057 q 349 1024 336 1038 q 375 1001 362 1011 q 406 992 388 992 q 430 1003 424 992 q 437 1039 435 1015 z "},"b":{"ha":690,"x_min":57,"x_max":645,"o":"m 446 -14 q 349 13 381 -14 q 288 90 317 40 l 265 90 l 265 0 l 57 0 l 57 1111 l 265 1111 l 265 743 l 301 743 q 363 820 331 793 q 460 847 394 847 q 591 793 547 847 q 642 613 635 739 q 644 527 643 580 q 645 417 645 475 q 644 306 645 358 q 642 221 643 253 q 584 41 635 95 q 446 -14 533 -14 m 369 138 q 417 153 402 138 q 433 203 431 169 q 438 298 436 244 q 439 412 439 352 q 438 528 439 472 q 433 631 436 585 q 417 680 431 664 q 369 696 402 696 q 310 680 342 696 q 265 636 278 663 l 265 197 q 310 154 278 170 q 369 138 342 138 z "},"\\":{"ha":569,"x_min":42,"x_max":528,"o":"m 528 -278 l 319 -278 l 42 1111 l 250 1111 l 528 -278 z "},"|":{"ha":319,"x_min":56,"x_max":264,"o":"m 56 1264 l 264 1264 l 264 -167 l 56 -167 l 56 1264 z "},"◆":{"ha":806,"x_min":56,"x_max":750,"o":"m 403 208 l 56 556 l 403 903 l 750 556 l 403 208 z "},"■":{"ha":667,"x_min":56,"x_max":611,"o":"m 56 833 l 611 833 l 611 278 l 56 278 l 56 833 z "},"{":{"ha":542,"x_min":42,"x_max":500,"o":"m 500 -281 q 339 -257 413 -281 q 221 -176 265 -233 q 176 -22 176 -120 q 177 21 176 -7 q 179 83 178 49 q 181 151 180 117 q 183 210 182 184 q 183 250 183 237 q 165 318 183 306 q 110 329 147 329 l 42 329 l 42 499 l 110 499 q 165 510 147 499 q 183 578 183 522 q 183 618 183 591 q 181 678 182 644 q 180 746 181 712 q 178 809 179 781 q 178 853 178 838 q 222 1007 178 951 q 339 1088 266 1064 q 500 1111 413 1111 l 500 1011 q 444 989 472 1011 q 400 930 417 966 q 382 853 382 894 q 382 822 382 841 q 383 780 383 803 q 385 733 384 757 q 386 685 385 708 q 386 643 386 662 q 353 501 386 560 q 250 429 320 443 l 250 401 q 353 330 320 388 q 386 188 386 271 q 386 145 386 169 q 385 98 385 122 q 383 50 384 74 q 382 8 383 27 q 382 -22 382 -10 q 400 -99 382 -63 q 444 -158 417 -135 q 500 -181 472 -181 l 500 -281 z "},"}":{"ha":542,"x_min":42,"x_max":500,"o":"m 42 -281 l 42 -181 q 97 -158 70 -181 q 142 -99 124 -135 q 160 -22 160 -63 q 159 8 160 -10 q 158 50 159 27 q 157 98 158 74 q 156 145 156 122 q 156 188 156 169 q 189 330 156 271 q 292 401 222 388 l 292 429 q 189 501 222 443 q 156 643 156 560 q 156 685 156 662 q 157 733 156 708 q 158 780 158 757 q 159 822 159 803 q 160 853 160 841 q 142 930 160 894 q 97 989 124 966 q 42 1011 70 1011 l 42 1111 q 202 1088 129 1111 q 320 1007 276 1064 q 364 853 364 951 q 363 809 364 838 q 362 746 363 781 q 360 678 361 712 q 359 618 360 644 q 358 578 358 591 q 377 510 358 522 q 432 499 396 499 l 500 499 l 500 329 l 432 329 q 377 318 396 329 q 358 250 358 306 q 359 210 358 237 q 361 151 360 184 q 363 83 362 117 q 365 21 364 49 q 365 -22 365 -7 q 321 -176 365 -120 q 203 -257 276 -233 q 42 -281 129 -281 z "},"[":{"ha":494,"x_min":56,"x_max":453,"o":"m 56 -278 l 56 1111 l 453 1111 l 453 1014 l 264 1014 l 264 -181 l 453 -181 l 453 -278 l 56 -278 z "},"]":{"ha":494,"x_min":56,"x_max":453,"o":"m 453 -278 l 56 -278 l 56 -181 l 244 -181 l 244 1014 l 56 1014 l 56 1111 l 453 1111 l 453 -278 z "},"˘":{"ha":531,"x_min":56,"x_max":475,"o":"m 265 882 q 110 930 159 882 q 56 1088 62 977 l 179 1088 q 199 1010 179 1033 q 265 986 219 986 q 331 1010 311 986 q 351 1088 351 1033 l 475 1088 q 419 930 468 977 q 265 882 371 882 z "},"̮":{"ha":0,"x_min":56,"x_max":475,"o":"m 265 -261 q 110 -214 159 -261 q 56 -56 62 -166 l 179 -56 q 199 -133 179 -110 q 265 -157 219 -157 q 331 -133 311 -157 q 351 -56 351 -110 l 475 -56 q 419 -214 468 -166 q 265 -261 371 -261 z "},"̆":{"ha":0,"x_min":56,"x_max":475,"o":"m 265 882 q 110 930 159 882 q 56 1088 62 977 l 179 1088 q 199 1010 179 1033 q 265 986 219 986 q 331 1010 311 986 q 351 1088 351 1033 l 475 1088 q 419 930 468 977 q 265 882 371 882 z "},"̑":{"ha":0,"x_min":56,"x_max":475,"o":"m 265 1094 q 419 1047 371 1094 q 475 889 468 999 l 351 889 q 331 967 351 943 q 265 990 311 990 q 199 967 219 990 q 179 889 179 943 l 56 889 q 110 1047 62 999 q 265 1094 159 1094 z "},"¦":{"ha":319,"x_min":56,"x_max":264,"o":"m 56 1264 l 264 1264 l 264 706 l 56 706 l 56 1264 m 56 372 l 264 372 l 264 -167 l 56 -167 l 56 372 z "},"•":{"ha":375,"x_min":56,"x_max":319,"o":"m 56 431 l 56 694 l 319 694 l 319 431 l 56 431 z "},"∙":{"ha":375,"x_min":56,"x_max":319,"o":"m 56 431 l 56 694 l 319 694 l 319 431 l 56 431 z "},"c":{"ha":638,"x_min":45,"x_max":599,"o":"m 394 513 q 395 549 394 525 q 395 596 395 573 q 394 629 394 619 q 376 677 392 663 q 326 692 360 692 q 274 677 290 692 q 256 629 258 663 q 254 527 255 580 q 253 419 253 474 q 254 312 253 365 q 256 211 255 260 q 274 158 258 174 q 328 142 291 142 q 377 158 362 142 q 394 211 392 174 q 395 258 395 228 q 394 324 395 288 l 597 324 q 599 286 598 317 q 598 233 599 256 q 529 44 592 101 q 328 -14 466 -14 q 121 44 186 -14 q 48 233 56 101 q 46 306 47 257 q 45 413 45 355 q 46 521 45 470 q 48 597 47 572 q 122 790 58 732 q 326 847 186 847 q 528 791 465 847 q 598 606 592 735 q 599 551 599 583 q 597 513 598 520 l 394 513 z "},"ć":{"ha":638,"x_min":45,"x_max":599,"o":"m 394 513 q 395 549 394 525 q 395 596 395 573 q 394 629 394 619 q 376 677 392 663 q 326 692 360 692 q 274 677 290 692 q 256 629 258 663 q 254 527 255 580 q 253 419 253 474 q 254 312 253 365 q 256 211 255 260 q 274 158 258 174 q 328 142 291 142 q 377 158 362 142 q 394 211 392 174 q 395 258 395 228 q 394 324 395 288 l 597 324 q 599 286 598 317 q 598 233 599 256 q 529 44 592 101 q 328 -14 466 -14 q 121 44 186 -14 q 48 233 56 101 q 46 306 47 257 q 45 413 45 355 q 46 521 45 470 q 48 597 47 572 q 122 790 58 732 q 326 847 186 847 q 528 791 465 847 q 598 606 592 735 q 599 551 599 583 q 597 513 598 520 l 394 513 m 269 889 l 403 1082 l 537 1082 l 395 889 l 269 889 z "},"ˇ":{"ha":444,"x_min":56,"x_max":389,"o":"m 169 890 l 56 1083 l 175 1083 l 222 992 l 269 1083 l 389 1083 l 275 890 l 169 890 z "},"̌":{"ha":0,"x_min":56,"x_max":389,"o":"m 169 890 l 56 1083 l 175 1083 l 222 992 l 269 1083 l 389 1083 l 275 890 l 169 890 z "},"č":{"ha":638,"x_min":45,"x_max":599,"o":"m 394 513 q 395 549 394 525 q 395 596 395 573 q 394 629 394 619 q 376 677 392 663 q 326 692 360 692 q 274 677 290 692 q 256 629 258 663 q 254 527 255 580 q 253 419 253 474 q 254 312 253 365 q 256 211 255 260 q 274 158 258 174 q 328 142 291 142 q 377 158 362 142 q 394 211 392 174 q 395 258 395 228 q 394 324 395 288 l 597 324 q 599 286 598 317 q 598 233 599 256 q 529 44 592 101 q 328 -14 466 -14 q 121 44 186 -14 q 48 233 56 101 q 46 306 47 257 q 45 413 45 355 q 46 521 45 470 q 48 597 47 572 q 122 790 58 732 q 326 847 186 847 q 528 791 465 847 q 598 606 592 735 q 599 551 599 583 q 597 513 598 520 l 394 513 m 272 890 l 158 1083 l 277 1083 l 324 992 l 372 1083 l 491 1083 l 377 890 l 272 890 z "},"ç":{"ha":638,"x_min":45,"x_max":599,"o":"m 394 513 q 395 549 394 525 q 395 596 395 573 q 394 629 394 619 q 376 677 392 663 q 326 692 360 692 q 274 677 290 692 q 256 629 258 663 q 254 527 255 580 q 253 419 253 474 q 254 312 253 365 q 256 211 255 260 q 274 158 258 174 q 328 142 291 142 q 377 158 362 142 q 394 211 392 174 q 395 258 395 228 q 394 324 395 288 l 597 324 q 599 286 598 317 q 598 233 599 256 q 529 44 592 101 q 328 -14 466 -14 q 121 44 186 -14 q 48 233 56 101 q 46 306 47 257 q 45 413 45 355 q 46 521 45 470 q 48 597 47 572 q 122 790 58 732 q 326 847 186 847 q 528 791 465 847 q 598 606 592 735 q 599 551 599 583 q 597 513 598 520 l 394 513 m 151 -218 l 151 -121 l 195 -121 q 257 -103 239 -121 q 270 -46 276 -86 l 262 14 l 367 14 l 376 -46 q 344 -178 388 -137 q 195 -218 301 -218 l 151 -218 z "},"ḉ":{"ha":638,"x_min":45,"x_max":599,"o":"m 394 513 q 395 549 394 525 q 395 596 395 573 q 394 629 394 619 q 376 677 392 663 q 326 692 360 692 q 274 677 290 692 q 256 629 258 663 q 254 527 255 580 q 253 419 253 474 q 254 312 253 365 q 256 211 255 260 q 274 158 258 174 q 328 142 291 142 q 377 158 362 142 q 394 211 392 174 q 395 258 395 228 q 394 324 395 288 l 597 324 q 599 286 598 317 q 598 233 599 256 q 529 44 592 101 q 328 -14 466 -14 q 121 44 186 -14 q 48 233 56 101 q 46 306 47 257 q 45 413 45 355 q 46 521 45 470 q 48 597 47 572 q 122 790 58 732 q 326 847 186 847 q 528 791 465 847 q 598 606 592 735 q 599 551 599 583 q 597 513 598 520 l 394 513 m 151 -218 l 151 -121 l 195 -121 q 257 -103 239 -121 q 270 -46 276 -86 l 262 14 l 367 14 l 376 -46 q 344 -178 388 -137 q 195 -218 301 -218 l 151 -218 m 269 889 l 403 1082 l 537 1082 l 395 889 l 269 889 z "},"ĉ":{"ha":638,"x_min":45,"x_max":599,"o":"m 394 513 q 395 549 394 525 q 395 596 395 573 q 394 629 394 619 q 376 677 392 663 q 326 692 360 692 q 274 677 290 692 q 256 629 258 663 q 254 527 255 580 q 253 419 253 474 q 254 312 253 365 q 256 211 255 260 q 274 158 258 174 q 328 142 291 142 q 377 158 362 142 q 394 211 392 174 q 395 258 395 228 q 394 324 395 288 l 597 324 q 599 286 598 317 q 598 233 599 256 q 529 44 592 101 q 328 -14 466 -14 q 121 44 186 -14 q 48 233 56 101 q 46 306 47 257 q 45 413 45 355 q 46 521 45 470 q 48 597 47 572 q 122 790 58 732 q 326 847 186 847 q 528 791 465 847 q 598 606 592 735 q 599 551 599 583 q 597 513 598 520 l 394 513 m 151 890 l 265 1083 l 384 1083 l 498 890 l 365 890 l 324 968 l 284 890 l 151 890 z "},"ċ":{"ha":638,"x_min":45,"x_max":599,"o":"m 394 513 q 395 549 394 525 q 395 596 395 573 q 394 629 394 619 q 376 677 392 663 q 326 692 360 692 q 274 677 290 692 q 256 629 258 663 q 254 527 255 580 q 253 419 253 474 q 254 312 253 365 q 256 211 255 260 q 274 158 258 174 q 328 142 291 142 q 377 158 362 142 q 394 211 392 174 q 395 258 395 228 q 394 324 395 288 l 597 324 q 599 286 598 317 q 598 233 599 256 q 529 44 592 101 q 328 -14 466 -14 q 121 44 186 -14 q 48 233 56 101 q 46 306 47 257 q 45 413 45 355 q 46 521 45 470 q 48 597 47 572 q 122 790 58 732 q 326 847 186 847 q 528 791 465 847 q 598 606 592 735 q 599 551 599 583 q 597 513 598 520 l 394 513 m 256 889 l 256 1026 l 394 1026 l 394 889 l 256 889 z "},"₵":{"ha":681,"x_min":49,"x_max":640,"o":"m 255 -153 l 255 -8 q 101 73 148 8 q 51 265 54 138 q 49 399 50 323 q 49 556 49 474 q 49 714 49 638 q 51 849 50 790 q 101 1026 53 956 q 255 1117 150 1096 l 255 1278 l 435 1278 l 435 1118 q 583 1036 537 1101 q 633 847 630 972 q 633 798 633 824 q 633 744 633 771 q 631 694 632 717 l 423 694 q 424 755 424 720 q 425 825 425 790 q 424 886 425 860 q 402 938 424 919 q 344 956 381 956 q 282 938 304 956 q 259 886 260 919 q 255 728 256 813 q 254 556 254 644 q 255 383 254 467 q 259 226 256 299 q 282 174 260 192 q 344 156 304 156 q 407 174 385 156 q 430 226 429 192 q 431 286 431 251 q 431 357 431 322 q 430 417 431 392 l 638 417 q 640 341 640 383 q 638 265 640 299 q 588 75 635 140 q 435 -7 540 10 l 435 -153 l 255 -153 z "},"¸":{"ha":317,"x_min":51,"x_max":289,"o":"m 51 -232 l 51 -135 l 96 -135 q 158 -117 140 -135 q 171 -60 176 -100 l 163 0 l 268 0 l 276 -60 q 245 -192 289 -151 q 96 -232 201 -232 l 51 -232 z "},"̧":{"ha":0,"x_min":51,"x_max":289,"o":"m 51 -232 l 51 -135 l 96 -135 q 158 -117 140 -135 q 171 -60 176 -100 l 163 0 l 268 0 l 276 -60 q 245 -192 289 -151 q 96 -232 201 -232 l 51 -232 z "},"¢":{"ha":638,"x_min":45,"x_max":599,"o":"m 231 0 l 231 133 q 98 208 141 150 q 48 372 54 265 q 46 445 47 396 q 45 551 45 494 q 46 660 45 609 q 48 736 47 710 q 98 903 54 846 q 231 978 142 961 l 231 1111 l 412 1111 l 412 979 q 549 908 506 965 q 598 744 593 852 q 599 690 599 722 q 597 651 598 659 l 394 651 q 395 688 394 664 q 395 735 395 712 q 394 768 394 758 q 376 816 392 801 q 326 831 360 831 q 274 816 290 831 q 256 768 258 801 q 254 666 255 719 q 253 558 253 613 q 254 451 253 503 q 256 350 255 399 q 274 297 258 313 q 328 281 291 281 q 377 297 362 281 q 394 350 392 313 q 395 397 395 367 q 394 463 395 426 l 597 463 q 599 425 598 456 q 598 372 599 395 q 549 204 593 262 q 412 131 505 147 l 412 0 l 231 0 z "},"ˆ":{"ha":458,"x_min":56,"x_max":403,"o":"m 56 890 l 169 1083 l 289 1083 l 403 890 l 269 890 l 229 968 l 189 890 l 56 890 z "},"̂":{"ha":0,"x_min":56,"x_max":403,"o":"m 56 890 l 169 1083 l 289 1083 l 403 890 l 269 890 l 229 968 l 189 890 l 56 890 z "},":":{"ha":347,"x_min":56,"x_max":292,"o":"m 56 417 l 56 610 l 292 610 l 292 417 l 56 417 m 56 0 l 56 193 l 292 193 l 292 0 l 56 0 z "},"₡":{"ha":681,"x_min":49,"x_max":640,"o":"m 194 -153 l 194 7 q 86 96 120 33 q 51 265 53 158 q 49 399 50 323 q 49 556 49 474 q 49 714 49 638 q 51 849 50 790 q 86 1003 52 938 q 194 1099 121 1067 l 194 1278 l 303 1278 l 303 1124 q 327 1125 310 1124 q 362 1125 344 1125 q 387 1124 379 1124 l 387 1278 l 497 1278 l 497 1101 q 598 1013 565 1074 q 633 847 630 951 q 633 798 633 824 q 633 744 633 771 q 631 694 632 717 l 423 694 q 424 755 424 720 q 425 825 425 790 q 424 886 425 860 q 402 938 424 919 q 344 956 381 956 q 282 938 304 956 q 259 886 260 919 q 255 728 256 813 q 254 556 254 644 q 255 383 254 467 q 259 226 256 299 q 282 174 260 192 q 344 156 304 156 q 407 174 385 156 q 430 226 429 192 q 431 286 431 251 q 431 357 431 322 q 430 417 431 392 l 638 417 q 640 341 640 383 q 638 265 640 299 q 602 98 635 160 q 497 8 569 35 l 497 -153 l 387 -153 l 387 -12 q 362 -14 379 -13 q 327 -14 344 -14 q 303 -12 310 -13 l 303 -153 l 194 -153 z "},",":{"ha":349,"x_min":56,"x_max":293,"o":"m 74 -197 l 160 0 l 56 0 l 56 197 l 293 197 l 293 18 l 179 -197 l 74 -197 z "},"̦":{"ha":0,"x_min":56,"x_max":246,"o":"m 79 -318 l 126 -211 l 56 -211 l 56 -56 l 246 -56 l 246 -193 l 178 -318 l 79 -318 z "},"̒":{"ha":0,"x_min":56,"x_max":246,"o":"m 222 1151 l 175 1044 l 246 1044 l 246 889 l 56 889 l 56 1026 l 124 1151 l 222 1151 z "},"ʻ":{"ha":301,"x_min":56,"x_max":246,"o":"m 222 1151 l 175 1044 l 246 1044 l 246 889 l 56 889 l 56 1026 l 124 1151 l 222 1151 z "},"⁒":{"ha":938,"x_min":56,"x_max":882,"o":"m 56 0 l 738 1111 l 882 1111 l 199 0 l 56 0 m 61 918 l 61 1111 l 297 1111 l 297 918 l 61 918 m 578 0 l 578 193 l 814 193 l 814 0 l 578 0 z "},"©":{"ha":924,"x_min":56,"x_max":868,"o":"m 463 -7 q 241 42 332 -7 q 103 186 150 92 q 56 417 56 281 q 103 647 56 553 q 241 791 150 742 q 463 840 332 840 q 763 731 658 840 q 868 417 868 621 q 821 186 868 281 q 684 42 774 92 q 463 -7 593 -7 m 463 90 q 681 175 604 90 q 757 417 757 260 q 681 659 757 574 q 463 743 604 743 q 243 659 320 743 q 167 417 167 574 q 243 175 167 260 q 463 90 320 90 m 464 165 q 339 201 378 165 q 293 318 299 236 q 292 358 292 332 q 291 413 291 383 q 292 469 291 442 q 293 511 292 496 q 338 630 299 594 q 463 665 377 665 q 586 631 549 665 q 629 517 623 596 q 630 491 631 503 q 628 475 629 479 l 504 475 q 505 504 506 485 q 504 531 504 522 q 494 560 504 551 q 463 569 485 569 q 432 560 441 569 q 421 531 422 551 q 419 454 419 491 q 420 380 419 417 q 421 303 421 342 q 432 270 421 280 q 464 261 442 261 q 493 270 485 261 q 504 303 502 280 q 506 326 506 315 q 504 358 506 337 l 628 358 q 630 343 629 353 q 629 318 631 332 q 586 201 623 236 q 464 165 549 165 z "},"¤":{"ha":872,"x_min":56,"x_max":817,"o":"m 144 32 l 61 104 l 172 229 q 150 300 158 260 q 139 390 142 340 q 137 454 138 414 q 136 540 136 494 q 137 627 136 585 q 139 694 138 669 q 150 785 142 744 q 174 857 158 826 l 56 985 l 135 1057 l 247 936 q 425 972 310 972 q 615 928 553 972 l 738 1054 l 817 979 l 682 842 q 701 776 694 813 q 710 694 708 740 q 712 631 711 671 q 713 544 713 590 q 712 458 713 499 q 710 390 711 417 q 700 307 708 344 q 681 239 693 269 l 801 106 l 719 32 l 611 151 q 425 111 549 111 q 247 147 310 111 l 144 32 m 425 267 q 483 285 466 267 q 501 338 501 303 q 504 437 503 385 q 505 542 505 489 q 504 648 505 596 q 501 747 503 699 q 483 799 501 781 q 425 817 466 817 q 367 799 385 817 q 347 747 349 781 q 345 647 346 699 q 344 542 344 595 q 345 437 344 489 q 347 338 346 385 q 367 285 349 303 q 425 267 385 267 z "},"d":{"ha":690,"x_min":45,"x_max":633,"o":"m 234 -14 q 101 41 148 -14 q 48 221 54 95 q 46 306 47 253 q 45 417 45 358 q 46 527 45 475 q 48 613 47 580 q 102 793 54 739 q 237 847 151 847 q 334 820 303 847 q 395 743 366 793 l 424 743 l 424 1111 l 633 1111 l 633 0 l 424 0 l 424 90 l 395 90 q 333 13 366 40 q 234 -14 300 -14 m 320 138 q 380 154 349 138 q 424 197 412 170 l 424 636 q 380 680 412 663 q 320 696 349 696 q 273 680 288 696 q 256 631 258 664 q 252 491 253 570 q 252 334 251 412 q 256 203 253 257 q 273 153 258 169 q 320 138 288 138 z "},"†":{"ha":290,"x_min":56,"x_max":235,"o":"m 124 817 l 111 990 l 56 990 l 56 1018 l 110 1018 l 103 1117 l 188 1117 l 181 1018 l 235 1018 l 235 990 l 179 990 l 167 817 l 124 817 z "},"‡":{"ha":290,"x_min":56,"x_max":235,"o":"m 103 657 l 111 756 l 56 756 l 56 783 l 113 783 l 121 888 l 113 990 l 56 990 l 56 1018 l 111 1018 l 103 1117 l 188 1117 l 179 1018 l 235 1018 l 235 990 l 178 990 l 169 888 l 178 783 l 235 783 l 235 756 l 179 756 l 188 657 l 103 657 z "},"̏":{"ha":0,"x_min":56,"x_max":511,"o":"m 378 889 l 250 1082 l 383 1082 l 511 889 l 378 889 m 183 889 l 56 1082 l 189 1082 l 317 889 l 183 889 z "},"ď":{"ha":845,"x_min":45,"x_max":845,"o":"m 234 -14 q 101 41 148 -14 q 48 221 54 95 q 46 306 47 253 q 45 417 45 358 q 46 527 45 475 q 48 613 47 580 q 102 793 54 739 q 237 847 151 847 q 334 820 303 847 q 395 743 366 793 l 424 743 l 424 1111 l 633 1111 l 633 0 l 424 0 l 424 90 l 395 90 q 333 13 366 40 q 234 -14 300 -14 m 320 138 q 380 154 349 138 q 424 197 412 170 l 424 636 q 380 680 412 663 q 320 696 349 696 q 273 680 288 696 q 256 631 258 664 q 252 491 253 570 q 252 334 251 412 q 256 203 253 257 q 273 153 258 169 q 320 138 288 138 m 674 918 l 712 1111 l 845 1111 l 801 918 l 674 918 z "},"đ":{"ha":690,"x_min":45,"x_max":683,"o":"m 269 1026 l 683 1026 l 683 926 l 269 926 l 269 1026 m 234 -14 q 101 41 148 -14 q 48 221 54 95 q 46 306 47 253 q 45 417 45 358 q 46 527 45 475 q 48 613 47 580 q 102 793 54 739 q 237 847 151 847 q 334 820 303 847 q 395 743 366 793 l 424 743 l 424 1111 l 633 1111 l 633 0 l 424 0 l 424 90 l 395 90 q 333 13 366 40 q 234 -14 300 -14 m 320 138 q 380 154 349 138 q 424 197 412 170 l 424 636 q 380 680 412 663 q 320 696 349 696 q 273 680 288 696 q 256 631 258 664 q 252 491 253 570 q 252 334 251 412 q 256 203 253 257 q 273 153 258 169 q 320 138 288 138 z "},"ḍ":{"ha":690,"x_min":45,"x_max":633,"o":"m 234 -14 q 101 41 148 -14 q 48 221 54 95 q 46 306 47 253 q 45 417 45 358 q 46 527 45 475 q 48 613 47 580 q 102 793 54 739 q 237 847 151 847 q 334 820 303 847 q 395 743 366 793 l 424 743 l 424 1111 l 633 1111 l 633 0 l 424 0 l 424 90 l 395 90 q 333 13 366 40 q 234 -14 300 -14 m 320 138 q 380 154 349 138 q 424 197 412 170 l 424 636 q 380 680 412 663 q 320 696 349 696 q 273 680 288 696 q 256 631 258 664 q 252 491 253 570 q 252 334 251 412 q 256 203 253 257 q 273 153 258 169 q 320 138 288 138 m 298 -193 l 298 -56 l 435 -56 l 435 -193 l 298 -193 z "},"°":{"ha":415,"x_min":56,"x_max":360,"o":"m 208 821 q 132 842 167 821 q 76 897 97 863 q 56 972 56 931 q 76 1049 56 1014 q 132 1104 97 1083 q 208 1125 167 1125 q 284 1104 249 1125 q 339 1049 318 1083 q 360 972 360 1014 q 339 897 360 931 q 284 842 318 863 q 208 821 249 821 m 208 903 q 258 923 238 903 q 278 972 278 943 q 258 1023 278 1003 q 208 1043 238 1043 q 158 1023 178 1043 q 138 972 138 1003 q 158 923 138 943 q 208 903 178 903 z "},"¨":{"ha":483,"x_min":81,"x_max":431,"o":"m 293 910 l 293 1047 l 431 1047 l 431 910 l 293 910 m 81 910 l 81 1047 l 218 1047 l 218 910 l 81 910 z "},"̤":{"ha":0,"x_min":81,"x_max":431,"o":"m 293 -172 l 293 -35 l 431 -35 l 431 -172 l 293 -172 m 81 -172 l 81 -35 l 218 -35 l 218 -172 l 81 -172 z "},"̈":{"ha":0,"x_min":81,"x_max":431,"o":"m 293 910 l 293 1047 l 431 1047 l 431 910 l 293 910 m 81 910 l 81 1047 l 218 1047 l 218 910 l 81 910 z "},"÷":{"ha":744,"x_min":56,"x_max":689,"o":"m 56 418 l 56 574 l 689 574 l 689 418 l 56 418 m 297 657 l 297 808 l 449 808 l 449 657 l 297 657 m 297 183 l 297 335 l 449 335 l 449 183 l 297 183 z "},"∕":{"ha":938,"x_min":56,"x_max":882,"o":"m 56 0 l 738 1111 l 882 1111 l 199 0 l 56 0 z "},"ḏ":{"ha":690,"x_min":45,"x_max":633,"o":"m 234 -14 q 101 41 148 -14 q 48 221 54 95 q 46 306 47 253 q 45 417 45 358 q 46 527 45 475 q 48 613 47 580 q 102 793 54 739 q 237 847 151 847 q 334 820 303 847 q 395 743 366 793 l 424 743 l 424 1111 l 633 1111 l 633 0 l 424 0 l 424 90 l 395 90 q 333 13 366 40 q 234 -14 300 -14 m 320 138 q 380 154 349 138 q 424 197 412 170 l 424 636 q 380 680 412 663 q 320 696 349 696 q 273 680 288 696 q 256 631 258 664 q 252 491 253 570 q 252 334 251 412 q 256 203 253 257 q 273 153 258 169 q 320 138 288 138 m 120 -76 l 587 -76 l 587 -169 l 120 -169 l 120 -76 z "},"$":{"ha":658,"x_min":35,"x_max":624,"o":"m 238 -153 l 238 -7 q 91 75 136 10 q 41 265 47 140 q 40 314 40 288 q 42 368 40 341 q 47 417 43 394 l 242 417 q 239 317 240 366 q 242 226 238 267 q 267 174 246 192 q 330 156 288 156 q 390 174 371 156 q 413 226 409 192 q 417 273 416 250 q 417 320 418 297 q 413 367 416 343 q 395 419 410 396 q 347 451 380 443 l 233 481 q 118 534 160 499 q 57 622 76 569 q 35 743 38 674 q 35 798 35 774 q 35 847 35 822 q 86 1037 41 972 q 238 1118 132 1101 l 238 1278 l 419 1278 l 419 1118 q 566 1036 519 1101 q 617 847 613 972 q 618 774 619 817 q 615 694 617 731 l 415 694 q 417 790 417 742 q 416 886 418 838 q 392 938 415 919 q 330 956 369 956 q 268 938 288 956 q 244 886 248 919 q 240 815 240 851 q 244 743 240 778 q 263 692 247 715 q 315 661 279 669 l 413 638 q 536 582 491 619 q 600 492 581 546 q 623 367 620 438 q 624 333 624 351 q 623 299 624 316 q 622 265 622 281 q 570 74 617 140 q 419 -8 524 8 l 419 -153 l 238 -153 z "},"₫":{"ha":796,"x_min":56,"x_max":740,"o":"m 244 193 q 112 248 158 193 q 58 428 66 302 q 56 477 57 456 q 56 518 56 499 q 56 560 56 538 q 58 613 57 583 q 113 793 65 739 q 247 847 161 847 q 345 820 313 847 q 406 743 376 793 l 435 743 l 435 915 l 244 915 l 244 1015 l 435 1015 l 435 1111 l 643 1111 l 643 1015 l 740 1015 l 740 915 l 643 915 l 643 207 l 435 207 l 435 297 l 406 297 q 343 220 376 247 q 244 193 310 193 m 331 344 q 391 361 359 344 q 435 404 422 377 l 435 636 q 391 680 422 663 q 331 696 359 696 q 284 680 299 696 q 267 631 269 664 q 263 567 264 594 q 262 518 262 541 q 263 470 262 495 q 267 410 264 444 q 284 360 269 376 q 331 344 299 344 m 56 0 l 56 100 l 669 100 l 669 0 l 56 0 z "},"˙":{"ha":263,"x_min":76,"x_max":214,"o":"m 76 889 l 76 1026 l 214 1026 l 214 889 l 76 889 z "},"̇":{"ha":0,"x_min":76,"x_max":214,"o":"m 76 889 l 76 1026 l 214 1026 l 214 889 l 76 889 z "},"̣":{"ha":0,"x_min":56,"x_max":193,"o":"m 56 -193 l 56 -56 l 193 -56 l 193 -193 l 56 -193 z "},"ʺ":{"ha":560,"x_min":56,"x_max":504,"o":"m 92 717 l 56 914 l 56 1111 l 226 1111 l 226 914 l 190 717 l 92 717 m 369 717 l 333 914 l 333 1111 l 504 1111 l 504 914 l 468 717 l 369 717 z "},"↓":{"ha":467,"x_min":56,"x_max":411,"o":"m 219 1111 l 247 1111 l 247 454 l 411 638 l 235 0 l 232 0 l 56 638 l 219 454 l 219 1111 z "},"▼":{"ha":756,"x_min":56,"x_max":700,"o":"m 382 278 l 56 833 l 700 833 l 382 278 z "},"▽":{"ha":756,"x_min":56,"x_max":700,"o":"m 382 278 l 56 833 l 700 833 l 382 278 m 381 499 l 508 722 l 250 722 l 381 499 z "},"ǆ":{"ha":1247,"x_min":45,"x_max":1220,"o":"m 234 -14 q 101 41 148 -14 q 48 221 54 95 q 46 306 47 253 q 45 417 45 358 q 46 527 45 475 q 48 613 47 580 q 102 793 54 739 q 237 847 151 847 q 334 820 303 847 q 395 743 366 793 l 424 743 l 424 1111 l 633 1111 l 633 0 l 424 0 l 424 90 l 395 90 q 333 13 366 40 q 234 -14 300 -14 m 320 138 q 380 154 349 138 q 424 197 412 170 l 424 636 q 380 680 412 663 q 320 696 349 696 q 273 680 288 696 q 256 631 258 664 q 252 491 253 570 q 252 334 251 412 q 256 203 253 257 q 273 153 258 169 q 320 138 288 138 m 717 0 l 717 132 l 999 681 l 723 681 l 723 833 l 1220 833 l 1220 697 l 934 153 l 1219 153 l 1219 0 l 717 0 m 915 890 l 801 1083 l 920 1083 l 967 992 l 1015 1083 l 1134 1083 l 1020 890 l 915 890 z "},"e":{"ha":638,"x_min":45,"x_max":599,"o":"m 328 -14 q 121 44 186 -14 q 48 233 56 101 q 46 306 47 257 q 45 413 45 355 q 46 521 45 470 q 48 597 47 572 q 122 790 58 732 q 326 847 186 847 q 528 791 465 847 q 598 606 592 735 q 599 552 599 590 q 599 467 599 513 q 597 382 599 421 l 253 382 q 255 294 253 338 q 256 211 256 251 q 274 158 258 174 q 328 142 291 142 q 377 158 362 142 q 394 211 392 174 q 395 258 395 228 q 394 324 395 288 l 597 324 q 599 286 598 317 q 598 233 599 256 q 529 44 592 101 q 328 -14 466 -14 m 253 525 l 395 525 q 395 572 395 550 q 394 610 394 594 q 394 629 394 625 q 376 677 392 663 q 326 692 360 692 q 274 677 290 692 q 256 629 258 663 q 255 578 256 604 q 253 525 255 552 z "},"é":{"ha":638,"x_min":45,"x_max":599,"o":"m 328 -14 q 121 44 186 -14 q 48 233 56 101 q 46 306 47 257 q 45 413 45 355 q 46 521 45 470 q 48 597 47 572 q 122 790 58 732 q 326 847 186 847 q 528 791 465 847 q 598 606 592 735 q 599 552 599 590 q 599 467 599 513 q 597 382 599 421 l 253 382 q 255 294 253 338 q 256 211 256 251 q 274 158 258 174 q 328 142 291 142 q 377 158 362 142 q 394 211 392 174 q 395 258 395 228 q 394 324 395 288 l 597 324 q 599 286 598 317 q 598 233 599 256 q 529 44 592 101 q 328 -14 466 -14 m 253 525 l 395 525 q 395 572 395 550 q 394 610 394 594 q 394 629 394 625 q 376 677 392 663 q 326 692 360 692 q 274 677 290 692 q 256 629 258 663 q 255 578 256 604 q 253 525 255 552 m 266 889 l 401 1082 l 534 1082 l 392 889 l 266 889 z "},"ĕ":{"ha":638,"x_min":45,"x_max":599,"o":"m 328 -14 q 121 44 186 -14 q 48 233 56 101 q 46 306 47 257 q 45 413 45 355 q 46 521 45 470 q 48 597 47 572 q 122 790 58 732 q 326 847 186 847 q 528 791 465 847 q 598 606 592 735 q 599 552 599 590 q 599 467 599 513 q 597 382 599 421 l 253 382 q 255 294 253 338 q 256 211 256 251 q 274 158 258 174 q 328 142 291 142 q 377 158 362 142 q 394 211 392 174 q 395 258 395 228 q 394 324 395 288 l 597 324 q 599 286 598 317 q 598 233 599 256 q 529 44 592 101 q 328 -14 466 -14 m 253 525 l 395 525 q 395 572 395 550 q 394 610 394 594 q 394 629 394 625 q 376 677 392 663 q 326 692 360 692 q 274 677 290 692 q 256 629 258 663 q 255 578 256 604 q 253 525 255 552 m 323 882 q 168 930 217 882 q 113 1088 119 977 l 237 1088 q 257 1010 237 1033 q 323 986 277 986 q 389 1010 369 986 q 409 1088 409 1033 l 533 1088 q 477 930 526 977 q 323 882 428 882 z "},"ě":{"ha":638,"x_min":45,"x_max":599,"o":"m 328 -14 q 121 44 186 -14 q 48 233 56 101 q 46 306 47 257 q 45 413 45 355 q 46 521 45 470 q 48 597 47 572 q 122 790 58 732 q 326 847 186 847 q 528 791 465 847 q 598 606 592 735 q 599 552 599 590 q 599 467 599 513 q 597 382 599 421 l 253 382 q 255 294 253 338 q 256 211 256 251 q 274 158 258 174 q 328 142 291 142 q 377 158 362 142 q 394 211 392 174 q 395 258 395 228 q 394 324 395 288 l 597 324 q 599 286 598 317 q 598 233 599 256 q 529 44 592 101 q 328 -14 466 -14 m 253 525 l 395 525 q 395 572 395 550 q 394 610 394 594 q 394 629 394 625 q 376 677 392 663 q 326 692 360 692 q 274 677 290 692 q 256 629 258 663 q 255 578 256 604 q 253 525 255 552 m 269 890 l 155 1083 l 274 1083 l 322 992 l 369 1083 l 488 1083 l 374 890 l 269 890 z "},"ḝ":{"ha":638,"x_min":45,"x_max":599,"o":"m 328 -14 q 121 44 186 -14 q 48 233 56 101 q 46 306 47 257 q 45 413 45 355 q 46 521 45 470 q 48 597 47 572 q 122 790 58 732 q 326 847 186 847 q 528 791 465 847 q 598 606 592 735 q 599 552 599 590 q 599 467 599 513 q 597 382 599 421 l 253 382 q 255 294 253 338 q 256 211 256 251 q 274 158 258 174 q 328 142 291 142 q 377 158 362 142 q 394 211 392 174 q 395 258 395 228 q 394 324 395 288 l 597 324 q 599 286 598 317 q 598 233 599 256 q 529 44 592 101 q 328 -14 466 -14 m 253 525 l 395 525 q 395 572 395 550 q 394 610 394 594 q 394 629 394 625 q 376 677 392 663 q 326 692 360 692 q 274 677 290 692 q 256 629 258 663 q 255 578 256 604 q 253 525 255 552 m 159 -218 l 159 -121 l 203 -121 q 266 -103 247 -121 q 278 -46 284 -86 l 270 14 l 376 14 l 384 -46 q 353 -178 397 -137 q 203 -218 309 -218 l 159 -218 m 323 882 q 168 930 217 882 q 113 1088 119 977 l 237 1088 q 257 1010 237 1033 q 323 986 277 986 q 389 1010 369 986 q 409 1088 409 1033 l 533 1088 q 477 930 526 977 q 323 882 428 882 z "},"ê":{"ha":638,"x_min":45,"x_max":599,"o":"m 328 -14 q 121 44 186 -14 q 48 233 56 101 q 46 306 47 257 q 45 413 45 355 q 46 521 45 470 q 48 597 47 572 q 122 790 58 732 q 326 847 186 847 q 528 791 465 847 q 598 606 592 735 q 599 552 599 590 q 599 467 599 513 q 597 382 599 421 l 253 382 q 255 294 253 338 q 256 211 256 251 q 274 158 258 174 q 328 142 291 142 q 377 158 362 142 q 394 211 392 174 q 395 258 395 228 q 394 324 395 288 l 597 324 q 599 286 598 317 q 598 233 599 256 q 529 44 592 101 q 328 -14 466 -14 m 253 525 l 395 525 q 395 572 395 550 q 394 610 394 594 q 394 629 394 625 q 376 677 392 663 q 326 692 360 692 q 274 677 290 692 q 256 629 258 663 q 255 578 256 604 q 253 525 255 552 m 148 890 l 262 1083 l 381 1083 l 495 890 l 362 890 l 322 968 l 281 890 l 148 890 z "},"ế":{"ha":638,"x_min":45,"x_max":741,"o":"m 328 -14 q 121 44 186 -14 q 48 233 56 101 q 46 306 47 257 q 45 413 45 355 q 46 521 45 470 q 48 597 47 572 q 122 790 58 732 q 326 847 186 847 q 528 791 465 847 q 598 606 592 735 q 599 552 599 590 q 599 467 599 513 q 597 382 599 421 l 253 382 q 255 294 253 338 q 256 211 256 251 q 274 158 258 174 q 328 142 291 142 q 377 158 362 142 q 394 211 392 174 q 395 258 395 228 q 394 324 395 288 l 597 324 q 599 286 598 317 q 598 233 599 256 q 529 44 592 101 q 328 -14 466 -14 m 253 525 l 395 525 q 395 572 395 550 q 394 610 394 594 q 394 629 394 625 q 376 677 392 663 q 326 692 360 692 q 274 677 290 692 q 256 629 258 663 q 255 578 256 604 q 253 525 255 552 m 148 890 l 262 1083 l 381 1083 l 495 890 l 362 890 l 322 968 l 281 890 l 148 890 m 473 1069 l 608 1263 l 741 1263 l 599 1069 l 473 1069 z "},"ệ":{"ha":638,"x_min":45,"x_max":599,"o":"m 328 -14 q 121 44 186 -14 q 48 233 56 101 q 46 306 47 257 q 45 413 45 355 q 46 521 45 470 q 48 597 47 572 q 122 790 58 732 q 326 847 186 847 q 528 791 465 847 q 598 606 592 735 q 599 552 599 590 q 599 467 599 513 q 597 382 599 421 l 253 382 q 255 294 253 338 q 256 211 256 251 q 274 158 258 174 q 328 142 291 142 q 377 158 362 142 q 394 211 392 174 q 395 258 395 228 q 394 324 395 288 l 597 324 q 599 286 598 317 q 598 233 599 256 q 529 44 592 101 q 328 -14 466 -14 m 253 525 l 395 525 q 395 572 395 550 q 394 610 394 594 q 394 629 394 625 q 376 677 392 663 q 326 692 360 692 q 274 677 290 692 q 256 629 258 663 q 255 578 256 604 q 253 525 255 552 m 253 -193 l 253 -56 l 391 -56 l 391 -193 l 253 -193 m 148 890 l 262 1083 l 381 1083 l 495 890 l 362 890 l 322 968 l 281 890 l 148 890 z "},"ề":{"ha":638,"x_min":45,"x_max":641,"o":"m 328 -14 q 121 44 186 -14 q 48 233 56 101 q 46 306 47 257 q 45 413 45 355 q 46 521 45 470 q 48 597 47 572 q 122 790 58 732 q 326 847 186 847 q 528 791 465 847 q 598 606 592 735 q 599 552 599 590 q 599 467 599 513 q 597 382 599 421 l 253 382 q 255 294 253 338 q 256 211 256 251 q 274 158 258 174 q 328 142 291 142 q 377 158 362 142 q 394 211 392 174 q 395 258 395 228 q 394 324 395 288 l 597 324 q 599 286 598 317 q 598 233 599 256 q 529 44 592 101 q 328 -14 466 -14 m 253 525 l 395 525 q 395 572 395 550 q 394 610 394 594 q 394 629 394 625 q 376 677 392 663 q 326 692 360 692 q 274 677 290 692 q 256 629 258 663 q 255 578 256 604 q 253 525 255 552 m 148 890 l 262 1083 l 381 1083 l 495 890 l 362 890 l 322 968 l 281 890 l 148 890 m 515 1069 l 387 1263 l 520 1263 l 641 1069 l 515 1069 z "},"ể":{"ha":638,"x_min":45,"x_max":613,"o":"m 328 -14 q 121 44 186 -14 q 48 233 56 101 q 46 306 47 257 q 45 413 45 355 q 46 521 45 470 q 48 597 47 572 q 122 790 58 732 q 326 847 186 847 q 528 791 465 847 q 598 606 592 735 q 599 552 599 590 q 599 467 599 513 q 597 382 599 421 l 253 382 q 255 294 253 338 q 256 211 256 251 q 274 158 258 174 q 328 142 291 142 q 377 158 362 142 q 394 211 392 174 q 395 258 395 228 q 394 324 395 288 l 597 324 q 599 286 598 317 q 598 233 599 256 q 529 44 592 101 q 328 -14 466 -14 m 253 525 l 395 525 q 395 572 395 550 q 394 610 394 594 q 394 629 394 625 q 376 677 392 663 q 326 692 360 692 q 274 677 290 692 q 256 629 258 663 q 255 578 256 604 q 253 525 255 552 m 148 890 l 262 1083 l 381 1083 l 495 890 l 362 890 l 322 968 l 281 890 l 148 890 m 476 1047 l 485 1088 q 481 1147 497 1132 q 410 1163 466 1163 l 349 1163 l 349 1260 l 410 1260 q 564 1219 515 1260 q 591 1088 613 1178 l 581 1047 l 476 1047 z "},"ễ":{"ha":638,"x_min":45,"x_max":599,"o":"m 328 -14 q 121 44 186 -14 q 48 233 56 101 q 46 306 47 257 q 45 413 45 355 q 46 521 45 470 q 48 597 47 572 q 122 790 58 732 q 326 847 186 847 q 528 791 465 847 q 598 606 592 735 q 599 552 599 590 q 599 467 599 513 q 597 382 599 421 l 253 382 q 255 294 253 338 q 256 211 256 251 q 274 158 258 174 q 328 142 291 142 q 377 158 362 142 q 394 211 392 174 q 395 258 395 228 q 394 324 395 288 l 597 324 q 599 286 598 317 q 598 233 599 256 q 529 44 592 101 q 328 -14 466 -14 m 253 525 l 395 525 q 395 572 395 550 q 394 610 394 594 q 394 629 394 625 q 376 677 392 663 q 326 692 360 692 q 274 677 290 692 q 256 629 258 663 q 255 578 256 604 q 253 525 255 552 m 148 890 l 262 1083 l 381 1083 l 495 890 l 362 890 l 322 968 l 281 890 l 148 890 m 441 1268 l 519 1268 q 488 1152 515 1188 q 410 1115 460 1115 q 362 1125 380 1115 q 332 1149 344 1135 q 308 1172 320 1162 q 275 1182 295 1182 q 247 1167 253 1182 q 238 1125 240 1151 l 160 1125 q 194 1249 166 1212 q 273 1286 222 1286 q 322 1276 303 1286 q 353 1253 340 1267 q 379 1231 366 1240 q 410 1221 392 1221 q 434 1233 428 1221 q 441 1268 440 1244 z "},"ȅ":{"ha":638,"x_min":31,"x_max":599,"o":"m 328 -14 q 121 44 186 -14 q 48 233 56 101 q 46 306 47 257 q 45 413 45 355 q 46 521 45 470 q 48 597 47 572 q 122 790 58 732 q 326 847 186 847 q 528 791 465 847 q 598 606 592 735 q 599 552 599 590 q 599 467 599 513 q 597 382 599 421 l 253 382 q 255 294 253 338 q 256 211 256 251 q 274 158 258 174 q 328 142 291 142 q 377 158 362 142 q 394 211 392 174 q 395 258 395 228 q 394 324 395 288 l 597 324 q 599 286 598 317 q 598 233 599 256 q 529 44 592 101 q 328 -14 466 -14 m 253 525 l 395 525 q 395 572 395 550 q 394 610 394 594 q 394 629 394 625 q 376 677 392 663 q 326 692 360 692 q 274 677 290 692 q 256 629 258 663 q 255 578 256 604 q 253 525 255 552 m 353 889 l 226 1082 l 359 1082 l 487 889 l 353 889 m 159 889 l 31 1082 l 165 1082 l 292 889 l 159 889 z "},"ë":{"ha":638,"x_min":45,"x_max":599,"o":"m 328 -14 q 121 44 186 -14 q 48 233 56 101 q 46 306 47 257 q 45 413 45 355 q 46 521 45 470 q 48 597 47 572 q 122 790 58 732 q 326 847 186 847 q 528 791 465 847 q 598 606 592 735 q 599 552 599 590 q 599 467 599 513 q 597 382 599 421 l 253 382 q 255 294 253 338 q 256 211 256 251 q 274 158 258 174 q 328 142 291 142 q 377 158 362 142 q 394 211 392 174 q 395 258 395 228 q 394 324 395 288 l 597 324 q 599 286 598 317 q 598 233 599 256 q 529 44 592 101 q 328 -14 466 -14 m 253 525 l 395 525 q 395 572 395 550 q 394 610 394 594 q 394 629 394 625 q 376 677 392 663 q 326 692 360 692 q 274 677 290 692 q 256 629 258 663 q 255 578 256 604 q 253 525 255 552 m 360 910 l 360 1047 l 498 1047 l 498 910 l 360 910 m 148 910 l 148 1047 l 285 1047 l 285 910 l 148 910 z "},"ė":{"ha":638,"x_min":45,"x_max":599,"o":"m 328 -14 q 121 44 186 -14 q 48 233 56 101 q 46 306 47 257 q 45 413 45 355 q 46 521 45 470 q 48 597 47 572 q 122 790 58 732 q 326 847 186 847 q 528 791 465 847 q 598 606 592 735 q 599 552 599 590 q 599 467 599 513 q 597 382 599 421 l 253 382 q 255 294 253 338 q 256 211 256 251 q 274 158 258 174 q 328 142 291 142 q 377 158 362 142 q 394 211 392 174 q 395 258 395 228 q 394 324 395 288 l 597 324 q 599 286 598 317 q 598 233 599 256 q 529 44 592 101 q 328 -14 466 -14 m 253 525 l 395 525 q 395 572 395 550 q 394 610 394 594 q 394 629 394 625 q 376 677 392 663 q 326 692 360 692 q 274 677 290 692 q 256 629 258 663 q 255 578 256 604 q 253 525 255 552 m 253 889 l 253 1026 l 391 1026 l 391 889 l 253 889 z "},"ẹ":{"ha":638,"x_min":45,"x_max":599,"o":"m 328 -14 q 121 44 186 -14 q 48 233 56 101 q 46 306 47 257 q 45 413 45 355 q 46 521 45 470 q 48 597 47 572 q 122 790 58 732 q 326 847 186 847 q 528 791 465 847 q 598 606 592 735 q 599 552 599 590 q 599 467 599 513 q 597 382 599 421 l 253 382 q 255 294 253 338 q 256 211 256 251 q 274 158 258 174 q 328 142 291 142 q 377 158 362 142 q 394 211 392 174 q 395 258 395 228 q 394 324 395 288 l 597 324 q 599 286 598 317 q 598 233 599 256 q 529 44 592 101 q 328 -14 466 -14 m 253 525 l 395 525 q 395 572 395 550 q 394 610 394 594 q 394 629 394 625 q 376 677 392 663 q 326 692 360 692 q 274 677 290 692 q 256 629 258 663 q 255 578 256 604 q 253 525 255 552 m 253 -193 l 253 -56 l 391 -56 l 391 -193 l 253 -193 z "},"è":{"ha":638,"x_min":45,"x_max":599,"o":"m 328 -14 q 121 44 186 -14 q 48 233 56 101 q 46 306 47 257 q 45 413 45 355 q 46 521 45 470 q 48 597 47 572 q 122 790 58 732 q 326 847 186 847 q 528 791 465 847 q 598 606 592 735 q 599 552 599 590 q 599 467 599 513 q 597 382 599 421 l 253 382 q 255 294 253 338 q 256 211 256 251 q 274 158 258 174 q 328 142 291 142 q 377 158 362 142 q 394 211 392 174 q 395 258 395 228 q 394 324 395 288 l 597 324 q 599 286 598 317 q 598 233 599 256 q 529 44 592 101 q 328 -14 466 -14 m 253 525 l 395 525 q 395 572 395 550 q 394 610 394 594 q 394 629 394 625 q 376 677 392 663 q 326 692 360 692 q 274 677 290 692 q 256 629 258 663 q 255 578 256 604 q 253 525 255 552 m 238 889 l 110 1082 l 244 1082 l 365 889 l 238 889 z "},"ẻ":{"ha":638,"x_min":45,"x_max":599,"o":"m 328 -14 q 121 44 186 -14 q 48 233 56 101 q 46 306 47 257 q 45 413 45 355 q 46 521 45 470 q 48 597 47 572 q 122 790 58 732 q 326 847 186 847 q 528 791 465 847 q 598 606 592 735 q 599 552 599 590 q 599 467 599 513 q 597 382 599 421 l 253 382 q 255 294 253 338 q 256 211 256 251 q 274 158 258 174 q 328 142 291 142 q 377 158 362 142 q 394 211 392 174 q 395 258 395 228 q 394 324 395 288 l 597 324 q 599 286 598 317 q 598 233 599 256 q 529 44 592 101 q 328 -14 466 -14 m 253 525 l 395 525 q 395 572 395 550 q 394 610 394 594 q 394 629 394 625 q 376 677 392 663 q 326 692 360 692 q 274 677 290 692 q 256 629 258 663 q 255 578 256 604 q 253 525 255 552 m 331 881 l 340 921 q 336 981 351 965 q 265 996 321 996 l 203 996 l 203 1093 l 265 1093 q 419 1052 369 1093 q 446 921 468 1011 l 436 881 l 331 881 z "},"₈":{"ha":449,"x_min":38,"x_max":411,"o":"m 224 -8 q 81 24 124 -8 q 38 129 38 56 q 38 139 38 135 q 38 149 38 144 q 55 203 38 181 q 113 239 73 224 l 113 253 q 65 283 81 259 q 46 354 49 308 q 45 369 45 363 q 46 382 45 375 q 90 481 51 453 q 224 508 128 508 q 361 478 319 508 q 403 378 403 448 q 403 366 403 372 q 403 354 403 360 q 385 279 400 304 q 335 250 369 254 l 335 239 q 411 149 411 210 q 411 142 411 145 q 411 136 411 139 q 411 129 411 133 q 367 24 411 56 q 224 -8 324 -8 m 225 108 q 251 116 242 108 q 261 136 261 123 q 261 143 261 140 q 261 150 261 147 q 251 173 261 165 q 225 181 242 181 q 198 173 208 181 q 189 150 189 165 q 189 143 189 147 q 189 136 189 140 q 198 116 189 123 q 225 108 208 108 m 224 317 q 260 344 260 317 q 260 352 260 348 q 260 358 260 356 q 251 381 260 373 q 224 389 242 389 q 197 381 206 389 q 188 358 188 373 q 188 352 188 356 q 188 344 188 348 q 197 324 188 331 q 224 317 206 317 z "},"⁸":{"ha":449,"x_min":38,"x_max":411,"o":"m 224 601 q 81 633 124 601 q 38 739 38 665 q 38 749 38 744 q 38 758 38 753 q 55 813 38 791 q 113 849 73 834 l 113 863 q 65 893 81 869 q 46 964 49 917 q 45 978 45 972 q 46 992 45 985 q 90 1090 51 1063 q 224 1118 128 1118 q 361 1088 319 1118 q 403 988 403 1058 q 403 976 403 981 q 403 964 403 970 q 385 889 400 914 q 335 860 369 864 l 335 849 q 411 758 411 820 q 411 752 411 755 q 411 745 411 749 q 411 739 411 742 q 367 633 411 665 q 224 601 324 601 m 225 718 q 251 725 242 718 q 261 746 261 733 q 261 753 261 749 q 261 760 261 757 q 251 782 261 774 q 225 790 242 790 q 198 782 208 790 q 189 760 189 774 q 189 753 189 757 q 189 746 189 749 q 198 725 189 733 q 225 718 208 718 m 224 926 q 260 954 260 926 q 260 961 260 958 q 260 968 260 965 q 251 991 260 983 q 224 999 242 999 q 197 991 206 999 q 188 968 188 983 q 188 961 188 965 q 188 954 188 958 q 197 934 188 941 q 224 926 206 926 z "},"ȇ":{"ha":638,"x_min":45,"x_max":599,"o":"m 323 1094 q 477 1047 428 1094 q 533 889 526 999 l 409 889 q 389 967 409 943 q 323 990 369 990 q 257 967 277 990 q 237 889 237 943 l 113 889 q 168 1047 119 999 q 323 1094 217 1094 m 328 -14 q 121 44 186 -14 q 48 233 56 101 q 46 306 47 257 q 45 413 45 355 q 46 521 45 470 q 48 597 47 572 q 122 790 58 732 q 326 847 186 847 q 528 791 465 847 q 598 606 592 735 q 599 552 599 590 q 599 467 599 513 q 597 382 599 421 l 253 382 q 255 294 253 338 q 256 211 256 251 q 274 158 258 174 q 328 142 291 142 q 377 158 362 142 q 394 211 392 174 q 395 258 395 228 q 394 324 395 288 l 597 324 q 599 286 598 317 q 598 233 599 256 q 529 44 592 101 q 328 -14 466 -14 m 253 525 l 395 525 q 395 572 395 550 q 394 610 394 594 q 394 629 394 625 q 376 677 392 663 q 326 692 360 692 q 274 677 290 692 q 256 629 258 663 q 255 578 256 604 q 253 525 255 552 z "},"…":{"ha":972,"x_min":56,"x_max":889,"o":"m 56 0 l 56 193 l 292 193 l 292 0 l 56 0 m 354 0 l 354 193 l 590 193 l 590 0 l 354 0 m 653 0 l 653 193 l 889 193 l 889 0 l 653 0 z "},"ē":{"ha":638,"x_min":45,"x_max":599,"o":"m 328 -14 q 121 44 186 -14 q 48 233 56 101 q 46 306 47 257 q 45 413 45 355 q 46 521 45 470 q 48 597 47 572 q 122 790 58 732 q 326 847 186 847 q 528 791 465 847 q 598 606 592 735 q 599 552 599 590 q 599 467 599 513 q 597 382 599 421 l 253 382 q 255 294 253 338 q 256 211 256 251 q 274 158 258 174 q 328 142 291 142 q 377 158 362 142 q 394 211 392 174 q 395 258 395 228 q 394 324 395 288 l 597 324 q 599 286 598 317 q 598 233 599 256 q 529 44 592 101 q 328 -14 466 -14 m 253 525 l 395 525 q 395 572 395 550 q 394 610 394 594 q 394 629 394 625 q 376 677 392 663 q 326 692 360 692 q 274 677 290 692 q 256 629 258 663 q 255 578 256 604 q 253 525 255 552 m 86 968 l 553 968 l 553 875 l 86 875 l 86 968 z "},"ḗ":{"ha":638,"x_min":45,"x_max":599,"o":"m 328 -14 q 121 44 186 -14 q 48 233 56 101 q 46 306 47 257 q 45 413 45 355 q 46 521 45 470 q 48 597 47 572 q 122 790 58 732 q 326 847 186 847 q 528 791 465 847 q 598 606 592 735 q 599 552 599 590 q 599 467 599 513 q 597 382 599 421 l 253 382 q 255 294 253 338 q 256 211 256 251 q 274 158 258 174 q 328 142 291 142 q 377 158 362 142 q 394 211 392 174 q 395 258 395 228 q 394 324 395 288 l 597 324 q 599 286 598 317 q 598 233 599 256 q 529 44 592 101 q 328 -14 466 -14 m 253 525 l 395 525 q 395 572 395 550 q 394 610 394 594 q 394 629 394 625 q 376 677 392 663 q 326 692 360 692 q 274 677 290 692 q 256 629 258 663 q 255 578 256 604 q 253 525 255 552 m 86 968 l 553 968 l 553 875 l 86 875 l 86 968 m 266 1044 l 401 1238 l 534 1238 l 392 1044 l 266 1044 z "},"ḕ":{"ha":638,"x_min":45,"x_max":599,"o":"m 328 -14 q 121 44 186 -14 q 48 233 56 101 q 46 306 47 257 q 45 413 45 355 q 46 521 45 470 q 48 597 47 572 q 122 790 58 732 q 326 847 186 847 q 528 791 465 847 q 598 606 592 735 q 599 552 599 590 q 599 467 599 513 q 597 382 599 421 l 253 382 q 255 294 253 338 q 256 211 256 251 q 274 158 258 174 q 328 142 291 142 q 377 158 362 142 q 394 211 392 174 q 395 258 395 228 q 394 324 395 288 l 597 324 q 599 286 598 317 q 598 233 599 256 q 529 44 592 101 q 328 -14 466 -14 m 253 525 l 395 525 q 395 572 395 550 q 394 610 394 594 q 394 629 394 625 q 376 677 392 663 q 326 692 360 692 q 274 677 290 692 q 256 629 258 663 q 255 578 256 604 q 253 525 255 552 m 86 968 l 553 968 l 553 875 l 86 875 l 86 968 m 238 1044 l 110 1238 l 244 1238 l 365 1044 l 238 1044 z "},"—":{"ha":1253,"x_min":42,"x_max":1211,"o":"m 42 400 l 42 583 l 1211 583 l 1211 400 l 42 400 z "},"∅":{"ha":704,"x_min":55,"x_max":649,"o":"m 351 -14 q 138 59 213 -14 q 58 265 62 131 q 56 458 56 359 q 56 655 55 556 q 58 847 56 753 q 138 1053 62 982 q 351 1125 213 1125 q 564 1053 488 1125 q 643 847 639 982 q 647 703 646 776 q 649 555 649 629 q 647 408 649 481 q 643 265 646 335 q 564 59 639 131 q 351 -14 488 -14 m 351 156 q 435 226 431 156 q 440 386 438 305 q 442 549 442 467 l 264 331 q 265 278 264 303 q 267 226 266 253 q 351 156 269 156 m 261 550 l 439 769 q 437 828 438 799 q 435 886 436 857 q 351 956 433 956 q 267 886 269 956 q 263 776 265 832 q 261 664 262 720 q 261 550 260 607 z "},"–":{"ha":758,"x_min":42,"x_max":717,"o":"m 42 400 l 42 583 l 717 583 l 717 400 l 42 400 z "}}}
